<?xml version="1.0" encoding="utf-8"?>
<!-- Generator: Adobe Illustrator 22.0.1, SVG Export Plug-In . SVG Version: 6.00 Build 0)  -->
<svg version="1.1" id="Layer_1" xmlns="http://www.w3.org/2000/svg" xmlns:xlink="http://www.w3.org/1999/xlink" x="0px" y="0px"
	 viewBox="0 0 500 500" style="enable-background:new 0 0 500 500;" xml:space="preserve">
<style type="text/css">
	.st0{fill:#12100B;}
	.st1{fill:#FCDD2B;}
</style>
<g>
	<path class="st0" d="M429.1,259.8L429.1,259.8L429.1,259.8L429.1,259.8L429.1,259.8z M431.6,261l-0.2,0l0.1,0.7l1.6-0.1
		C433,261.2,431.9,261,431.6,261L431.6,261z M429.6,259.5c0.2-0.1,0.3-0.3-0.2-0.3c-0.2,0.3,0.3,0.3-0.3,0.4l0,0.2
		c0.1-0.1,0.2-0.1,0.3-0.2l-0.3,0.2v0l-0.6,0.7l1.1-0.4h0.1l-0.1-0.7L429.6,259.5L429.6,259.5z M382.2,271.8l-0.1-0.7l-0.2,0
		l0.1,0.7L382.2,271.8L382.2,271.8z M402.6,263c0-0.4,0.1-0.6,0.5-0.7l0.5,0.6c0-0.2,0.1-0.3,0.2-0.3l0.3,0.6L402.6,263L402.6,263z
		 M400.7,263.1l0-0.3l1.4-0.1l0,0.4L400.7,263.1L400.7,263.1z M397.5,263.5l0-0.3c0.2,0,0.5-0.2,0.8-0.4c0.6-0.1,0.9,0.3,0.9,0.8
		L397.5,263.5L397.5,263.5z M395,263.8l0-0.3l1.1-0.1l0,0.3L395,263.8L395,263.8z M394.8,264.1c-1.3-0.1-1.4-0.2-2.3-0.2l0-0.3
		l2.1-0.2l0,0.3C394.4,263.8,395.2,263.9,394.8,264.1L394.8,264.1z M386.7,264.8l-2.3,0.2l0-0.4l2.1-0.2l1.8-0.5
		c0,0.2,0.1,0.3,0.4,0.3c2.2-0.4,2-0.5,3-0.6c0.4,0,0.6,0.2,0.6,0.6L386.7,264.8L386.7,264.8z M386.5,269.7c0.2,0.1,0.1,0.2,0,0.2
		C386.4,269.9,386.3,269.8,386.5,269.7L386.5,269.7z M388.5,270.5c0-0.2-0.1-0.4-0.4-0.3l-1.8,0.2l0-0.4h0.2l4.2-0.3l0,0.3
		C389.5,270.1,388.8,270.3,388.5,270.5L388.5,270.5z M357.5,269.7l0-0.3l0.7-0.1l0.1,1C357.8,270.4,357.6,270.2,357.5,269.7
		L357.5,269.7z M379.2,206.6c0,0.4-0.2,1.3-0.8,2.8l-0.4,0l-0.1-1C378.5,207.2,378.9,206.6,379.2,206.6L379.2,206.6z M380.4,202.7
		c0.7-2.9,1.4-4.6,2.1-5l0,0.4c-0.4,2.7-1,4.1-1.8,4.2l0.1,1.7c-0.6,0.9-0.9,1.6-0.9,2.2l-0.4,0l-0.2-2.3
		C379.8,203.8,380.1,203.4,380.4,202.7L380.4,202.7z M383.4,195.6l0.4,0c-0.5,1-1,1.5-1.3,1.5l-0.1-1
		C382.6,196,382.9,195.9,383.4,195.6L383.4,195.6z M388,187.6c0.3,0,0.5,0,0.6,0c0.9-0.9,2-1.6,3.2-2.2c-1,4.3-2.5,7.4-4.6,9.5
		l-1.5-0.9C387,190.8,387.8,188.7,388,187.6L388,187.6z M360.5,194.7c0-0.3-0.5-0.5-1.6-0.6l-2.7,0.8l-2,0.1
		c-0.5-0.3-0.7-0.5-0.7-0.7l2.4,0.1l5.3-0.9l2.7,0.1l0,0.4C362.6,194.2,361.5,194.4,360.5,194.7L360.5,194.7z M356.2,192.6l0,0.3
		l-2.7,0.2l0-0.4L356.2,192.6L356.2,192.6z M358.2,184l-1.9,0.5l-0.4,0c-0.9,0.1-2.1,0.1-3.5-0.1C355,184.3,357.4,184.1,358.2,184
		L358.2,184z M349.1,196.5l-0.1-0.8l1.5-0.1c0.5-0.1,0.8,0.2,0.8,0.7L349.1,196.5L349.1,196.5z M347.4,189l-0.4,0l0.4-0.8l3.5-0.3
		l0,0.4C349.9,188.4,348.7,188.7,347.4,189L347.4,189z M347,194.3l0-0.4l1.5-0.1l0,0.4L347,194.3L347,194.3z M343.7,197l0-0.4
		l3.1-0.3l0,0.4L343.7,197L343.7,197z M341.3,190l-1.9-0.2l0-0.4c2.5-0.2,3.3-0.5,4.9-0.9c0,0.3,0.3,0.4,0.8,0.4l0.1,0.8l-0.8,0.1
		c-0.6,0.1-1.1,0-1.5-0.3C342.3,189.8,341.8,190,341.3,190L341.3,190z M346.1,188.3l0.4,0l0.1,0.8l-1.2,0.1
		C345.4,188.8,345.6,188.5,346.1,188.3L346.1,188.3z M326.9,192.1l-1.3,0.1l0-0.4c0-0.4,0.2-0.7,0.8-0.9l0.5,0l0.9,0.4
		C327.7,191.8,327.4,192,326.9,192.1L326.9,192.1z M309.8,270.5c0,0.4-0.6,0.9-2,1.4l-2.6-0.2l-0.8,0.1l-0.1-0.8L309.8,270.5
		L309.8,270.5z M312.4,270.7l0,0.4l-2.1,0.2l0-0.4L312.4,270.7L312.4,270.7z M295.5,257.7l0-0.4c0-0.4,0.2-0.7,0.8-0.9l0,0.4
		C296.4,257.4,296.1,257.7,295.5,257.7L295.5,257.7z M294,263.9l-1.3,0.1c-0.1-0.5,0.6-2.5,2-5.8l0.8-0.1
		C295.6,258.9,295.1,260.8,294,263.9L294,263.9z M426.7,261.7l0.5-0.1c0.3,0,0.4-0.3,0.4-0.7l-0.3-0.6c-1.9,0.2-2.7,0.2-4.2,1.1
		l0-0.4l-2.2,0.2c-0.1-0.7-0.2-1-0.5-1l-1.2,0.1c-1.3,0.1-2,0.1-2.7,0.6c0-0.2-0.1-0.3-0.2-0.3l-1.3,0.1l-0.8,0.4
		c0-0.2-0.1-0.4-0.2-0.4l-0.5,0.4l0-0.4l-1.8-0.1l-0.4,0l0.1,0.7l0.9,0.2l0.9-0.1c0.3,0.2,0.6,0.2,1,0.2l0.8-0.4l0,0.3
		c-4.2,1.1-4.2,0.9-7.1,1.3c-0.3-0.2-0.6-0.3-0.7-0.3l-0.1,0.1c-0.3,0-0.5-0.2-0.5-0.6l1.5-0.2c0.1,0,0.2,0.1,1,0.3
		c1.2-0.6,1.3-0.8,1.9-0.9l-0.1-0.7c-4.2,0.8-2.5,0.3-7.7,0.7l-0.2,0l-0.1-0.7c6.7-0.8,4.4-0.4,6.7-1c0,0.2,0.1,0.4,0.2,0.4
		c0.3-0.3,0.6-0.4,0.9-0.5l0.5,0c2.3-0.2,3.1,0.3,7.8-1l0,0.3l0.8-0.4l0.7-0.1c-0.1-0.7,1-0.8,1.3-0.8l-0.1-0.7
		c-8.1,1.6-10.3,1.2-12.5,1.8l0-0.3c-2.1,0.4-2.2,0.2-2.8,0.2c-0.2,0-0.4,0.2-0.7,0.4c0-0.2-0.1-0.4-0.3-0.4c-0.1,0-0.1,0-0.1,0
		l-6.9,1.1c0-0.2-0.1-0.3-0.3-0.3c-3.6,0.8-2.6,0.9-7.4,1.3c-0.2,0-0.5,0.1-0.9,0.4c0-0.2-0.1-0.3-0.4-0.3l-2.9,0.2l-2,0.5
		c0-0.2-0.1-0.3-0.4-0.3c-1.1,0.3-2.1,0.5-2.9,0.5h-0.1c-0.5,0.1,0.2-0.1-0.1-0.3l-0.6,0.4c-0.9,0.1-0.4-0.1-3.4,0
		c-5.2,0.6-4.6,0.7-5.2,0.8l-1.9-0.1c0,0.2-0.1,0.3-0.3,0.3c-2.2-0.3-3.3-0.6-3.4-1.1c0.3-2.1,0.8-3.2,1.5-3.2l0.4,0l-0.3,0.7l0.4,0
		c0.7-0.4,1-0.7,1-1.1l-0.1-0.7l-0.7,0.1l-0.1-0.7c-0.1-0.5,0-1,0.2-1.3l1.6-2.6l0.1,0.7l0.8-0.1l-0.1-0.7l-0.4-0.6
		c0.6-0.5,1-0.8,1.3-0.8l0-0.4l-1,0.1l-0.1-1c2-4.3,3-6.7,3-7.4l0.7,0.3c0.5,0,0.7-0.3,0.6-0.8l-0.7,0.1l0-0.3
		c-0.1-0.5,0.1-1,0.3-1.4c1.1-1.2,1.6-2.3,1.5-3.5c0.2,0,0.3,0.1,0.4,0.3c0.9-0.5,1.7-2,2.2-4.3c1.7-3,4-9.1,7.1-18.1
		c5.9-16,5.7-17.7,6.5-21.4l-0.7,0.1c0.1,0.5-0.1,0.9-0.3,1.4c-0.5-0.2-0.9-0.3-1.1-0.3l0-0.3c-0.1-1.4,0.5-3,1.8-5l0.3,0l0.6,2.3
		l0.7-0.1c0-0.2,0.2-1.1,0.5-2.8c0-0.4-0.3-0.6-0.8-0.6l-0.7,0.4c-0.1-0.5,0-1.8,0.1-3.8l-0.4,0c-0.6-0.6-0.9-1.1-0.9-1.5l-3.9,0.4
		c0-0.3-0.2-0.7-0.4-1.2c0-0.4,0.8-0.7,2.6-1.1l0.8,0.3l0.7-0.4c0,0.2,0.2,0.4,0.4,0.3l0.7-0.4c0,0.2,0.2,0.4,0.4,0.3l0.4,0
		l-0.1-0.8c-0.5,0.1-2,0.1-4.2,0l-0.7,0.5l0-0.4c-18.1,1.5-28.4,2.3-30.8,2.6c-0.3,0-1.6,0-3.8-0.1c0,0.3-0.2,0.5-0.8,0.5l-0.8-0.4
		l-2.6,0.7c-0.6,0.1-1.7,0-3.1-0.1c-0.4,0.3-0.9,0.5-1.5,0.6c-0.3,0,3.9-0.2,7.7-0.5c-0.4,0.3-1,0.5-1.9,0.6c-0.6,0.1-1.1,0-1.5-0.3
		c-0.6,0.3-2.5,0.7-5.7,1.3l-0.8-0.3l-12.6,1.9c-0.5-0.2-1.1-0.3-1.7-0.3c-0.7,0.1-1.8,0.3-3.4,0.7l-6.1,2.5l0.5,0.8
		c0.3,0,0.7-0.2,1.2-0.5l2.2,0.2l-0.3,2c-2,0.9-3.2,2.2-3.5,3.9c-3,1.3-4.5,2.3-4.5,2.8l0,0.4l0.5,0l0.8-0.4l0.9,1.1l0.1,1.6
		c0.1,0.5-5,11.1-15.1,31.8c-8.7,19.9-13.3,30.9-13.7,32.8c-3,0.8-4.7,2-5.2,3.7c0.1,0.5,0.9,0.9,2.7,1l0.1,0.8l-0.8,1.3l0.1,1.6
		c0.1,0.8,2.3,1.4,6.6,1.9c0-0.3,0.1-0.4,0.4-0.5c0.1,1-0.2,2.9-0.8,5.7l0.5,0c1.8-2.4,2.6-4.1,2.5-5l0.4,0c0.4,0,0.9,0.5,1.4,1.5
		c-0.5,0.2-2.4,4.5-5.7,12.9l0.5,0.8l0.5,0c4-10,6.4-15.6,7.5-16.6c5.2-0.5,14.2-1.4,27-2.7l0.8-0.5c0,0.3,0.2,0.4,0.5,0.4l0.8-0.1
		l0.8-0.5c0,0.3,0.2,0.4,0.5,0.4l9.7-0.8c2.6-0.2,3.8-1,3.7-2.3c0-0.4,1.5-0.8,4.5-1.2c0.3,0,0.7,0.1,1.3,0.2c0-0.2,1.5-0.5,4.6-0.8
		c0.1-1.6,0.6-2.5,1.5-2.6l-0.1-0.8c-0.9,0.1-1.8,0.3-3,0.7c-2-0.1-3.3-0.3-3.9-0.5c-0.5,0.3-0.9,0.5-1.2,0.5l-6.7,0.2l-0.8,0.4
		c0-0.2-0.2-0.4-0.5-0.3l-0.4,0l-0.9,0.4c0-0.2-0.7-0.4-2.1-0.6l-0.9,0.5l-1.7,0.1l0-0.4c8.7-0.9,13-2.1,12.9-3.5
		c0.6-0.1,0.9,0.2,0.9,0.8l2.5-0.6l-0.1-0.8l-20.8,0.6c0,0.3-0.1,0.4-0.4,0.5l-2.5-0.2c-0.6,0.1-1.2,0.2-1.6,0.6l-0.9-0.4
		c-2.6,0.2-4.6,0.5-5.9,0.9c-1.8-0.1-3.7-0.1-5.9,0.1l-4.7,0.4l-2.2-0.2c-0.1-1.4,2.6-8.1,8.1-20.3c1.6-4.1,3-6.7,4.4-7.6
		c0.3,0,0.7,0.1,1.3,0.3l3.3-1.1l1.7,0.3c2.9-0.2,6.2-1.1,10-2.5c0.9-0.1,1.6,0,2.2,0.2l2.5-0.6l7.5-0.6c3.2-0.3,6.7-1,10.5-2.1
		l-0.1-0.8c-1.4,0.1-2.1-0.1-2.2-0.7c-0.1-1.1-1.1-1.5-3.1-1.3l-0.1-0.8l2.1-0.6l5.4-0.5l-0.1-0.8c-0.2,0-1.3,0-3.4-0.1l-0.1-0.8
		l2.1-0.2c0.6-0.1,0.8-0.3,0.8-0.9c-2.8,0.1-4.3-0.1-4.3-0.4c-19.7,1-29.6,1.2-29.7,0.5c-0.3,0-0.7,0.2-1.2,0.5l-0.5-0.8
		c5.2-11.1,8.3-16.7,9.2-16.8c0,0.4-0.2,1.1-0.7,2.1l0,0.4l0.8-0.1c2.1-5,3.8-7.5,5.3-7.6c6.2-0.5-0.9-0.9,12.4-3
		c0.5,0.2,0.9,0.4,1.2,0.3c5.2-1.1,12.5-2.2,21.8-3.3l-0.1-0.8l-5,0.5l-0.1-0.8c0.6-0.1,1.1-0.2,1.5-0.6l0,0.4
		c0.3,0,0.6-0.2,1.1-0.5c0.9-0.1,1.5,0,2,0.2c1.7-0.5,3.1-0.7,4.2-0.8l3.1-0.3c0.8-0.5,1.1-0.9,1.1-1.3l0-0.4
		c-0.8,0.1-1.7,0-2.7-0.2c0-0.4,0.2-0.7,0.7-0.9l5.8-0.5l2.6-0.7c0,0.3,0.2,0.4,0.4,0.4c0.3,0,0.6-0.2,1.1-0.5c0.1,0,0.3,0,0.4,0.1
		c-0.4,0.7-0.8,1.8-1.2,3.2l-0.8,0.1c-0.1-0.5-0.2-1-0.4-1.4l-0.4,0c-7,19.5-10.1,28.6-16.6,43.6c-1.2,3.8-2.2,6-3,6.4
		c0,0.4,0.3,0.6,0.8,0.6c0.2,1.9-0.3,3.7-1.3,5.6c-3,8.6-5,13.3-6,14.2l0.7,4.1c0,0.4-0.2,0.7-0.6,0.7l-0.7,0.1
		c-0.1-1.1-0.5-1.7-1.2-1.6l-0.4,0c-0.9,1.4-1.6,3.1-2.1,5l0.7-0.1c0.9-0.6,1.4-1.3,1.3-2.2l1.4-0.1l0.8,0.3c-0.6,1-0.9,1.8-0.9,2.5
		l0.4,0.6l-0.9,2.2l0,0.4c0.8-0.1,1.7,0.2,2.6,0.8c0.6-0.1,1.3-0.3,2.1-0.9c0.8-0.1,3.8-0.1,9-0.1l2.6-0.9c3.2,0,3.7,0.1,6.4-0.2
		l1.1-0.1l0.6-0.4l0,0.4c2.9-0.2,3.1-0.1,5.3,0.2l0,0.4l-1.6,0.1l0.1,0.7c0.5-0.1,0.9-0.2,1.3-0.5c0.4,0,0.6,0.2,0.7,0.7
		c-0.6,0.1-1.4,0.2-2.2,0.5l-0.7-0.2c-1.1,0.3-0.9,0.4-1.6,0.4l-1.1-0.2c0,0.2-0.1,0.3-0.3,0.3c0,0.4,0.3,0.6,0.7,0.6l1.1-0.1
		l5.9-0.5l2.2-0.5c0,0.2,0.1,0.3,0.3,0.3l1.1-0.4l2-0.2c1.6-0.1,1.5-0.2,4.9-0.8c0-0.2,0.1-0.3,0.2-0.3l0,0.3c5.5-0.9,5.9-1,6.8-1.3
		l0.1,0.2c1.4-0.3,0.6-0.2,1-0.5c0,0.2,0.1,0.3,0.2,0.3l1-0.1l-0.1-0.7l-2,0l0-0.1c-0.1,0-0.1,0-0.2,0.1h-0.3v0.1
		c-1.3,0.3-1.3,0.1-2.2,0.2l-4.9,0.3l0-0.4l2.7-0.4l1-0.1l0.6-0.4l0,0.4c3.9-0.3,5.3,0.6,23.2-3.2c1-0.1,0.9-0.9,1.5-2.6
		c-0.3,0-0.6-0.1-0.9-0.2c-1.5,0.6-2.3,0.3-5.1,0.8c-0.2,0-0.4-0.2-0.5-0.6l0-0.3l2.8,0.1c0.5-0.1,1.5-0.1,3-1
		C426.9,261.6,426.4,261.8,426.7,261.7L426.7,261.7z M360.8,249.6l0-0.4l-0.4,0l-0.7,0.4l0.4,0.6
		C360.6,250.3,360.9,250.1,360.8,249.6L360.8,249.6z M365.8,273.5l-1.8-0.2l-0.3,0.7l0,0.4l10.9-0.9l-0.1-0.7L365.8,273.5
		L365.8,273.5z M421.5,266.7l0.1,0.7l1.2,0.2l-0.1-0.7L421.5,266.7L421.5,266.7z M370.7,254.9l-0.7-0.2c-0.6,1.6-0.9,2.5-0.9,2.8
		l0,0.3C369.7,257.7,370.2,256.8,370.7,254.9L370.7,254.9z M375.7,272.7l0.1,0.7h0.1l-0.1-0.7H375.7L375.7,272.7z M419.9,266.8
		c-8.2,1.8-9.2,1.5-10.9,1.6l0.1,0.7l0.8-0.1l0.4,0L410,269l0.9-0.4c8.1-0.9,9.1-0.6,9-1.5L419.9,266.8L419.9,266.8z M175.3,246.3
		l0.8-0.2l-0.2-0.7l-0.8,0.2L175.3,246.3L175.3,246.3z M156.3,291.4l0.1,0.3c0.5-0.1,0.6-0.4,0.5-0.8l-0.1-0.4
		C156.4,290.7,156.2,291,156.3,291.4L156.3,291.4z M159,296.7l-0.7,0.2l-0.6,0.5c0.1,0.4,0.4,0.6,0.8,0.5c0.5-0.1,0.6-0.4,0.5-0.8
		L159,296.7L159,296.7z M284.4,231.3l-0.1-1l0.7-0.1l1.5,0.9c0,0.4-0.2,0.7-0.6,0.7C285.3,231.4,284.8,231.2,284.4,231.3
		L284.4,231.3z M281.3,220.1c-0.9,1.1-3.5,3.1-7.7,5.8c-1.4,0.1-6.6,2.1-15.5,6c-0.4-0.2-0.9-0.2-1.4-0.2l-0.1-0.7
		c-0.1-1.3,0.5-2.9,1.7-4.9c0.7-3.7,1.5-5.8,2.3-6.3l7.5-16.8c-0.1-1,1.5-1.8,4.7-2.4l1.1-0.1l0.1,1c3.2-0.5,5.2-0.8,6-0.9
		c5.9-0.5,9,0.7,9.3,3.6l0.7-0.1l-0.1-1.6l0.7-0.1c1.7,0.9,2.6,2.1,2.7,3.4c0.1,1-0.4,2.2-1.4,3.5c-0.5,0.1-0.7-0.3-0.8-1l-0.7,0.1
		l-0.2,2c-3,4.6-5.2,6.9-6.6,7C282.4,219.2,281.6,220,281.3,220.1L281.3,220.1z M278.5,236.5l1.1-0.1c1,0.5,1.5,0.9,1.5,1.3l0,0.3
		C280.2,238,279.3,237.6,278.5,236.5L278.5,236.5z M258,240l1.4-0.1l0,0.4l-1.4,0.1L258,240L258,240z M275.7,249.9l-9,7.2
		c-6.7,4.4-10.4,6.6-10.9,6.7c-10.7,5.9-17.3,8.9-19.9,9.1l-0.4,0c0.3-1.2,5.1-10.9,14.3-29.2c4-0.4,10.4-2.3,19.1-5.7l2.2-0.2
		c4.4-0.4,7.7,0.5,9.8,2.6l0.1,1.3C279.4,246.3,277.6,249,275.7,249.9L275.7,249.9z M246.5,272.3c1.8-0.2,3.2-0.8,4.5-2
		c0.5-0.1,0.7,0.2,0.8,0.6c-0.8,0.1-2.4,0.8-4.8,2l-0.4,0L246.5,272.3L246.5,272.3z M264.6,266.3c-5.9,2.9-9.5,4.9-10.6,6
		c-6.5,2.3-9.7,3.7-9.6,4.2c-5.7,2.3-9.5,3.9-11.3,5c-0.4,0-1.1-0.1-1.9-0.5c-0.1-1.2,0.4-2.1,1.6-2.8c1-0.1,2,0.1,2.9,0.4
		c1.1-0.5,2.9-1.1,5.6-1.8l-0.1-0.7l-2.2,0.2c0.3-0.4,2.3-1.3,6.2-2.9l1.1-0.1l0,0.3c-1.8,0.2-2.9,0.7-3.1,1.7
		c0,0.4,0.3,0.6,0.8,0.6c1.3-0.9,2-1.4,2-1.6c2.6-0.5,9.8-4.2,21.5-11.3l0.1,0.7C267.6,264,266.6,264.9,264.6,266.3L264.6,266.3z
		 M234.3,275.7l1.1-0.1l0,0.4c-0.2,0-0.6,0.2-1.1,0.4l-0.7,0.1C233.6,276,233.8,275.8,234.3,275.7L234.3,275.7z M234.9,266.2l0,0.3
		c0.1,0.5-0.2,0.8-0.6,0.8l0-0.4C234.2,266.6,234.4,266.3,234.9,266.2L234.9,266.2z M237,261.7c-0.5,2.3-0.9,3.4-1.5,3.5l0-0.3
		C235.5,263.7,235.9,262.6,237,261.7L237,261.7z M248.5,229l-0.2,1.7l-0.3,0l-0.1-1.7L248.5,229L248.5,229z M249.7,225.8l0.3,0
		l0,0.4l-0.6,1.1l-0.7,0.1l0-0.4C249.4,226.9,249.7,226.5,249.7,225.8L249.7,225.8z M250.8,222.4l0.7-0.1c-0.1,1.1-0.4,1.7-0.9,1.8
		l-0.4,0C250.6,223.4,250.8,222.8,250.8,222.4L250.8,222.4z M252.4,219.9l0.1,1.3l-0.4,0l-0.1-1.3L252.4,219.9L252.4,219.9z
		 M255.3,212.9l0.4,0l0.1,1c-0.4,0-0.8,0.5-1.3,1.5l-0.1-0.7C255.1,213.9,255.4,213.3,255.3,212.9L255.3,212.9z M256.5,234.7
		l-1.4,0.1l-0.1-0.7l1.4-0.1L256.5,234.7L256.5,234.7z M298.8,198.4l-0.3,0.7l-10-4.2C295.1,195.1,298.6,196.3,298.8,198.4
		L298.8,198.4z M299.8,206.1c-0.4,0-1-1.1-2.1-3.2l-0.1-0.7c0.7-0.1,1.4,1,2.1,3.2L299.8,206.1L299.8,206.1z M226,283.2
		c-0.8-0.4-1.5-0.5-2.2-0.5l-0.1-1c0-0.4,0.2-0.6,0.6-0.7c0.5-0.1,0.7,0.3,0.8,1c1.2-1.5,1.8-2.2,1.9-2.2l0.7,0.3
		C227.6,282,227,283.1,226,283.2L226,283.2z M232.9,214.1l-0.3,0l-0.1-0.7l1.4-0.1l0,0.4C233.7,213.7,233.4,213.9,232.9,214.1
		L232.9,214.1z M216.2,228.4c-0.4,4.3-1.9,6.7-4.6,7.3l-0.1-0.4l-2.4,0.9l-1.1,0.2c-0.5,0.1-1,0.1-1.5,0l-0.2-0.9
		c-0.1-0.4,3.3-5.1,10.3-14.2l0.8,0.1C217.9,222.8,217.4,225,216.2,228.4L216.2,228.4z M206.8,238.6c-0.2,0.1-0.6,0.3-1,0.6
		c-0.1-0.2-0.5-0.2-1.5,0c-0.2-0.7,2.4-1.6,7.8-2.9l0.8-0.2l0.2,0.6C209.3,237.9,207.2,238.5,206.8,238.6L206.8,238.6z M206.3,245.7
		l-0.1-0.3c0.2-0.1,0.6-0.2,0.9-0.6l3.5-0.8l0.1,0.4C208.8,244.7,207.3,245.2,206.3,245.7L206.3,245.7z M202.5,246.9l-0.8-0.1
		c-1.2,0.5-2.2,0.8-3.1,1l-0.7,0.2c-0.4,0.1-0.7-0.1-0.9-0.5l4.9-1.1l1.6-0.8l0.5,0.6C203.4,246.4,202.8,246.6,202.5,246.9
		L202.5,246.9z M195.1,308.8c0.1-0.5,0.1-0.8,0.1-1.1l0.4-0.1c0.5-0.1,0.7,0.1,0.8,0.5l0.1,0.3L195.1,308.8L195.1,308.8z
		 M184.5,244.1l-0.1-0.4l1.7-0.4l0.2,0.6L184.5,244.1L184.5,244.1z M174.7,254.8c-0.4,0.1-0.7-0.1-0.9-0.5l1.1-0.2
		c0.5-0.1,0.8,0.1,0.9,0.5L174.7,254.8L174.7,254.8z M171,255.6c-1.7,0.2-1.3-0.1-4.1,0.6l-0.1-0.4l3.4-1.1l1.6-0.4l0.2,0.6
		C171.4,255.2,171.9,255.2,171,255.6L171,255.6z M167,253.9c1.2-0.2,1.7-0.3,3.9-0.8l0.1,0.4l-4.1,0.9
		C167,254.3,167,254.1,167,253.9L167,253.9z M164.3,250.9l-0.1-0.4l1.1-0.3l0.1,0.4L164.3,250.9L164.3,250.9z M163.7,247.1
		c0.9,0.4,1.4,0.7,1.5,1.1l-0.4,0.1l0,0c-0.1,0-0.2,0-0.3,0.1l-0.6,0.5L163.7,247.1L163.7,247.1z M157.5,239.7
		c-0.8-0.5-1.5-0.8-1.9-0.8l-0.1-1.3l0.9-0.1l2,1.2C158.4,239.4,158.1,239.7,157.5,239.7L157.5,239.7z M151.4,224.2
		c-1.2,1.5-4.6,4-10.2,7.6c-1.8,0.2-8.7,2.8-20.5,8c-0.6-0.3-1.2-0.4-1.9-0.3l-0.1-0.8c-0.1-1.7,0.6-3.8,2.3-6.4
		c0.9-4.9,1.9-7.6,3-8.3l9.8-22.1c-0.1-1.4,2-2.4,6.3-3.2l1.4-0.1l0.1,1.3c4.2-0.6,6.9-1,7.9-1.1c7.8-0.7,11.9,0.9,12.2,4.7l0.9-0.1
		l-0.2-2.2l1-0.1c2.3,1.3,3.5,2.8,3.7,4.6c0.1,1.2-0.6,2.8-2,4.6c-0.6,0.1-0.9-0.4-1-1.2l-1,0.1l-0.2,2.7c-4,5.9-6.8,9-8.6,9.1
		C152.8,223.1,151.8,224.2,151.4,224.2L151.4,224.2z M147.6,245.9l1.4-0.1c1.3,0.6,2,1.2,2,1.6l0,0.4
		C149.8,247.9,148.7,247.3,147.6,245.9L147.6,245.9z M120.8,250.4l1.9-0.2l0,0.4l-1.9,0.2L120.8,250.4L120.8,250.4z M144,263.5
		l-11.9,9.4c-8.8,5.8-13.6,8.7-14.3,8.8c-14.1,7.7-22.8,11.8-26.2,12l-0.5,0.1c0.4-1.6,6.7-14.4,18.8-38.5
		c5.3-0.5,13.7-2.9,25.2-7.5l2.8-0.2c5.8-0.5,10.1,0.6,13,3.3l0.2,1.8C148.9,258.8,146.6,262.5,144,263.5L144,263.5z M105.6,293
		c2.3-0.2,4.2-1.1,5.8-2.7c0.6-0.1,1,0.2,1,0.8c-1.1,0.1-3.2,1-6.3,2.8l-0.5,0L105.6,293L105.6,293z M129.4,285.2
		c-7.9,3.9-12.5,6.5-13.9,7.9c-8.5,3-12.8,4.8-12.7,5.5c-7.6,3-12.6,5.2-15,6.6c-0.6,0.1-1.4-0.2-2.5-0.6c-0.1-1.5,0.6-2.8,2-3.8
		c1.3-0.1,2.6,0.1,3.8,0.6c1.4-0.7,3.9-1.5,7.3-2.4l-0.1-0.9l-2.8,0.2c0.3-0.5,3-1.8,8.1-3.8l1.4-0.1l0,0.4c-2.4,0.2-3.7,0.9-4,2.2
		c0.1,0.6,0.4,0.8,1,0.8c1.8-1.1,2.7-1.8,2.7-2c3.4-0.6,12.9-5.6,28.4-14.9l0.1,0.8C133.4,282.1,132.1,283.2,129.4,285.2
		L129.4,285.2z M89.5,297.5l1.4-0.1l0.1,0.5c-0.4,0-0.8,0.2-1.4,0.5l-0.9,0.1C88.6,298,88.9,297.6,89.5,297.5L89.5,297.5L89.5,297.5
		z M90.3,285l0,0.4c0.1,0.6-0.2,0.9-0.8,1l0-0.4C89.5,285.5,89.7,285.1,90.3,285L90.3,285z M93.1,279c-0.6,3-1.2,4.6-1.9,4.6l0-0.4
		C91,281.7,91.6,280.3,93.1,279L93.1,279z M108.2,236l-0.3,2.2l-0.5,0l-0.2-2.2L108.2,236L108.2,236z M109.7,231.9l0.5-0.1l0,0.4
		l-0.8,1.4l-0.9,0.1l0-0.4C109.4,233.2,109.8,232.8,109.7,231.9L109.7,231.9z M111.3,227.3l0.9-0.1c-0.1,1.5-0.5,2.2-1.2,2.3l-0.5,0
		C111.1,228.5,111.3,227.8,111.3,227.3L111.3,227.3z M113.3,224l0.2,1.8l-0.5,0l-0.2-1.8L113.3,224L113.3,224z M117.2,214.8l0.5,0
		l0.1,1.3c-0.4,0-1,0.7-1.7,1.9l-0.1-0.9C116.8,216.1,117.3,215.3,117.2,214.8L117.2,214.8z M118.7,243.5l-1.9,0.2l-0.1-0.8l1.9-0.2
		L118.7,243.5L118.7,243.5z M174.4,195.7l-0.4,0.9l-13.2-5.5C169.6,191.4,174.2,192.9,174.4,195.7L174.4,195.7z M175.7,205.7
		c-0.5,0.1-1.4-1.4-2.7-4.2l-0.1-0.8c0.9-0.1,1.8,1.3,2.7,4.2L175.7,205.7L175.7,205.7z M78.6,307.3c-1.1-0.5-2-0.7-2.9-0.6
		l-0.1-1.3c-0.1-0.5,0.2-0.9,0.9-1c0.6-0.1,0.9,0.4,1,1.2c1.6-1.9,2.4-2.9,2.6-2.9l1,0.4C80.8,305.8,79.9,307.2,78.6,307.3
		L78.6,307.3z M87.7,216.4l-0.5,0l-0.1-0.8l1.9-0.2l0,0.4C88.8,215.9,88.3,216.1,87.7,216.4L87.7,216.4z M291.8,238.4l0.2,2.7
		c-0.3,0.7-0.7,1-1,1.1l-0.4-4.6C291.4,237.8,291.8,238,291.8,238.4L291.8,238.4z M293.6,237.9c-0.1-0.7-2.3-3.6-6.8-8.5
		c-0.1-0.9,1.5-2.3,4.6-4.1l9-7.8c2-2.6,3.2-6.7,3.6-12.5l-0.1-1.3c-0.4-4-3.2-7.2-8.7-9.7c-3.2-2.2-9.1-3.4-17.5-3.6
		c-7,0.6-16,3.1-27.2,7.5c-3.1,2.2-6.6,4.4-10.5,6.6l0.1,0.7c0.2,0,0.6-0.2,1.1-0.5c0.5-0.1,0.7,0.2,0.8,0.6l0.7-0.4l0.3,0l0,0.3
		c0,0.4-2.4,2.3-7.3,5.7l0.4,0.7l-0.3,0l-0.8-0.3c0,0.2-0.3,0.4-1,0.5l0,0.3l0.8,1c-0.2,0-0.6-0.1-1.1-0.3c-1.1,0.1-2.2,0.7-3.3,1.8
		l0.5-2c1.6-7.1,2.8-13.4,3.4-18.8l-0.1-0.4c-1.1-0.7-2.2-1.8-3.3-3c0-0.8,0-1.3,0-1.4l-0.1-0.3l-0.3,0.1
		c-3.6,5.3-10.4,14.4-20.6,27.3c-7.7,9.2-11.7,14.3-12,15.3c-3.2,3.3-4.7,5.2-4.5,5.9c-0.8,0.5-1.2,1.1-1.1,1.7
		c-0.2,0.1-0.4,0-0.5-0.3c-1.3,2.2-3.3,3.6-6,4.2l-2.8,0.6c-0.4,0.1-0.6,0.4-0.5,0.8l0.1,0.4l1.1-0.2l0.1,0.3l-2.4,0.9l-4.2,1
		l-2.2,0.1c-0.3,0.3,1.8,0,0.9,0.2l-2.7,0.6c-1.7,0.4-2.6,0.2-2.8-0.4l-0.3,0.1c0.1,0.3,0.1,0.5,0,0.7l-0.2-0.7l-2.2,0.5
		c-0.2-1-3.2-4.7-8.9-11.2c-0.1-1.2,1.9-3,6.1-5.4l11.8-10.4c2.6-3.4,4.2-8.8,4.7-16.3l-0.2-1.8c-0.5-5.3-4.3-9.5-11.5-12.8
		c-4.3-2.9-11.9-4.4-23-4.7c-9.2,0.8-21.1,4-35.9,9.7c-4,2.9-8.7,5.8-13.8,8.7l0.1,0.9c0.4,0,0.8-0.2,1.4-0.5c0.6-0.1,0.9,0.2,1,0.8
		l0.9-0.5l0.5,0l0,0.4c0,0.4-3.2,2.9-9.7,7.5l0.5,0.8l-0.5,0l-1-0.4c0,0.3-0.4,0.5-1.4,0.5l0.1,0.5l1.1,1.2c-0.4,0-0.8-0.1-1.5-0.3
		c-2.1,0.2-4.2,1.7-6.2,4.6l0.5,0.8c1.8-1.6,2.8-2.4,3.1-2.5l0.1,1.3c-0.3,0-0.8,0.2-1.4,0.5l1.1,1.7c2.1-2.3,4.5-4.3,7-5.9
		c1.3,0.3,1.9,0.7,2,1.2l1-0.1c7-5.1,13.8-8.9,20.6-11.2l0.1,0.9c-1.3,1.9-2.1,2.9-2.6,2.9c0.1,0.6,0.3,1.2,0.7,1.7
		c0.1,1.2-3,9-9.3,23.4c-14.3,33.6-26.2,58.4-36,74.5c0,0.3,0.2,0.8,0.6,1.3c2.4-0.6,3.9-1.2,4.6-1.7l0.5-0.1l0.1,0.9l0.9-0.1
		l0.9-0.5c0,0.3,0.3,0.4,0.9,0.4l0.1,0.9c0.1,0.9-0.4,2.2-1.5,4.1c-1,1.1-2,3.4-3.1,7l0,0.4l0.9-0.1c3.9-4.3,6.8-8.6,8.8-12.8
		c11.3-3.3,19.9-6.6,25.9-9.8c6-0.5,10.6-2.1,13.7-4.7l-0.1-0.5l-2.3,0.7l-0.5,0.1l-0.1-0.5c4.4-0.7,7.5-1.6,9.2-3
		c8.6-6.6,15.1-11.3,19.5-14.1c9-6.6,14.9-13.1,17.6-19.4c0.5-0.1,1-0.2,1.5-0.4c1.3-0.1,2-0.1,2.2-0.1c-0.1-0.2,0.1-0.4,0.3-0.4
		c2-0.2,1.1,0.1,2.3-0.2l3.4-0.8c-0.2,0.1-0.3,0.2-0.2,0.4l0.5-0.3c-0.1,0-0.2,0-0.3-0.1l0.6-0.1l-0.3,0.2c0.4,0.1,0.8,0,1.2-0.1
		l0.2,1l-15.4,24.6l-3.4,4.3l-1.7,5.6l0.3-0.1l1.7-0.7l-0.5,2.2l0.2,0.6l0.5,0.6c-0.2,0.1-0.3,0.2-0.2,0.4l0.1,0.3l0.7-0.2
		c1-0.9,1.5-1.7,1.3-2.4c1.1,0.2,1.8,0.3,2.2,0.2l0.1,0.4c-0.7,0.2-1,0.7-1.1,1.6l0.1,0.4l0.4-0.1c5.6-6.1,19.4-27.1,30.4-41.3
		c-0.4-1.5,5.4-3.7,17.3-6.4l0.4-0.1c0.4,1.9-0.5,6.4-2.8,13.5c-1.5,4.3-2.2,6.7-2,7.1c-1.9,5.7-2.8,8.8-2.7,9.3l-4.2,13.8
		c-2.7,7.1-4.8,14.5-6.3,22.3c0.2-0.1,0.6,0,1.2,0.1l0.6-0.5c0.1,0.2,0.2,0.3,0.5,0.3l-0.2-1l1.8-0.1c0.5-0.1,1-0.8,1.4-2
		c-0.1-1.9,0.3-2.9,1.1-3.1c1.1-4.4,1.8-6.6,2.1-6.7c1.1-4.4,1.8-6.9,2.3-7.5c1.6-5.7,2.7-8.7,3.5-8.8l0.2,0.7l-1.2,3
		c-2,9-4.1,16.1-6.1,21.3l0.6,2.6l0.4-0.1c5-10.8,12.2-32.1,21.6-64.1c0.3-2.8,1.6-5,4-6.5l-0.5-0.6l-0.1-0.3
		c1.1-0.2,1.8-0.7,2.3-1.3c-0.1-0.2-1-0.6-2.8-1.1l4.7-20.1c1-0.9,1.6-1.4,1.8-1.4l0.1,1c-0.2,0-0.6,0.2-1.1,0.5l0.9,1.3
		c1.6-1.8,3.4-3.3,5.3-4.5c1,0.3,1.5,0.6,1.5,0.9l0.7-0.1c5.3-3.9,10.6-6.7,15.7-8.4l0.1,0.7c-0.9,1.4-1.6,2.2-1.9,2.2
		c0.1,0.5,0.2,0.9,0.4,1.3c0.1,0.9-2.2,6.8-7,17.8c-10.8,25.5-19.9,44.3-27.3,56.6c0,0.2,0.2,0.6,0.5,1c1.8-0.4,3-0.9,3.4-1.3l0.3,0
		l0.1,0.7l0.8-0.1l0.7-0.4c0,0.2,0.3,0.3,0.7,0.2l0.1,0.7c0.1,0.6-0.3,1.7-1.2,3.1c-0.8,0.8-1.6,2.6-2.5,5.3l0,0.4l0.7-0.1
		c2.9-3.3,5.2-6.5,6.7-9.7c8.6-2.5,15.1-5,19.7-7.4c4.6-0.4,8.1-1.6,10.5-3.6l0-0.4l-1.8,0.5l-0.4,0l0-0.4c3.3-0.5,5.7-1.2,7-2.2
		c6.5-5,11.5-8.6,14.8-10.7C289.3,252.2,294.2,244.9,293.6,237.9L293.6,237.9z M326.8,212.1l0,0.4l0.9-0.1c0-0.3,0.1-0.7,0.3-1.2
		l-0.1-0.8C327.6,210.5,327.2,211,326.8,212.1L326.8,212.1z M318.3,191.6l-0.1-0.8l-1.3,0.1l0.1,0.8L318.3,191.6L318.3,191.6z"/>
	<path class="st1" d="M430.4,258.9l-0.2,0l0.1,0.7l1.6-0.1C431.8,259,430.7,258.9,430.4,258.9L430.4,258.9z M428.4,257.3
		c0.2-0.1,0.3-0.3-0.2-0.3c-0.2,0.3,0.3,0.3-0.3,0.4l0,0.2c0.1-0.1,0.2-0.1,0.3-0.2l-0.3,0.2v0l-0.6,0.7l1.1-0.4h0.1l-0.1-0.7
		L428.4,257.3L428.4,257.3z M427.9,257.7L427.9,257.7L427.9,257.7L427.9,257.7L427.9,257.7z M401.4,260.8c0-0.4,0.1-0.6,0.5-0.7
		l0.5,0.6c0-0.2,0.1-0.3,0.2-0.3l0.4,0.6L401.4,260.8L401.4,260.8z M399.5,261l0-0.4l1.4-0.1l0,0.4L399.5,261L399.5,261z
		 M396.3,261.4l0-0.3c0.2,0,0.5-0.2,0.8-0.4c0.6-0.1,0.9,0.3,0.9,0.8L396.3,261.4L396.3,261.4z M393.8,261.6l0-0.3l1.1-0.1l0,0.3
		L393.8,261.6L393.8,261.6z M393.6,262c-1.3-0.1-1.4-0.2-2.3-0.2l0-0.3l2.1-0.2l0,0.3C393.2,261.7,393.9,261.7,393.6,262L393.6,262z
		 M385.5,262.7l-2.3,0.2l0-0.4l2.1-0.2l1.8-0.5c0,0.2,0.1,0.3,0.4,0.3c2.2-0.4,2-0.5,3-0.6c0.4,0,0.6,0.2,0.6,0.6L385.5,262.7
		L385.5,262.7z M385.3,267.5c0.2,0.1,0.1,0.2,0,0.2C385.2,267.7,385.1,267.6,385.3,267.5L385.3,267.5z M387.3,268.4
		c0-0.2-0.1-0.4-0.4-0.3l-1.8,0.2l0-0.4h0.2l4.2-0.4l0,0.4C388.3,267.9,387.6,268.1,387.3,268.4L387.3,268.4z M356.3,267.6l0-0.3
		l0.7-0.1l0.1,1C356.6,268.3,356.4,268.1,356.3,267.6L356.3,267.6z M378,204.4c0,0.4-0.2,1.3-0.8,2.8l-0.4,0l-0.1-1
		C377.3,205.1,377.7,204.5,378,204.4L378,204.4L378,204.4z M379.2,200.6c0.7-2.9,1.4-4.6,2.1-5l0,0.4c-0.4,2.7-1,4.1-1.8,4.2
		l0.1,1.7c-0.6,0.9-0.9,1.6-0.9,2.2l-0.4,0l-0.2-2.3C378.6,201.6,378.9,201.3,379.2,200.6L379.2,200.6z M382.2,193.4l0.4,0
		c-0.5,1-1,1.5-1.3,1.5l-0.1-1C381.4,193.9,381.7,193.7,382.2,193.4L382.2,193.4z M386.8,185.5c0.3,0,0.5,0,0.6,0
		c0.9-0.9,2-1.6,3.2-2.2c-1,4.3-2.5,7.4-4.6,9.5l-1.5-0.9C385.8,188.7,386.6,186.5,386.8,185.5L386.8,185.5z M359.3,192.6
		c0-0.3-0.5-0.5-1.6-0.6l-2.7,0.8l-2,0.1c-0.5-0.3-0.7-0.5-0.7-0.7l2.4,0.1l5.3-0.9l2.7,0.1l0,0.4
		C361.4,192,360.3,192.2,359.3,192.6L359.3,192.6z M355,190.5l0,0.4l-2.7,0.2l0-0.4L355,190.5L355,190.5z M357,181.9l-1.9,0.5
		l-0.4,0c-0.9,0.1-2.1,0.1-3.5-0.1C353.7,182.2,356.1,182,357,181.9L357,181.9z M347.9,194.3l-0.1-0.8l1.5-0.1
		c0.5-0.1,0.8,0.2,0.8,0.7L347.9,194.3L347.9,194.3z M346.1,186.9l-0.4,0l0.4-0.8l3.5-0.3l0,0.4
		C348.7,186.3,347.5,186.5,346.1,186.9L346.1,186.9z M345.8,192.2l0-0.4l1.5-0.1l0,0.4L345.8,192.2L345.8,192.2z M342.5,194.9l0-0.4
		l3.1-0.3l0,0.4L342.5,194.9L342.5,194.9z M340.1,187.9l-1.9-0.2l0-0.4c2.5-0.2,3.3-0.5,4.9-0.9c0,0.3,0.3,0.4,0.8,0.4l0.1,0.8
		l-0.8,0.1c-0.6,0.1-1.1,0-1.5-0.3C341.1,187.6,340.6,187.8,340.1,187.9L340.1,187.9z M344.9,186.2l0.4,0l0.1,0.8l-1.2,0.1
		C344.2,186.6,344.4,186.3,344.9,186.2L344.9,186.2z M325.7,189.9l-1.3,0.1l0-0.4c0-0.4,0.2-0.7,0.8-0.9l0.5,0l0.9,0.4
		C326.5,189.6,326.2,189.9,325.7,189.9L325.7,189.9z M308.6,268.4c0,0.4-0.6,0.9-2,1.4l-2.6-0.2l-0.8,0.1l-0.1-0.8L308.6,268.4
		L308.6,268.4z M311.2,268.6l0,0.4l-2.1,0.2l0-0.4L311.2,268.6L311.2,268.6z M294.3,255.6l0-0.4c0-0.4,0.2-0.7,0.8-0.9l0,0.3
		C295.2,255.2,294.9,255.5,294.3,255.6L294.3,255.6z M292.8,261.7l-1.3,0.1c-0.1-0.5,0.6-2.5,2-5.8l0.8-0.1
		C294.4,256.7,293.9,258.7,292.8,261.7L292.8,261.7z M425.5,259.6l0.5-0.1c0.3,0,0.4-0.3,0.4-0.7l-0.3-0.6c-1.9,0.2-2.7,0.2-4.2,1.1
		l0-0.4l-2.2,0.2c-0.1-0.7-0.2-1-0.5-1l-1.2,0.1c-1.3,0.1-2,0.1-2.7,0.6c0-0.2-0.1-0.4-0.2-0.4l-1.3,0.1L413,259
		c0-0.2-0.1-0.4-0.2-0.4l-0.5,0.4l0-0.4l-1.8-0.1l-0.4,0l0.1,0.7l0.9,0.2l0.9-0.1c0.3,0.2,0.6,0.2,1,0.2l0.8-0.4l0,0.3
		c-4.2,1.1-4.2,0.9-7.1,1.3c-0.3-0.2-0.6-0.3-0.7-0.3l-0.1,0.1c-0.3,0-0.5-0.2-0.5-0.6l1.5-0.2c0.1,0,0.2,0.1,1,0.3
		c1.2-0.6,1.3-0.8,1.9-0.9l-0.1-0.7c-4.2,0.8-2.5,0.3-7.7,0.7l-0.2,0l-0.1-0.7c6.7-0.8,4.4-0.4,6.7-1c0,0.2,0.1,0.4,0.2,0.4
		c0.3-0.3,0.6-0.4,0.9-0.5l0.5,0c2.3-0.2,3.1,0.3,7.8-1l0,0.3l0.8-0.4l0.7-0.1c-0.1-0.7,1-0.8,1.3-0.8l-0.1-0.7
		c-8.1,1.6-10.3,1.2-12.5,1.8l0-0.3c-2.1,0.4-2.2,0.2-2.7,0.2c-0.2,0-0.4,0.2-0.7,0.4c0-0.2-0.1-0.4-0.3-0.4c-0.1,0-0.1,0-0.1,0
		l-6.9,1.1c0-0.2-0.1-0.3-0.3-0.3c-3.6,0.8-2.6,0.9-7.4,1.3c-0.2,0-0.5,0.1-0.9,0.4c0-0.2-0.1-0.3-0.4-0.3l-2.9,0.2l-2,0.5
		c0-0.2-0.1-0.3-0.4-0.3c-1.1,0.3-2.1,0.5-2.9,0.5H380c-0.5,0.1,0.2-0.1-0.1-0.3l-0.6,0.4c-0.9,0.1-0.4-0.1-3.4,0
		c-5.2,0.6-4.6,0.7-5.2,0.8l-1.9-0.1c0,0.2-0.1,0.3-0.3,0.3c-2.2-0.3-3.3-0.6-3.4-1.1c0.3-2.1,0.8-3.2,1.5-3.2l0.4,0l-0.3,0.7l0.4,0
		c0.7-0.4,1-0.7,1-1.1l-0.1-0.7l-0.7,0.1l-0.1-0.7c-0.1-0.5,0-1,0.2-1.3l1.6-2.6l0.1,0.7l0.8-0.1l-0.1-0.7l-0.4-0.6
		c0.6-0.5,1-0.8,1.3-0.8l0-0.4l-1,0.1l-0.1-1c2-4.3,3-6.7,3-7.4l0.7,0.3c0.5,0,0.7-0.3,0.6-0.8l-0.7,0.1l0-0.3
		c-0.1-0.5,0.1-1,0.3-1.4c1.1-1.2,1.6-2.3,1.5-3.5c0.2,0,0.3,0.1,0.4,0.3c0.9-0.5,1.7-2,2.2-4.3c1.7-3,4-9.1,7.1-18.1
		c5.9-16,5.7-17.7,6.5-21.4l-0.7,0.1c0.1,0.5-0.1,0.9-0.3,1.4c-0.5-0.2-0.9-0.3-1.1-0.3l0-0.3c-0.1-1.4,0.5-3,1.8-5l0.3,0l0.6,2.3
		l0.7-0.1c0-0.2,0.2-1.1,0.5-2.8c0-0.4-0.3-0.6-0.8-0.6l-0.7,0.4c-0.1-0.5,0-1.8,0.1-3.8l-0.4,0c-0.6-0.6-0.9-1.1-0.9-1.5l-3.9,0.4
		c0-0.3-0.2-0.7-0.4-1.2c0-0.4,0.8-0.7,2.6-1.1l0.8,0.3l0.7-0.4c0,0.2,0.2,0.4,0.4,0.3l0.7-0.4c0,0.2,0.2,0.4,0.4,0.3l0.3,0L392,179
		c-0.5,0.1-2,0.1-4.2,0l-0.7,0.5l0-0.4c-18.1,1.5-28.4,2.3-30.8,2.6c-0.3,0-1.6,0-3.8-0.1c0,0.3-0.2,0.5-0.8,0.5l-0.8-0.4l-2.6,0.7
		c-0.6,0.1-1.7,0-3.1-0.1c-0.4,0.3-0.9,0.5-1.5,0.6c-0.3,0,3.9-0.2,7.7-0.5c-0.4,0.3-1,0.5-1.9,0.6c-0.6,0.1-1.1,0-1.5-0.3
		c-0.6,0.3-2.5,0.7-5.7,1.3l-0.8-0.3l-12.6,1.9c-0.5-0.2-1.1-0.3-1.7-0.3c-0.7,0.1-1.8,0.3-3.4,0.7l-6.1,2.5l0.5,0.8
		c0.3,0,0.7-0.2,1.2-0.5l2.2,0.2l-0.3,2c-2,0.9-3.2,2.2-3.5,3.9c-3,1.3-4.5,2.3-4.5,2.8l0,0.4l0.5,0l0.8-0.4l0.9,1.1l0.1,1.6
		c0.1,0.5-5,11.1-15.1,31.8c-8.7,19.9-13.3,30.9-13.7,32.8c-3,0.8-4.7,2-5.2,3.7c0.1,0.5,0.9,0.9,2.7,1l0.1,0.8l-0.8,1.3l0.1,1.6
		c0.1,0.8,2.3,1.4,6.6,1.9c0-0.3,0.1-0.4,0.4-0.5c0.1,1-0.2,2.9-0.8,5.7l0.5,0c1.8-2.4,2.6-4.1,2.5-5l0.4,0c0.4,0,0.9,0.5,1.4,1.5
		c-0.5,0.2-2.4,4.5-5.7,12.9l0.5,0.8l0.5,0c4-10,6.4-15.6,7.5-16.6c5.2-0.5,14.2-1.4,27-2.7l0.8-0.5c0,0.3,0.2,0.4,0.5,0.4l0.8-0.1
		l0.8-0.5c0,0.3,0.2,0.4,0.5,0.4l9.7-0.8c2.6-0.2,3.8-1,3.7-2.3c0-0.4,1.5-0.8,4.5-1.2c0.3,0,0.7,0.1,1.3,0.2c0-0.2,1.5-0.5,4.6-0.8
		c0.1-1.6,0.6-2.5,1.5-2.6l-0.1-0.8c-0.9,0.1-1.8,0.3-3,0.7c-2-0.1-3.3-0.3-3.9-0.5c-0.5,0.3-0.9,0.5-1.2,0.5l-6.7,0.2l-0.8,0.4
		c0-0.2-0.2-0.3-0.5-0.3l-0.4,0l-0.9,0.4c0-0.2-0.7-0.4-2.1-0.6l-0.9,0.5l-1.7,0.1l0-0.4c8.7-0.9,13-2.1,12.9-3.5
		c0.6-0.1,0.9,0.2,0.9,0.8l2.5-0.6l-0.1-0.8l-20.8,0.6c0,0.3-0.1,0.4-0.4,0.5l-2.5-0.2c-0.6,0.1-1.2,0.2-1.6,0.6l-0.9-0.4
		c-2.6,0.2-4.6,0.5-5.8,0.9c-1.8-0.1-3.7-0.1-5.9,0.1l-4.7,0.4l-2.2-0.2c-0.1-1.4,2.6-8.1,8.1-20.3c1.6-4.1,3-6.7,4.4-7.6
		c0.3,0,0.7,0.1,1.3,0.3l3.3-1.1l1.7,0.3c2.9-0.2,6.2-1.1,10-2.5c0.9-0.1,1.6,0,2.2,0.2l2.5-0.6l7.5-0.6c3.2-0.3,6.7-1,10.5-2.1
		l-0.1-0.8c-1.4,0.1-2.1-0.1-2.2-0.7c-0.1-1.1-1.1-1.5-3.1-1.3l-0.1-0.8l2.1-0.6l5.4-0.5l-0.1-0.8c-0.2,0-1.3,0-3.4-0.1l-0.1-0.8
		l2.1-0.2c0.6-0.1,0.8-0.3,0.8-0.9c-2.8,0.1-4.3-0.1-4.3-0.4c-19.7,1-29.6,1.2-29.7,0.5c-0.3,0-0.7,0.2-1.2,0.5l-0.5-0.8
		c5.2-11.1,8.3-16.7,9.2-16.8c0,0.4-0.2,1.1-0.6,2.1l0,0.3l0.8-0.1c2.1-5,3.8-7.5,5.3-7.6c6.2-0.5-0.9-0.9,12.4-3
		c0.5,0.2,0.9,0.4,1.2,0.3c5.2-1.1,12.5-2.2,21.8-3.3l-0.1-0.8l-5,0.5l-0.1-0.8c0.6-0.1,1.1-0.2,1.5-0.6l0,0.4
		c0.3,0,0.6-0.2,1.1-0.5c0.9-0.1,1.5,0,2,0.2c1.7-0.5,3.1-0.7,4.2-0.8l3.1-0.3c0.8-0.5,1.1-0.9,1.1-1.3l0-0.4
		c-0.8,0.1-1.7,0-2.7-0.2c0-0.4,0.2-0.7,0.7-0.9l5.8-0.5l2.6-0.7c0,0.3,0.2,0.4,0.4,0.4c0.3,0,0.6-0.2,1.1-0.5c0.1,0,0.3,0,0.4,0.1
		c-0.4,0.7-0.8,1.8-1.2,3.2l-0.8,0.1c-0.1-0.5-0.2-1-0.4-1.4l-0.4,0c-7,19.5-10.1,28.6-16.6,43.6c-1.2,3.8-2.2,6-3,6.4
		c0,0.4,0.3,0.6,0.8,0.6c0.2,1.9-0.3,3.7-1.3,5.6c-3,8.6-5,13.3-6,14.2l0.7,4.1c0,0.4-0.2,0.7-0.6,0.7l-0.7,0.1
		c-0.1-1.1-0.5-1.7-1.2-1.6l-0.4,0c-0.9,1.4-1.6,3.1-2.1,5l0.7-0.1c0.9-0.6,1.4-1.3,1.3-2.2l1.4-0.1l0.8,0.3c-0.6,1-0.9,1.8-0.9,2.5
		l0.4,0.6l-0.9,2.2l0,0.4c0.8-0.1,1.7,0.2,2.6,0.8c0.6-0.1,1.3-0.3,2.1-0.9c0.8-0.1,3.8-0.1,9-0.1l2.6-0.9c3.2,0,3.7,0.1,6.4-0.2
		l1.1-0.1l0.6-0.4l0,0.4c2.9-0.2,3.1-0.1,5.3,0.2l0,0.4l-1.6,0.1l0.1,0.7c0.5-0.1,0.9-0.2,1.3-0.5c0.4,0,0.6,0.2,0.7,0.7
		c-0.6,0.1-1.4,0.2-2.2,0.5l-0.7-0.2c-1.1,0.3-0.9,0.4-1.6,0.4L380,270c0,0.2-0.1,0.3-0.3,0.3c0,0.4,0.3,0.6,0.7,0.6l1.1-0.1
		l5.9-0.5l2.2-0.5c0,0.2,0.1,0.3,0.3,0.3l1.1-0.4l2-0.2c1.6-0.1,1.5-0.2,4.9-0.8c0-0.2,0.1-0.3,0.2-0.3l0,0.3c5.5-0.9,5.9-1,6.8-1.3
		l0.1,0.2c1.4-0.3,0.6-0.2,1-0.5c0,0.2,0.1,0.4,0.2,0.4l1-0.1l-0.1-0.7l-2,0l0-0.1c-0.1,0-0.1,0-0.2,0.1h-0.3v0.1
		c-1.3,0.3-1.3,0.1-2.2,0.2l-4.9,0.3l0-0.4l2.7-0.4l1-0.1l0.6-0.4l0,0.4c3.9-0.3,5.3,0.6,23.2-3.2c1-0.1,0.9-0.9,1.5-2.6
		c-0.3,0-0.6-0.1-0.9-0.2c-1.5,0.6-2.3,0.3-5.1,0.8c-0.2,0-0.4-0.2-0.5-0.6l0-0.3l2.8,0.1c0.5-0.1,1.5-0.1,3-1
		C425.7,259.5,425.2,259.6,425.5,259.6L425.5,259.6L425.5,259.6z M381,269.6l-0.1-0.7l-0.2,0l0.1,0.7L381,269.6L381,269.6z
		 M359.6,247.4l0-0.4l-0.4,0l-0.7,0.4l0.4,0.6C359.4,248.1,359.6,247.9,359.6,247.4L359.6,247.4z M369.5,252.8l-0.7-0.2
		c-0.6,1.6-0.9,2.5-0.9,2.8l0,0.3C368.5,255.6,369,254.6,369.5,252.8L369.5,252.8z M418.7,264.7c-8.2,1.8-9.2,1.5-10.9,1.6l0.1,0.7
		l0.8-0.1l0.4,0l-0.1-0.1l0.9-0.4c8.1-0.9,9.1-0.6,9-1.5L418.7,264.7L418.7,264.7z M420.3,264.5l0.1,0.7l1.2,0.2l-0.1-0.7
		L420.3,264.5L420.3,264.5z M374.5,270.5l0.1,0.7h0.1l-0.1-0.7H374.5L374.5,270.5z M364.6,271.4l-1.8-0.2l-0.3,0.7l0,0.4l10.9-0.9
		l-0.1-0.7L364.6,271.4L364.6,271.4z M174,244.1l0.8-0.2l-0.2-0.7l-0.8,0.2L174,244.1L174,244.1z M174.2,253.4l0.5-0.3
		c-0.1,0-0.2,0-0.3-0.1C174.2,253.1,174.1,253.2,174.2,253.4L174.2,253.4z M155.1,289.3l0.1,0.4c0.5-0.1,0.6-0.4,0.5-0.8l-0.1-0.4
		C155.2,288.6,155,288.9,155.1,289.3L155.1,289.3z M157.7,294.6l-0.7,0.2l-0.6,0.5c0.1,0.4,0.4,0.6,0.8,0.5c0.5-0.1,0.6-0.4,0.5-0.8
		L157.7,294.6L157.7,294.6z M283.2,229.1l-0.1-1l0.7-0.1l1.5,0.9c0,0.4-0.2,0.7-0.6,0.7C284.1,229.3,283.6,229.1,283.2,229.1
		L283.2,229.1z M280.1,217.9c-0.9,1.1-3.5,3.1-7.7,5.8c-1.4,0.1-6.6,2.1-15.5,6c-0.4-0.2-0.9-0.2-1.4-0.2l-0.1-0.7
		c-0.1-1.3,0.5-2.9,1.7-4.9c0.7-3.7,1.5-5.8,2.3-6.3l7.5-16.8c-0.1-1,1.5-1.8,4.7-2.4l1.1-0.1l0.1,1c3.2-0.5,5.2-0.8,6-0.9
		c5.9-0.5,9,0.7,9.3,3.6l0.7-0.1l-0.1-1.6l0.7-0.1c1.7,0.9,2.6,2.1,2.8,3.4c0.1,1-0.4,2.2-1.4,3.5c-0.5,0.1-0.7-0.3-0.8-1l-0.7,0.1
		l-0.2,2c-3,4.6-5.2,6.9-6.6,7C281.2,217,280.4,217.9,280.1,217.9L280.1,217.9z M277.2,234.3l1.1-0.1c1,0.5,1.5,0.9,1.5,1.3l0,0.3
		C278.9,235.9,278,235.4,277.2,234.3L277.2,234.3z M256.8,237.8l1.4-0.1l0,0.4l-1.4,0.1L256.8,237.8L256.8,237.8z M274.5,247.7
		l-9,7.2c-6.7,4.4-10.4,6.6-10.9,6.7c-10.7,5.9-17.3,8.9-19.9,9.1l-0.4,0c0.3-1.2,5.1-10.9,14.3-29.2c4-0.4,10.4-2.3,19.1-5.7
		l2.2-0.2c4.4-0.4,7.7,0.5,9.8,2.6l0.1,1.3C278.2,244.2,276.4,246.9,274.5,247.7L274.5,247.7z M245.3,270.1c1.8-0.2,3.2-0.8,4.5-2
		c0.5,0,0.7,0.2,0.8,0.6c-0.8,0.1-2.4,0.8-4.8,2l-0.4,0L245.3,270.1L245.3,270.1z M263.4,264.2c-5.9,2.9-9.5,4.9-10.6,6
		c-6.5,2.3-9.7,3.7-9.6,4.2c-5.7,2.3-9.5,3.9-11.3,5c-0.4,0-1.1-0.1-1.9-0.5c-0.1-1.2,0.4-2.1,1.6-2.8c1-0.1,2,0.1,2.9,0.4
		c1.1-0.5,2.9-1.1,5.6-1.8L240,274l-2.2,0.2c0.3-0.4,2.3-1.3,6.2-2.9l1.1-0.1l0,0.3c-1.8,0.2-2.9,0.7-3.1,1.7c0,0.4,0.3,0.6,0.8,0.6
		c1.3-0.9,2-1.4,2-1.6c2.6-0.5,9.8-4.2,21.5-11.3l0.1,0.7C266.4,261.8,265.4,262.7,263.4,264.2L263.4,264.2z M233.1,273.5l1.1-0.1
		l0,0.3c-0.2,0-0.6,0.2-1.1,0.4l-0.7,0.1C232.4,273.9,232.6,273.6,233.1,273.5L233.1,273.5z M233.7,264.1l0,0.3
		c0.1,0.5-0.2,0.8-0.6,0.8l0-0.3C233,264.4,233.2,264.2,233.7,264.1L233.7,264.1z M235.8,259.5c-0.5,2.3-0.9,3.4-1.5,3.5l0-0.3
		C234.2,261.5,234.7,260.5,235.8,259.5L235.8,259.5z M247.3,226.8l-0.2,1.7l-0.3,0l-0.1-1.7L247.3,226.8L247.3,226.8z M248.5,223.7
		l0.3,0l0,0.4l-0.6,1.1l-0.7,0.1l0-0.4C248.2,224.7,248.5,224.3,248.5,223.7L248.5,223.7z M249.6,220.2l0.7-0.1
		c-0.1,1.1-0.4,1.7-0.9,1.8l-0.4,0C249.4,221.2,249.6,220.6,249.6,220.2L249.6,220.2z M251.2,217.7l0.1,1.3l-0.4,0l-0.1-1.3
		L251.2,217.7L251.2,217.7z M254.1,210.7l0.4,0l0.1,1c-0.4,0-0.8,0.5-1.3,1.5l-0.1-0.7C253.8,211.7,254.1,211.1,254.1,210.7
		L254.1,210.7z M255.3,232.5l-1.4,0.1l-0.1-0.7l1.4-0.1L255.3,232.5L255.3,232.5z M297.6,196.2l-0.3,0.7l-10-4.2
		C293.9,192.9,297.4,194.1,297.6,196.2L297.6,196.2z M298.5,203.9c-0.4,0-1-1.1-2.1-3.2l-0.1-0.7c0.7-0.1,1.4,1,2.1,3.2L298.5,203.9
		L298.5,203.9z M224.8,281c-0.8-0.4-1.5-0.5-2.2-0.5l-0.1-1c0-0.4,0.2-0.6,0.6-0.7c0.5-0.1,0.7,0.3,0.8,1c1.2-1.5,1.8-2.2,1.9-2.2
		l0.7,0.3C226.4,279.8,225.8,280.9,224.8,281L224.8,281z M231.7,212l-0.3,0l-0.1-0.7l1.4-0.1l0,0.3
		C232.5,211.6,232.2,211.7,231.7,212L231.7,212z M215,226.3c-0.4,4.3-1.9,6.7-4.6,7.3l-0.1-0.4l-2.4,0.9l-1.1,0.2
		c-0.5,0.1-1,0.1-1.5,0l-0.2-0.9c-0.1-0.4,3.3-5.1,10.3-14.2l0.8,0.1C216.7,220.6,216.2,222.9,215,226.3L215,226.3z M205.6,236.4
		c-0.2,0.1-0.6,0.3-1,0.6c-0.1-0.2-0.5-0.2-1.5,0c-0.2-0.7,2.4-1.6,7.8-2.9l0.8-0.2l0.2,0.6C208.1,235.7,206,236.4,205.6,236.4
		L205.6,236.4z M205.1,243.5l-0.1-0.4c0.2-0.1,0.6-0.2,0.9-0.6l3.5-0.8l0.1,0.4C207.6,242.6,206.1,243.1,205.1,243.5L205.1,243.5z
		 M201.2,244.7l-0.8-0.1c-1.2,0.5-2.2,0.8-3.1,1l-0.7,0.2c-0.4,0.1-0.7-0.1-0.9-0.5l4.9-1.1l1.6-0.8l0.5,0.6
		C202.1,244.2,201.6,244.5,201.2,244.7L201.2,244.7z M193.9,306.6c0.1-0.5,0.1-0.8,0.1-1.1l0.4-0.1c0.5-0.1,0.7,0.1,0.8,0.5l0.1,0.3
		L193.9,306.6L193.9,306.6z M183.3,242l-0.1-0.4l1.7-0.4l0.2,0.6L183.3,242L183.3,242z M173.5,252.6c-0.4,0.1-0.7-0.1-0.9-0.5
		l1.1-0.2c0.5-0.1,0.8,0.1,0.9,0.5L173.5,252.6L173.5,252.6z M169.8,253.5c-1.7,0.2-1.3-0.1-4.1,0.6l-0.1-0.4l3.5-1.1l1.6-0.4
		l0.2,0.6C170.1,253,170.7,253,169.8,253.5L169.8,253.5z M165.8,251.8c1.2-0.2,1.7-0.3,3.9-0.8l0.1,0.4l-4.1,0.9
		C165.7,252.1,165.8,251.9,165.8,251.8L165.8,251.8z M163.1,248.7l-0.1-0.4l1.1-0.3l0.1,0.4L163.1,248.7L163.1,248.7z M162.5,245
		c0.9,0.4,1.4,0.7,1.5,1.1l-0.4,0.1l0,0c-0.1,0-0.2,0-0.3,0.1l-0.6,0.5L162.5,245L162.5,245z M156.3,237.6c-0.8-0.5-1.5-0.8-1.9-0.8
		l-0.1-1.3l0.9-0.1l2,1.2C157.1,237.2,156.9,237.5,156.3,237.6L156.3,237.6z M150.2,222.1c-1.2,1.5-4.6,4-10.2,7.6
		c-1.8,0.2-8.7,2.8-20.5,8c-0.6-0.3-1.2-0.4-1.9-0.3l-0.1-0.8c-0.1-1.7,0.6-3.8,2.3-6.4c0.9-4.9,1.9-7.6,3-8.3l9.8-22.1
		c-0.1-1.4,2-2.4,6.3-3.2l1.4-0.1l0.1,1.3c4.2-0.6,6.9-1,7.9-1.1c7.8-0.7,11.9,0.9,12.2,4.7l0.9-0.1l-0.2-2.2l1-0.1
		c2.3,1.3,3.5,2.8,3.7,4.6c0.1,1.2-0.6,2.8-2,4.6c-0.6,0.1-0.9-0.4-1-1.2l-1,0.1l-0.2,2.7c-4,5.9-6.8,9-8.6,9.1
		C151.6,220.9,150.6,222.1,150.2,222.1L150.2,222.1z M146.4,243.7l1.4-0.1c1.3,0.6,2,1.2,2,1.6l0,0.4
		C148.6,245.8,147.5,245.1,146.4,243.7L146.4,243.7z M119.5,248.3l1.9-0.2l0,0.4l-1.9,0.2L119.5,248.3L119.5,248.3z M142.8,261.4
		l-11.9,9.4c-8.8,5.8-13.6,8.7-14.3,8.8c-14.1,7.7-22.8,11.8-26.2,12l-0.5,0.1c0.4-1.6,6.7-14.4,18.8-38.5
		c5.3-0.5,13.7-2.9,25.2-7.5l2.8-0.2c5.8-0.5,10.1,0.6,13,3.3l0.2,1.8C147.7,256.7,145.3,260.3,142.8,261.4L142.8,261.4z
		 M104.4,290.8c2.3-0.2,4.2-1.1,5.8-2.7c0.6-0.1,1,0.2,1,0.8c-1.1,0.1-3.2,1-6.3,2.8l-0.5,0L104.4,290.8L104.4,290.8z M128.2,283
		c-7.9,3.9-12.5,6.5-13.9,7.9c-8.5,3-12.8,4.8-12.7,5.5c-7.6,3-12.6,5.2-15,6.6c-0.6,0.1-1.4-0.2-2.5-0.6c-0.1-1.5,0.6-2.8,2-3.8
		c1.3-0.1,2.6,0.1,3.8,0.6c1.4-0.7,3.9-1.5,7.3-2.4l-0.1-0.9l-2.8,0.2c0.4-0.5,3-1.8,8.1-3.8l1.4-0.1l0,0.4c-2.4,0.2-3.7,0.9-4,2.2
		c0.1,0.6,0.4,0.8,1,0.8c1.8-1.1,2.7-1.8,2.7-2c3.4-0.6,12.9-5.6,28.4-14.9l0.1,0.8C132.2,279.9,130.9,281.1,128.2,283L128.2,283z
		 M88.3,295.3l1.4-0.1l0.1,0.5c-0.4,0-0.8,0.2-1.4,0.5l-0.9,0.1C87.4,295.8,87.7,295.5,88.3,295.3L88.3,295.3z M89.1,282.8l0,0.4
		c0.1,0.6-0.2,0.9-0.8,1l0-0.4C88.2,283.3,88.5,283,89.1,282.8L89.1,282.8z M91.9,276.8c-0.6,3-1.2,4.6-1.9,4.6l0-0.4
		C89.8,279.5,90.4,278.1,91.9,276.8L91.9,276.8z M107,233.8l-0.3,2.2l-0.5,0l-0.2-2.2L107,233.8L107,233.8z M108.5,229.7l0.5-0.1
		l0,0.4l-0.8,1.4l-0.9,0.1l0-0.4C108.2,231.1,108.6,230.6,108.5,229.7L108.5,229.7z M110.1,225.1l0.9-0.1c-0.1,1.5-0.5,2.2-1.2,2.3
		l-0.5,0C109.8,226.4,110.1,225.6,110.1,225.1L110.1,225.1z M112.1,221.8l0.2,1.8l-0.5,0l-0.2-1.8L112.1,221.8L112.1,221.8z
		 M116,212.6l0.5,0l0.1,1.3c-0.4,0-1,0.7-1.7,1.9l-0.1-0.9C115.6,213.9,116.1,213.2,116,212.6L116,212.6z M117.5,241.3l-1.9,0.2
		l-0.1-0.8l1.9-0.2L117.5,241.3L117.5,241.3z M173.2,193.5l-0.4,0.9l-13.2-5.5C168.4,189.2,172.9,190.8,173.2,193.5L173.2,193.5z
		 M174.5,203.6c-0.5,0.1-1.4-1.4-2.7-4.2l-0.1-0.8c0.9-0.1,1.8,1.3,2.7,4.2L174.5,203.6L174.5,203.6z M77.4,305.1
		c-1.1-0.5-2-0.7-2.9-0.6l-0.1-1.3c-0.1-0.5,0.2-0.9,0.9-1c0.6-0.1,0.9,0.4,1,1.2c1.6-1.9,2.4-2.9,2.6-2.9l1,0.4
		C79.6,303.7,78.7,305,77.4,305.1L77.4,305.1z M86.5,214.3l-0.5,0l-0.1-0.8l1.9-0.2l0,0.4C87.5,213.7,87.1,213.9,86.5,214.3
		L86.5,214.3z M290.6,236.2l0.2,2.7c-0.3,0.7-0.7,1-1,1.1l-0.4-4.6C290.2,235.6,290.6,235.9,290.6,236.2L290.6,236.2z M292.4,235.7
		c-0.1-0.7-2.3-3.6-6.8-8.5c-0.1-0.9,1.5-2.3,4.6-4.1l9-7.8c2-2.6,3.2-6.7,3.6-12.5l-0.1-1.3c-0.4-4-3.2-7.2-8.7-9.7
		c-3.2-2.2-9.1-3.4-17.5-3.6c-7,0.6-16,3.1-27.2,7.5c-3.1,2.2-6.6,4.4-10.5,6.6l0.1,0.7c0.2,0,0.6-0.2,1.1-0.5
		c0.5-0.1,0.7,0.2,0.8,0.6l0.7-0.4l0.3,0l0,0.3c0,0.4-2.4,2.3-7.3,5.7l0.4,0.7l-0.3,0l-0.8-0.3c0,0.2-0.3,0.4-1,0.5l0,0.3l0.8,1
		c-0.2,0-0.6-0.1-1.1-0.3c-1.1,0.1-2.2,0.7-3.3,1.8l0.5-2c1.6-7.1,2.8-13.4,3.4-18.8l-0.1-0.4c-1.1-0.7-2.2-1.8-3.3-3
		c0-0.8,0-1.3,0-1.4l-0.1-0.3l-0.3,0.1c-3.6,5.3-10.4,14.4-20.6,27.3c-7.7,9.2-11.7,14.3-12,15.3c-3.2,3.3-4.7,5.2-4.5,5.9
		c-0.8,0.5-1.2,1.1-1.1,1.7c-0.2,0.1-0.4,0-0.5-0.3c-1.3,2.2-3.3,3.6-6,4.2l-2.8,0.6c-0.4,0.1-0.6,0.4-0.5,0.8l0.1,0.4l1.1-0.2
		l0.1,0.3l-2.4,0.9l-4.2,1l-2.2,0.1c-0.3,0.3,1.8,0,0.9,0.2l-2.8,0.6c-1.7,0.4-2.6,0.2-2.7-0.4l-0.3,0.1c0.1,0.3,0.1,0.5,0,0.7
		l-0.2-0.7l-2.2,0.5c-0.2-1-3.2-4.7-8.9-11.2c-0.1-1.2,1.9-3,6.1-5.4l11.8-10.4c2.6-3.4,4.2-8.8,4.7-16.3l-0.2-1.8
		c-0.5-5.3-4.3-9.5-11.5-12.8c-4.3-2.9-11.9-4.4-23-4.7c-9.2,0.8-21.1,4-35.9,9.7c-4,2.9-8.7,5.8-13.8,8.7l0.1,0.9
		c0.4,0,0.8-0.2,1.4-0.5c0.6-0.1,0.9,0.2,1,0.8l0.9-0.5l0.5,0l0,0.4c0,0.4-3.2,2.9-9.7,7.5l0.5,0.8l-0.5,0l-1-0.4
		c0,0.3-0.4,0.5-1.4,0.5l0.1,0.5l1.1,1.2c-0.4,0-0.8-0.1-1.5-0.3c-2.1,0.2-4.2,1.7-6.2,4.6l0.5,0.8c1.8-1.6,2.8-2.4,3.1-2.5l0.1,1.3
		c-0.3,0-0.8,0.2-1.4,0.5l1.1,1.7c2.1-2.3,4.5-4.3,7-5.9c1.3,0.3,1.9,0.7,2,1.2l1-0.1c7-5.1,13.8-8.9,20.6-11.2l0.1,0.9
		c-1.3,1.9-2.1,2.9-2.6,2.9c0.1,0.6,0.3,1.2,0.7,1.7c0.1,1.2-3,9-9.3,23.4c-14.3,33.6-26.2,58.4-36,74.5c0,0.3,0.2,0.8,0.6,1.3
		c2.4-0.6,3.9-1.2,4.6-1.7l0.5-0.1l0.1,0.9l0.9-0.1l0.9-0.5c0,0.3,0.3,0.4,0.9,0.4l0.1,0.9c0.1,0.9-0.4,2.2-1.5,4.1
		c-1,1.1-2,3.4-3.1,7l0,0.4l0.9-0.1c3.9-4.3,6.8-8.6,8.8-12.8c11.3-3.3,19.9-6.6,25.9-9.8c6-0.5,10.6-2.1,13.7-4.7l-0.1-0.5
		l-2.3,0.7l-0.5,0.1l-0.1-0.5c4.4-0.7,7.5-1.6,9.2-3c8.6-6.6,15.1-11.3,19.5-14.1c9-6.6,14.9-13.1,17.6-19.4c0.5-0.1,1-0.2,1.5-0.4
		c1.3-0.1,2-0.1,2.2-0.1c-0.1-0.2,0.1-0.4,0.3-0.4c2-0.2,1.1,0.1,2.3-0.2l3.4-0.8l0.6-0.1l-0.3,0.2c0.4,0.1,0.8,0,1.2-0.1l0.2,1
		l-15.4,24.6l-3.4,4.3l-1.7,5.6l0.3-0.1l1.7-0.7l-0.5,2.2l0.2,0.6l0.5,0.6c-0.2,0.1-0.3,0.2-0.2,0.4l0.1,0.4l0.7-0.2
		c1-0.9,1.5-1.7,1.3-2.4c1.1,0.2,1.8,0.3,2.2,0.2l0.1,0.3c-0.7,0.2-1,0.7-1.1,1.6l0.1,0.3l0.4-0.1c5.6-6.1,19.4-27.1,30.4-41.3
		c-0.4-1.5,5.4-3.7,17.3-6.4l0.4-0.1c0.4,1.9-0.5,6.4-2.8,13.5c-1.5,4.3-2.2,6.7-2,7.1c-1.9,5.7-2.8,8.8-2.7,9.3l-4.2,13.8
		c-2.7,7.1-4.8,14.5-6.3,22.3c0.2-0.1,0.6,0,1.2,0.1l0.6-0.5c0.1,0.2,0.2,0.3,0.5,0.3l-0.2-1l1.8-0.1c0.5-0.1,1-0.8,1.4-2
		c-0.1-1.9,0.3-2.9,1.1-3.1c1.1-4.4,1.8-6.6,2.1-6.7c1.1-4.4,1.8-6.9,2.3-7.5c1.6-5.7,2.8-8.7,3.5-8.8l0.2,0.7l-1.2,3
		c-2,9-4.1,16.1-6.1,21.3l0.6,2.6l0.4-0.1c5-10.8,12.2-32.1,21.6-64.1c0.3-2.8,1.6-5,4-6.5l-0.5-0.6l-0.1-0.3
		c1.1-0.2,1.8-0.7,2.3-1.3c-0.1-0.2-1-0.6-2.8-1.1l4.7-20.1c1-0.9,1.6-1.4,1.8-1.4l0.1,1c-0.2,0-0.6,0.2-1.1,0.5l0.9,1.3
		c1.6-1.8,3.4-3.3,5.3-4.5c1,0.3,1.5,0.6,1.5,0.9l0.7-0.1c5.3-3.9,10.6-6.7,15.7-8.4l0.1,0.7c-0.9,1.4-1.6,2.2-1.9,2.2
		c0.1,0.5,0.2,0.9,0.4,1.3c0.1,0.9-2.2,6.8-7,17.8c-10.8,25.5-19.9,44.3-27.3,56.6c0,0.2,0.2,0.6,0.5,1c1.8-0.4,3-0.9,3.4-1.3l0.3,0
		l0.1,0.7l0.8-0.1l0.7-0.4c0,0.2,0.3,0.3,0.7,0.2l0.1,0.7c0.1,0.6-0.3,1.7-1.2,3.1c-0.8,0.8-1.6,2.6-2.5,5.3l0,0.4l0.7-0.1
		c2.9-3.3,5.2-6.5,6.7-9.7c8.6-2.5,15.1-5,19.7-7.4c4.6-0.4,8.1-1.6,10.5-3.6l0-0.4l-1.8,0.5l-0.4,0l0-0.4c3.3-0.5,5.7-1.2,7-2.2
		c6.5-5,11.5-8.6,14.8-10.7C288.1,250,293,242.7,292.4,235.7L292.4,235.7z M317.1,189.5l-0.1-0.8l-1.3,0.1l0.1,0.8L317.1,189.5
		L317.1,189.5z M325.6,209.9l0,0.4l0.9-0.1c0-0.3,0.1-0.7,0.3-1.2l-0.1-0.8C326.4,208.3,326,208.9,325.6,209.9L325.6,209.9z"/>
</g>
</svg>
