<?xml version="1.0" encoding="utf-8"?>
<!-- Generator: Adobe Illustrator 22.0.1, SVG Export Plug-In . SVG Version: 6.00 Build 0)  -->
<svg version="1.1" id="Layer_1" xmlns="http://www.w3.org/2000/svg" xmlns:xlink="http://www.w3.org/1999/xlink" x="0px" y="0px"
	 viewBox="0 0 500 500" style="enable-background:new 0 0 500 500;" xml:space="preserve">
<style type="text/css">
	.st0{fill:#563D7C;}
	.st1{enable-background:new    ;}
	.st2{fill:#FFFFFF;}
</style>
<g id="solid" inkscape:version="0.48.1 r9760" sodipodi:docname="twitter_bootstrap_logo.svg" xmlns:cc="http://creativecommons.org/ns#" xmlns:dc="http://purl.org/dc/elements/1.1/" xmlns:inkscape="http://www.inkscape.org/namespaces/inkscape" xmlns:rdf="http://www.w3.org/1999/02/22-rdf-syntax-ns#" xmlns:sodipodi="http://sodipodi.sourceforge.net/DTD/sodipodi-0.dtd" xmlns:svg="http://www.w3.org/2000/svg">
	<path id="bg" class="st0" d="M431,369.5c0,33.3-27.2,60.5-60.5,60.5h-242C95.2,430,68,402.8,68,369.5v-242
		C68,94.2,95.2,67,128.5,67h242c33.3,0,60.5,27.2,60.5,60.5V369.5z"/>
	<g id="B" class="st1">
		<path class="st2" d="M166.6,145.9h102.9c19,0,34.2,4.3,45.7,13s17.2,21.8,17.2,39.4c0,10.7-2.6,19.8-7.8,27.4
			c-5.2,7.6-12.7,13.5-22.4,17.7v0.6c13,2.8,23,9,29.7,18.5c6.7,9.6,10.1,21.6,10.1,36.1c0,8.3-1.5,16.1-4.4,23.3
			c-3,7.2-7.6,13.5-13.9,18.7c-6.3,5.2-14.4,9.4-24.3,12.5s-21.6,4.6-35.3,4.6h-97.3L166.6,145.9L166.6,145.9z M203.7,234.6h60.5
			c8.9,0,16.3-2.5,22.2-7.6c5.9-5.1,8.9-12.3,8.9-21.8c0-10.7-2.7-18.2-8-22.5c-5.3-4.3-13-6.5-23.1-6.5h-60.5L203.7,234.6
			L203.7,234.6z M203.7,327.4h65.5c11.3,0,20-2.9,26.2-8.8c6.2-5.8,9.4-14.1,9.4-24.8c0-10.5-3.1-18.5-9.4-24.2
			c-6.3-5.7-14.9-8.4-26.2-8.4h-65.5V327.4z"/>
	</g>
</g>
</svg>
