<?xml version="1.0" encoding="utf-8"?>
<!-- Generator: Adobe Illustrator 22.0.1, SVG Export Plug-In . SVG Version: 6.00 Build 0)  -->
<svg version="1.1" id="Layer_1" xmlns="http://www.w3.org/2000/svg" xmlns:xlink="http://www.w3.org/1999/xlink" x="0px" y="0px"
	 viewBox="0 0 500 500" style="enable-background:new 0 0 500 500;" xml:space="preserve">
<style type="text/css">
	.st0{fill:#12100B;}
	.st1{fill:#FCDD2B;}
	.st2{fill:#1F6DB2;}
	.st3{fill:#5DA5DB;}
	.st4{fill:#F1F1F2;}
	.st5{fill:#D8D6D6;}
	.st6{clip-path:url(#SVGID_2_);fill:#FDC440;}
	.st7{fill:#F5C15C;}
	.st8{clip-path:url(#SVGID_4_);fill:#EF7D00;}
	.st9{clip-path:url(#SVGID_4_);fill:#FFE260;}
	.st10{clip-path:url(#SVGID_4_);fill:#FDCD2F;}
	.st11{clip-path:url(#SVGID_4_);fill:#F0AE26;}
	.st12{fill:#23201C;}
	.st13{clip-path:url(#SVGID_6_);fill:#23201C;}
	.st14{clip-path:url(#SVGID_6_);fill:#245998;}
	.st15{fill:#245998;}
</style>
<g>
	<polygon class="st2" points="145.2,401.1 122,140.7 377,140.7 353.8,401 249.4,430 145.2,401.1 	"/>
	<polygon class="st3" points="249.5,407.9 333.9,384.5 353.8,162 249.5,162 249.5,407.9 	"/>
	<polygon class="st4" points="166.6,222.1 163.5,192 335.5,192 333.5,226.9 260.8,259 330.5,259 323,358 252.7,376.9 179.8,359.2 
		175.3,309 207.5,309 209.3,335.5 251.5,343.4 290.5,331.4 292.3,289 172.5,289 170.3,257.5 249.5,222.7 166.6,222.1 	"/>
	<polygon class="st5" points="170.3,257.5 172.5,289 249.5,289 249.5,222.7 170.3,257.5 	"/>
	<polygon class="st5" points="209.3,335.5 207.5,309 175.3,309 179.8,359.2 249.5,376.1 249.5,343 209.3,335.5 	"/>
	<polygon class="st5" points="163.5,192 166.6,222.1 249.5,222.7 249.5,192 163.5,192 	"/>
	<polygon class="st0" points="273.5,82 273.5,70 225.5,70 225.5,98 258.5,98 258.5,107 224.5,107 224.5,118 272.5,118 272.5,89 
		238.5,89 238.5,82 273.5,82 	"/>
	<polygon class="st0" points="186.5,98.3 186.5,107 220.5,107 220.5,118 172.5,118 172.5,89.3 172.5,70 219.5,70 219.5,82 186.5,82 
		186.5,98.3 	"/>
	<polygon class="st0" points="326.5,82 326.5,70 278.5,70 278.5,98 311.5,98 311.5,107 277.5,107 277.5,118 325.5,118 325.5,89 
		291.5,89 291.5,82 326.5,82 	"/>
</g>
</svg>
