<?xml version="1.0" encoding="utf-8"?>
<!-- Generator: Adobe Illustrator 22.0.1, SVG Export Plug-In . SVG Version: 6.00 Build 0)  -->
<svg version="1.1" id="Layer_1" xmlns="http://www.w3.org/2000/svg" xmlns:xlink="http://www.w3.org/1999/xlink" x="0px" y="0px"
	 viewBox="0 0 500 500" style="enable-background:new 0 0 500 500;" xml:space="preserve">
<style type="text/css">
	.st0{fill:#12100B;}
	.st1{fill:#FCDD2B;}
	.st2{fill:#1F6DB2;}
	.st3{fill:#5DA5DB;}
	.st4{fill:#F1F1F2;}
	.st5{fill:#D8D6D6;}
	.st6{clip-path:url(#SVGID_2_);fill:#FDC440;}
	.st7{fill:#F5C15C;}
	.st8{clip-path:url(#SVGID_4_);fill:#EF7D00;}
	.st9{clip-path:url(#SVGID_4_);fill:#FFE260;}
	.st10{clip-path:url(#SVGID_4_);fill:#FDCD2F;}
	.st11{clip-path:url(#SVGID_4_);fill:#F0AE26;}
	.st12{fill:#DF4114;}
	.st13{fill:#EA5C1B;}
	.st14{fill:#FFFFFF;}
	.st15{fill:#23201C;}
	.st16{clip-path:url(#SVGID_6_);fill:#23201C;}
	.st17{clip-path:url(#SVGID_6_);fill:#245998;}
	.st18{fill:#245998;}
</style>
<g>
	<polygon class="st12" points="145.2,401.1 122,140.7 377,140.7 353.8,401 249.4,430 145.2,401.1 	"/>
	<polygon class="st13" points="249.5,407.9 333.9,384.5 353.8,162 249.5,162 249.5,407.9 	"/>
	<polygon class="st4" points="249.5,258.6 207.3,258.6 204.4,225.9 249.5,225.9 249.5,194 249.4,194 169.5,194 170.2,202.5 
		178.1,290.5 249.5,290.5 249.5,258.6 	"/>
	<polygon class="st4" points="249.5,341.5 249.4,341.6 213.8,331.9 211.6,306.5 194.3,306.5 179.5,306.5 184,356.6 249.4,374.8 
		249.5,374.7 249.5,341.5 	"/>
	<polygon class="st0" points="145.7,70 162,70 162,86 176.8,86 176.8,70 193,70 193,118.5 176.8,118.5 176.8,102.3 162,102.3 
		162,118.5 145.7,118.5 145.7,70 145.7,70 	"/>
	<polygon class="st0" points="214.4,86.1 200.1,86.1 200.1,70 244.9,70 244.9,86.1 230.6,86.1 230.6,118.5 214.4,118.5 214.4,86.1 
		214.4,86.1 	"/>
	<polygon class="st0" points="252,70 268.9,70 279.3,87.1 289.7,70 306.6,70 306.6,118.5 290.5,118.5 290.5,94.5 279.3,111.7 
		279,111.7 267.9,94.5 267.9,118.5 252,118.5 252,70 	"/>
	<polygon class="st0" points="314.7,70 330.9,70 330.9,102.5 353.8,102.5 353.8,118.5 314.7,118.5 314.7,70 	"/>
	<polygon class="st14" points="249.4,258.6 249.4,290.5 288.7,290.5 285,331.9 249.4,341.5 249.4,374.8 314.9,356.6 315.4,351.2 
		322.9,267.2 323.6,258.6 315,258.6 249.4,258.6 	"/>
	<polygon class="st14" points="249.4,194 249.4,213.8 249.4,225.8 249.4,225.9 326.4,225.9 326.4,225.9 326.5,225.9 327.2,218.7 
		328.6,202.5 329.4,194 249.4,194 	"/>
</g>
</svg>
