<?xml version="1.0" encoding="utf-8"?>
<!-- Generator: Adobe Illustrator 22.0.1, SVG Export Plug-In . SVG Version: 6.00 Build 0)  -->
<svg version="1.1" id="Capa_1" xmlns="http://www.w3.org/2000/svg" xmlns:xlink="http://www.w3.org/1999/xlink" x="0px" y="0px"
	 viewBox="0 0 105 100.8" style="enable-background:new 0 0 105 100.8;" xml:space="preserve">
<style type="text/css">
	.st0{fill:#FFC857;}
	.st1{fill:#FFE270;}
	.st2{fill:#44477D;}
	.st3{fill:#7376A8;}
</style>
<g>
	<ellipse transform="matrix(0.9732 -0.2298 0.2298 0.9732 -13.6282 21.2529)" class="st0" cx="84.5" cy="69.1" rx="5.8" ry="5.8"/>
	<ellipse transform="matrix(0.9732 -0.2298 0.2298 0.9732 -13.4503 20.891)" class="st0" cx="83" cy="68.2" rx="5.8" ry="5.8"/>
	<ellipse transform="matrix(0.9732 -0.2298 0.2298 0.9732 -13.9158 21.8081)" class="st1" cx="86.7" cy="70.7" rx="5.8" ry="5.8"/>
	<path class="st2" d="M98.5,83.3c-0.7,0-1.7,0.4-2.8,1.1c-2.9,2-5.4,3.4-7.7,4.3c-2.3,0.9-4.8,1.3-7.5,1.3c-6.3,0-11.1-2-14.5-6.1
		C62.7,79.8,61,74,61,66.3c0-7.6,1.7-13.4,5.1-17.5c3.4-4.1,8.2-6.1,14.5-6.1c2.9,0,5.4,0.4,7.7,1.2c2.3,0.8,4.8,2.3,7.5,4.3
		c0.9,0.7,1.9,1.1,2.8,1.1c0.8,0,1.5-0.4,2.1-1.1c0.6-0.7,0.9-1.6,0.9-2.6c0-1.4-0.5-2.6-1.6-3.4c-2.5-2.2-5.5-3.9-8.8-5.1
		c-3.4-1.2-6.9-1.8-10.7-1.8c-5.8,0-10.8,1.2-15.1,3.7c-4.2,2.4-7.5,6-9.8,10.5L34,2.9c-0.4-0.9-1-1.6-1.9-2.1
		C31.2,0.3,30.3,0,29.3,0c-1,0-1.9,0.3-2.8,0.8C25.7,1.3,25,2,24.6,2.9L0.4,55.8C0.1,56.5,0,57.1,0,57.5c0,1.1,0.4,2,1.3,2.7
		c0.9,0.7,1.9,1.1,3,1.1c0.7,0,1.5-0.2,2.1-0.6s1.2-1,1.5-1.8l5.7-12.9h31.4l5.7,12.9c0.3,0.8,0.8,1.4,1.5,1.8
		c-0.2,1.8-0.3,3.7-0.3,5.6c0,6.3,1.1,11.9,3.4,16.5c2.3,4.7,5.6,8.2,9.9,10.7c4.3,2.5,9.3,3.7,15.1,3.7c3.8,0,7.3-0.6,10.7-1.8
		c3.4-1.2,6.3-2.9,8.8-5.1c1.1-0.9,1.6-2,1.6-3.4c0-1-0.3-1.9-0.9-2.6C100,83.7,99.3,83.3,98.5,83.3z M16.9,39l12.5-28.4L42,39H16.9
		z"/>
	<path class="st2" d="M100.5,85.2c-0.7,0-1.7,0.4-2.8,1.1c-2.9,2-5.4,3.4-7.7,4.3c-2.3,0.9-4.8,1.3-7.5,1.3c-6.3,0-11.1-2-14.5-6.1
		c-3.4-4.1-5.1-9.9-5.1-17.6c0-7.6,1.7-13.4,5.1-17.5c3.4-4.1,8.2-6.1,14.5-6.1c2.9,0,5.4,0.4,7.7,1.2c2.3,0.8,4.8,2.3,7.5,4.3
		c0.9,0.7,1.9,1.1,2.8,1.1c0.8,0,1.5-0.4,2.1-1.1c0.6-0.7,0.9-1.6,0.9-2.6c0-1.4-0.5-2.6-1.6-3.4c-2.5-2.2-5.5-3.9-8.8-5.1
		c-3.4-1.2-6.9-1.8-10.7-1.8c-5.8,0-10.8,1.2-15.1,3.7c-4.2,2.4-7.5,6-9.8,10.5L36,4.8c-0.4-0.9-1-1.6-1.9-2.1
		c-0.9-0.5-1.8-0.8-2.8-0.8c-1,0-1.9,0.3-2.8,0.8c-0.9,0.5-1.5,1.2-1.9,2.1L2.3,57.7c-0.3,0.7-0.4,1.3-0.4,1.7c0,1.1,0.4,2,1.3,2.7
		c0.9,0.7,1.9,1.1,3,1.1c0.7,0,1.5-0.2,2.1-0.6s1.2-1,1.5-1.8L15.6,48H47l5.7,12.9c0.3,0.8,0.8,1.4,1.5,1.8
		c-0.2,1.8-0.3,3.7-0.3,5.6c0,6.3,1.1,11.9,3.4,16.5c2.3,4.7,5.6,8.2,9.9,10.7c4.3,2.5,9.3,3.7,15.1,3.7c3.8,0,7.3-0.6,10.7-1.8
		c3.4-1.2,6.3-2.9,8.8-5.1c1.1-0.9,1.6-2,1.6-3.4c0-1-0.3-1.9-0.9-2.6C101.9,85.6,101.3,85.2,100.5,85.2z M18.8,40.9l12.5-28.4
		l12.6,28.4H18.8z"/>
	<path class="st3" d="M102.1,86.8c-0.7,0-1.7,0.4-2.8,1.1c-2.9,2-5.4,3.4-7.7,4.3c-2.3,0.9-4.8,1.3-7.5,1.3c-6.3,0-11.1-2-14.5-6.1
		c-3.4-4.1-5.1-9.9-5.1-17.6c0-7.6,1.7-13.4,5.1-17.5c3.4-4.1,8.2-6.1,14.5-6.1c2.9,0,5.4,0.4,7.7,1.2c2.3,0.8,4.8,2.3,7.5,4.3
		c0.9,0.7,1.9,1.1,2.8,1.1c0.8,0,1.5-0.4,2.1-1.1c0.6-0.7,0.9-1.6,0.9-2.6c0-1.4-0.5-2.6-1.6-3.4c-2.5-2.2-5.5-3.9-8.8-5.1
		c-3.4-1.2-6.9-1.8-10.7-1.8C78,39,73,40.2,68.7,42.7c-4.2,2.4-7.5,6-9.8,10.5L37.6,6.5c-0.4-0.9-1-1.6-1.9-2.1
		c-0.9-0.5-1.8-0.8-2.8-0.8c-1,0-1.9,0.3-2.8,0.8c-0.9,0.5-1.5,1.2-1.9,2.1L4,59.4c-0.3,0.7-0.4,1.3-0.4,1.7c0,1.1,0.4,2,1.3,2.7
		c0.9,0.7,1.9,1.1,3,1.1c0.7,0,1.5-0.2,2.1-0.6c0.7-0.4,1.2-1,1.5-1.8l5.7-12.9h31.4l5.7,12.9c0.3,0.8,0.8,1.4,1.5,1.8
		c-0.2,1.8-0.3,3.7-0.3,5.6c0,6.3,1.1,11.9,3.4,16.5c2.3,4.7,5.6,8.2,9.9,10.7c4.3,2.5,9.3,3.7,15.1,3.7c3.8,0,7.3-0.6,10.7-1.8
		c3.4-1.2,6.3-2.9,8.8-5.1c1.1-0.9,1.6-2,1.6-3.4c0-1-0.3-1.9-0.9-2.6C103.6,87.2,102.9,86.8,102.1,86.8z M20.4,42.6L33,14.2
		l12.6,28.4H20.4z"/>
</g>
</svg>
