<?xml version="1.0" encoding="utf-8"?>
<!-- Generator: Adobe Illustrator 22.0.1, SVG Export Plug-In . SVG Version: 6.00 Build 0)  -->
<svg version="1.1" id="Layer_1" xmlns="http://www.w3.org/2000/svg" xmlns:xlink="http://www.w3.org/1999/xlink" x="0px" y="0px"
	 viewBox="0 0 500 500" style="enable-background:new 0 0 500 500;" xml:space="preserve">
<style type="text/css">
	.st0{fill:#4CC2F1;}
	.st1{fill:#172327;}
	.st2{fill:#EE7501;}
	.st3{fill:#2E2014;}
	.st4{fill:#12100B;}
	.st5{fill:#FCDD2B;}
	.st6{fill:#FFFFFF;}
	.st7{fill:#1F6DB2;}
	.st8{fill:#5DA5DB;}
	.st9{fill:#F1F1F2;}
	.st10{fill:#D8D6D6;}
	.st11{clip-path:url(#SVGID_4_);fill:#FDC440;}
	.st12{fill:#F5C15C;}
	.st13{clip-path:url(#SVGID_6_);fill:#EF7D00;}
	.st14{clip-path:url(#SVGID_6_);fill:#FFE260;}
	.st15{clip-path:url(#SVGID_6_);fill:#FDCD2F;}
	.st16{clip-path:url(#SVGID_6_);fill:#F0AE26;}
	.st17{fill:#DF4114;}
	.st18{fill:#EA5C1B;}
	.st19{fill:#E83989;}
	.st20{fill:#31191C;}
	.st21{fill:#23201C;}
	.st22{clip-path:url(#SVGID_8_);fill:#23201C;}
	.st23{clip-path:url(#SVGID_8_);fill:#245998;}
	.st24{fill:#245998;}
</style>
<g>
	<polygon class="st19" points="433,432 68,432 68,67 433,67 433,432 	"/>
	<polygon class="st20" points="416.9,415.9 84.1,415.9 84.1,83.1 416.9,83.1 416.9,415.9 	"/>
	<path class="st19" d="M203.2,316.8c0,1.5-0.4,2.3-1.9,2.3h-22.5c-1.3,0-1.7-0.8-1.7-2.3V157c0-1.5,0.6-1.8,1.7-1.8h22.7
		c1.3,0,1.7,0.3,1.7,1.8V316.8L203.2,316.8z"/>
	<path class="st19" d="M300.5,219.7c-3.2-1.5-7.6-2.2-12.5-2.2c-19.1,0-32,16.3-32,41.5c0,27.9,14,39,30.1,39c5.3,0,10.6-1,14.4-2.5
		V219.7L300.5,219.7z M229.6,260.4c0-35.8,22.7-66,58.8-66c4.9,0,8.5,0.5,12.1,1.7v-40.1c0-1.2,0.4-1.7,1.3-1.7h23.1
		c0.8,0,1.1,0.5,1.1,1.5v135.4c0,5.2,0.4,11.9,0.6,15.8c0.2,1.2,0,1.7-1.1,2.5c-13.4,7.7-28.4,12.1-42.4,12.1
		C251.9,321.7,229.6,301.7,229.6,260.4L229.6,260.4z"/>
</g>
</svg>
