<?xml version="1.0" encoding="utf-8"?>
<!-- Generator: Adobe Illustrator 22.0.1, SVG Export Plug-In . SVG Version: 6.00 Build 0)  -->
<svg version="1.1" id="Layer_1" xmlns="http://www.w3.org/2000/svg" xmlns:xlink="http://www.w3.org/1999/xlink" x="0px" y="0px"
	 viewBox="0 0 500 500" style="enable-background:new 0 0 500 500;" xml:space="preserve">
<style type="text/css">
	.st0{fill:#12100B;}
	.st1{fill:#FCDD2B;}
	.st2{fill:#23201C;}
	.st3{clip-path:url(#SVGID_2_);fill:#23201C;}
	.st4{clip-path:url(#SVGID_2_);fill:#245998;}
	.st5{fill:#245998;}
</style>
<g>
	<path class="st2" d="M416.7,214.1l15.3,0.1c0,0-28.5,38.6-30.8,41.8c-0.8,1-1.9,2.1-2.5,3.5c-1.5,3.4-3,10.9-3,10.9l-14,0.1
		c0,0,2.2-7.8,2.1-12c-0.1-3.6-1.9-7.3-3-10.9c-1.1-3.7-2.5-10.9-2.5-10.9h14.4l2,8L416.7,214.1"/>
	<path class="st2" d="M387.7,222.3c2.8,1.7,4.6,11.1,4.6,11.1s-14.8,0.2-22.9,0.2h-7l-8.5,36.8H341c0,0,8-40,9.9-47.2
		c0.6-2.3,4.2-1.9,10.3-1.9h9.7C377.2,221.2,384.6,220.4,387.7,222.3"/>
	<path class="st2" d="M339.7,230.7c1.6,5.9-1.5,19.9-1.5,19.9s-16.4-0.3-25.4,0c-2.8,0.1-6.1-0.3-7,1c-1.2,1.8,0.4,4.6,1.8,5.8
		c1.6,1.4,4.6,1.5,5.7,1.7c7.3,0.9,22.5,0.2,22.5,0.2l-2.6,11.7c0,0-21.5,1.1-32.3-1.5c-2.1-0.5-4.1-1.5-5.5-3
		c-0.4-0.4-0.7-0.9-1-1.4c-0.3-0.4-1.1-1.6-1.5-2.6c-2.5-6.6,0.3-19.1,3-25.8c0.3-0.8,0.7-1.8,1.1-2.6c0.5-1,1-2.2,1.4-2.9
		c0.3-0.4,0.6-0.7,0.9-1.1c0.3-0.5,0.7-0.9,1.1-1.4c1-1.2,2.1-2,3.5-3c4.5-3.4,12.6-6,22.4-5c3.7,0.4,9.2,1.7,11.9,5.5
		C338.9,227.2,339.3,229.2,339.7,230.7L339.7,230.7z M327.5,240.2c0,0,0.4-2.4-1.4-5.1c-1.5-2.3-2.9-2.9-6.9-3c-11.2-0.4-11,8-11,8
		L327.5,240.2L327.5,240.2z"/>
	<g>
		<defs>
			<rect id="SVGID_1_" x="67" y="208" width="365" height="82.9"/>
		</defs>
		<clipPath id="SVGID_2_">
			<use xlink:href="#SVGID_1_"  style="overflow:visible;"/>
		</clipPath>
		<path class="st3" d="M280.4,221.2l12.5-0.1c0,0-7,33.1-10.5,49.3H268c-10.1,0-19,1.2-22.9-6c-3.7-7-0.2-18.5,1.5-26.3
			c1.2-5.5,3.6-16.9,3.6-16.9l13-0.1c0,0-3.7,17.6-5.2,26.4c-0.5,3.2-1.7,6.1-0.5,8.5c1.1,2.2,2.7,2.4,7.5,2.5c1.5,0,6.5,0,6.5,0
			L280.4,221.2"/>
		<path class="st3" d="M239.1,226.6c1.4,10.4-4.1,21.9-7.8,31.9c3.9,0.3,7.2-0.1,7.5,0.2c0.3,0.4-2.6,11.9-3.6,12
			c-3.1,0.1-13.2,0.2-17.4,0.2c-13.8,0-26.7,0.9-33.3-6c-2.7-2.8-4.5-7.6-5-10.9c-0.7-5.6,0.2-11.8,1.5-16.9c1.2-4.6,2.7-8.9,5-12.9
			c5.8-10.1,15.9-17.6,32.8-15.9c3.3,0.3,8,1.8,10.9,3.5c0.2,0.1,0.9,0.7,1.1,0.8C234.7,215,238.4,221.1,239.1,226.6L239.1,226.6z
			 M221.7,245c1.3-4.7,3.2-9.7,3-13.9c-0.3-4.5-4-8.6-6.5-9.4c-7.3-2.6-14.2,1-16.9,4c-3.5,3.8-4.7,8.3-6,14.4
			c-0.9,4.6-1.7,9.4,0,12.9c3,6.3,12.3,4.9,22.4,5C219.2,254,220.5,249.5,221.7,245L221.7,245z"/>
		<path class="st3" d="M178,221.2c-0.8,3.8-1.7,8.1-2.6,11.9h-13.9c1.1-4.2,1.9-8.3,3-11.9C169,221.2,173.2,221.2,178,221.2"/>
		<path class="st3" d="M161.1,236.6h13.4c-1.8,9.7-5.2,25.4-8,36.3c-1.7,6.8-2.8,11.8-7.5,15.4c-0.4,0.3-0.7,0.2-1,0.5
			c-0.9,0.8-4.8,1.8-7,2c-3.5,0.4-7.5,0-11.9,0c1.1-4.2,2.4-9.2,3.4-12.9c10.6,1.3,10.9-8.7,12.9-18.4
			C156.8,253.9,160.4,238.8,161.1,236.6"/>
		<path class="st4" d="M129.8,261.9l-0.3,0.7c-4.9,9.5-13.6,15.4-26,15.7c-5.8,0.1-11.3-1.4-14.9-3c-7.8-3.5-14.3-10-17.9-16.9
			c-5.1-9.9-6-23.7,4.6-34.1c0.2,0-1.3,2.2-1.1,2.2l-0.3,1c-7.7,24,16,44.6,39,42.3C118.4,269.3,125.4,266.3,129.8,261.9"/>
	</g>
	<path class="st5" d="M115.8,252c5.8,0,11.8-2.7,15.4-6.5c-3.1,7.9-12.2,13.1-24.4,11.4C96.7,255.6,87,245.4,86,235.1
		c-0.7-7.5,1.9-11.9,6.2-17.3c-1.5,2.8-2,5-2.2,6.4C88.4,240.3,102.9,251.9,115.8,252"/>
	<path class="st5" d="M130.7,231.9c-0.9,2.1-6.1,6-8.4,6.4c-9.1,1.9-14.9-2.4-17.9-7.3c-0.5-0.7-1.3-2.7-1.4-3.2
		c-1.2-4-0.6-10.1,2.9-13.2c-1.1,3-1.2,6.4-0.7,8.7c0.3,1.4,1.4,3.7,2.4,5.2c1.9,2.7,3.1,3.4,5.5,4.8c1.1,0.7,2.2,1.2,2.7,1.3
		C118.1,235.4,122.9,237.2,130.7,231.9"/>
</g>
</svg>
