<?xml version="1.0" encoding="utf-8"?>
<!-- Generator: Adobe Illustrator 22.0.1, SVG Export Plug-In . SVG Version: 6.00 Build 0)  -->
<svg version="1.1" id="Layer_1" xmlns="http://www.w3.org/2000/svg" xmlns:xlink="http://www.w3.org/1999/xlink" x="0px" y="0px"
	 viewBox="0 0 500 500" style="enable-background:new 0 0 500 500;" xml:space="preserve">
<style type="text/css">
	.st0{fill:#4CC2F1;}
	.st1{fill:#172327;}
	.st2{fill:#EE7501;}
	.st3{fill:#2E2014;}
	.st4{fill:#12100B;}
	.st5{fill:#FCDD2B;}
	.st6{fill:#FFFFFF;}
	.st7{fill:#1F6DB2;}
	.st8{fill:#5DA5DB;}
	.st9{fill:#F1F1F2;}
	.st10{fill:#D8D6D6;}
	.st11{clip-path:url(#SVGID_4_);fill:#FDC440;}
	.st12{fill:#F5C15C;}
	.st13{clip-path:url(#SVGID_6_);fill:#EF7D00;}
	.st14{clip-path:url(#SVGID_6_);fill:#FFE260;}
	.st15{clip-path:url(#SVGID_6_);fill:#FDCD2F;}
	.st16{clip-path:url(#SVGID_6_);fill:#F0AE26;}
	.st17{fill:#DF4114;}
	.st18{fill:#EA5C1B;}
	.st19{fill:#E83989;}
	.st20{fill:#31191C;}
	.st21{fill:#23201C;}
	.st22{clip-path:url(#SVGID_8_);fill:#23201C;}
	.st23{clip-path:url(#SVGID_8_);fill:#245998;}
	.st24{fill:#245998;}
	.st25{fill:#FADF00;}
</style>
<g>
	<polygon class="st25" points="68,67 433,67 433,432 68,432 68,67 	"/>
	<path class="st4" d="M164,372l27.9-16.9c5.4,9.6,10.3,17.6,22,17.6c11.3,0,18.4-4.4,18.4-21.6V234.6h34.3v117.1
		c0,35.5-20.8,51.7-51.2,51.7C188,403.4,172.1,389.2,164,372"/>
	<path class="st4" d="M285.3,368.3l27.9-16.2c7.4,12,16.9,20.8,33.8,20.8c14.2,0,23.3-7.1,23.3-16.9c0-11.8-9.3-15.9-25-22.8
		l-8.6-3.7c-24.7-10.5-41.2-23.8-41.2-51.7c0-25.7,19.6-45.3,50.2-45.3c21.8,0,37.5,7.6,48.8,27.4l-26.7,17.2
		c-5.9-10.5-12.2-14.7-22-14.7c-10,0-16.4,6.4-16.4,14.7c0,10.3,6.4,14.5,21.1,20.8l8.6,3.7c29.2,12.5,45.6,25.2,45.6,53.9
		c0,30.9-24.3,47.8-56.8,47.8C315.9,403.4,295.3,388.2,285.3,368.3"/>
</g>
</svg>
