<svg id="Layer_1" data-name="Layer 1" xmlns="http://www.w3.org/2000/svg" viewBox="0 0 500 500"><defs><style>.cls-1{fill:#4cc2f1;}.cls-2{fill:#172327;}</style></defs><title>Mesa de trabajo 2</title><polygon class="cls-1" points="431 431 69 431 69 69 431 69 431 431 431 431"/><polygon class="cls-2" points="415.07 415.07 84.93 415.07 84.93 84.93 415.07 84.93 415.07 415.07 415.07 415.07"/><path class="cls-1" d="M182.67,238c1.71.25,4.93.5,13.92.5,16.93,0,33.21-4.83,33.21-29.73,0-19.93-10.93-30.16-31.06-30.16-8.36,0-14.36.25-16.07.5V238ZM157,156.45c0-1.25.21-1.75,1.28-1.75,8.14-.25,24.21-.5,40.49-.5,42,0,58,24.44,58.21,53.33,0,39.59-29.51,54.61-61,54.61H182.67v56.57c0,1.5-.43,2-1.5,2H158.46c-1.07,0-1.49-.49-1.49-1.74V156.45Z"/><path class="cls-1" d="M310.41,219.36c-10.31,0-13,6.46-13,11.19,0,6,2.73,9.21,18.52,16.68,21.68,10.46,30.94,19.68,30.94,37.61,0,24.91-16.21,39.08-39.36,39.08-11.16,0-25.23-1.07-34.07-7.54a2.58,2.58,0,0,1-1.27-2.49V291c0-1.25.85-1.75,1.48-1.25,10.94,8.22,23.15,10.55,34.09,10.55,9.69,0,13.05-6.45,13.05-11.93,0-6.47-2.34-10.21-17.49-17.43-21.68-10.46-30.71-19.45-30.71-37.63,0-20.18,15.13-36.84,40-36.84,12.84,0,21.89.34,27.78,4.33a3.68,3.68,0,0,1,1.27,3.23v20.43c0,1.49-.85,2.24-1.9,1.49-7.58-5-18.31-6.57-29.26-6.57Z"/></svg>