<?xml version="1.0" encoding="utf-8"?>
<!-- Generator: Adobe Illustrator 22.0.1, SVG Export Plug-In . SVG Version: 6.00 Build 0)  -->
<svg version="1.1" xmlns="http://www.w3.org/2000/svg" xmlns:xlink="http://www.w3.org/1999/xlink" x="0px" y="0px"
	 viewBox="0 0 500.3 364.3" style="enable-background:new 0 0 500.3 364.3;" xml:space="preserve">
<style type="text/css">
	.st0{fill:none;}
	.st1{fill:none;stroke:#231F20;stroke-width:0.3;}
	.st2{fill:#6F559B;}
	.st3{fill:#5B3A89;}
	.st4{opacity:0.4;}
	.st5{fill:#1B1C63;}
	.st6{fill:#2C2D6F;}
	.st7{fill:#EFF6FC;}
	.st8{opacity:0.4;fill:#1B1C63;}
	.st9{fill:#DCE7F5;}
	.st10{fill:#CDD5EA;}
	.st11{fill:#85C8FF;}
	.st12{fill:#6496BF;}
	.st13{fill:#FC6591;}
	.st14{fill:#C45A8D;}
	.st15{opacity:0.3;fill:#1B1C63;}
	.st16{fill:#C29CB7;}
	.st17{fill:#EACEDF;}
	.st18{fill:url(#Unnamed_Pattern);}
	.st19{opacity:0.6;fill:#FFFFFF;}
	.st20{fill:#A7A9AC;}
	.st21{fill:#A0AFD5;}
	.st22{opacity:0.4;fill:#A0AFD5;}
	.st23{fill:#6B78BD;}
	.st24{opacity:0.1;clip-path:url(#XMLID_5_);}
	.st25{opacity:0.5;fill:#A0AFD5;}
	.st26{opacity:0.8;}
	.st27{fill:#FFFFFF;}
	.st28{font-family:'RobotoCondensed-Regular';}
	.st29{font-size:31.9469px;}
	.st30{fill:none;stroke:#FFFFFF;stroke-width:0.4977;stroke-miterlimit:10;}
	.st31{opacity:0.2;fill:#EFF6FC;}
	.st32{opacity:0.6;fill:#A0AFD5;}
	.st33{fill:#34247F;}
	.st34{fill:#FFB8A1;}
	.st35{fill:#5D5648;}
	.st36{fill:none;stroke:#5D5648;stroke-width:0.2062;stroke-miterlimit:10;}
	.st37{fill:#E7E4DA;}
	.st38{fill:#9A6696;}
	.st39{fill:none;stroke:#9A6696;stroke-width:0.3125;stroke-miterlimit:10;}
	.st40{fill:none;stroke:#6F559B;stroke-miterlimit:10;}
	.st41{fill:#E4E0DD;}
	.st42{fill:#361A53;}
	.st43{clip-path:url(#SVGID_2_);}
	.st44{fill:#484F96;}
	.st45{fill:#A76460;}
	.st46{fill:#645443;}
	.st47{fill:#E4AA63;}
</style>
<pattern  x="-2054.9" y="-212.5" width="72" height="72" patternUnits="userSpaceOnUse" id="Unnamed_Pattern" viewBox="5.4 -76.8 72 72" style="overflow:visible;">
	<g>
		<rect x="5.4" y="-76.8" class="st0" width="72" height="72"/>
		<g>
			<polyline class="st1" points="54.1,-48.9 47.4,-51.7 49.4,-44.6 			"/>
			<polyline class="st1" points="38.2,-58.2 45.3,-61.8 38.6,-63.8 			"/>
			<polyline class="st1" points="55.5,-50.5 61.7,-54.1 55.4,-57.9 			"/>
			<polyline class="st1" points="35.4,-48.3 35.1,-56 29.8,-51.5 			"/>
			<polyline class="st1" points="65.6,-32.5 72.1,-29.3 70.5,-36.5 			"/>
			<polyline class="st1" points="63.6,-17 63.6,-24.2 57.8,-19.6 			"/>
			<polyline class="st1" points="58.3,-32 58.2,-24.8 64.1,-29.3 			"/>
			<polyline class="st1" points="51.9,-39.1 59.1,-39.5 54.2,-45 			"/>
			<polyline class="st1" points="48.8,-33.1 54.6,-28.8 54.4,-36.2 			"/>
			<polyline class="st1" points="37.6,-24.9 34.2,-29.4 32.1,-24.2 			"/>
			<polyline class="st1" points="38.7,-35.5 45.4,-32.7 42.6,-39.5 			"/>
			<polyline class="st1" points="21.7,-23.2 19.1,-30.4 14.8,-24.3 			"/>
			<polyline class="st1" points="39.9,-49.1 39.4,-42.9 45.7,-46.5 			"/>
			<polyline class="st1" points="13.8,-57.3 20.1,-53.8 18.9,-61.1 			"/>
			<polyline class="st1" points="31.8,-36.2 26.2,-40.8 26.1,-33.3 			"/>
			<polyline class="st1" points="29.9,-56 24.1,-62.1 23.4,-53.9 			"/>
			<polyline class="st1" points="30.6,-21.5 33,-14.8 37.7,-22.6 			"/>
			<polyline class="st1" points="48.3,-62.7 48.6,-54.5 53.7,-59.9 			"/>
			<polyline class="st1" points="23.4,-39.1 16.9,-40.5 19.9,-33.7 			"/>
			<polyline class="st1" points="68.6,-27.1 66.4,-20.3 73.3,-22.8 			"/>
			<polyline class="st1" points="63.6,-40.1 60.3,-33.9 66.9,-34.6 			"/>
			<polyline class="st1" points="59,-67.8 66.2,-67.7 61.7,-73.6 			"/>
			<polyline class="st1" points="70.2,-72.8 70.2,-65.5 76,-70.1 			"/>
			<polyline class="st1" points="32,-39.6 36,-45.6 28.6,-44.9 			"/>
			<polyline class="st1" points="45.4,-56.3 38.1,-56.4 42.6,-50.5 			"/>
			<polyline class="st1" points="36.1,-7.3 39.2,-15.1 31.6,-11.9 			"/>
			<polyline class="st1" points="71.8,-61.7 65.4,-65 66.9,-57.7 			"/>
			<polyline class="st1" points="40.4,-26.8 46.8,-24.1 44.1,-31 			"/>
			<polyline class="st1" points="48.1,-26.4 55.1,-24.5 49.1,-20.1 			"/>
			<polyline class="st1" points="27,-53.6 23.4,-47.3 30.5,-47.5 			"/>
			<polyline class="st1" points="63.4,-14.4 57,-11 63.7,-8 			"/>
			<polyline class="st1" points="53.4,-19.9 52.7,-12.7 59,-16.7 			"/>
			<polyline class="st1" points="47.5,-71.9 45.7,-64.2 52.5,-67.6 			"/>
			<polyline class="st1" points="65.6,-14.9 72.3,-12.1 70.3,-19.2 			"/>
			<polyline class="st1" points="17.1,-51.8 10.3,-54.5 13.4,-47.5 			"/>
			<polyline class="st1" points="26.6,-15 27.3,-24.1 20.8,-19.6 			"/>
			<polyline class="st1" points="18.1,-19.9 11.7,-23.3 13.1,-16 			"/>
			<polyline class="st1" points="29.1,-73.6 27.4,-67.4 34.5,-69.5 			"/>
			<polyline class="st1" points="11.4,-66.5 11.3,-59.2 17.1,-63.7 			"/>
			<polyline class="st1" points="17,-17.2 19.9,-10.5 23.4,-17 			"/>
			<polyline class="st1" points="23.3,-33.5 24.2,-26.3 30.1,-31.3 			"/>
			<polyline class="st1" points="44.4,-10.6 50.9,-7.3 49.6,-15.5 			"/>
			<polyline class="st1" points="73.1,-43.5 66.7,-47.1 67.4,-40.2 			"/>
			<polyline class="st1" points="64.7,-55.2 68.9,-49.3 71,-56.4 			"/>
			<polyline class="st1" points="57.9,-48 60.6,-43 63.7,-49.7 			"/>
			<polyline class="st1" points="13,-75 7,-70.9 14.1,-68.8 			"/>
			<polyline class="st1" points="54,-64.5 57.8,-70.7 52.4,-70.8 			"/>
			<polyline class="st1" points="12.3,-13.6 9.3,-7 16.5,-8.8 			"/>
			<polyline class="st1" points="31.1,-7.1 24.9,-10.9 25.9,-3.5 			"/>
			<polyline class="st1" points="46,-20.5 40.1,-19.5 45.3,-14.1 			"/>
			<polyline class="st1" points="52.3,-41.5 45.1,-42 49.3,-35.9 			"/>
			<polyline class="st1" points="49.3,-3 43.5,-7.4 43.6,0 			"/>
			<polyline class="st1" points="60.6,-65.9 56.6,-59.9 64,-60.6 			"/>
			<polyline class="st1" points="17.4,-70.6 21,-64.3 23.7,-71.2 			"/>
			<polyline class="st1" points="11,-27.6 16.9,-31.7 9.8,-33.9 			"/>
			<polyline class="st1" points="19.9,-41.4 21.5,-49.9 14.2,-44.4 			"/>
			<polyline class="st1" points="12.7,-41.2 7.6,-37.1 15,-36.3 			"/>
			<polyline class="st1" points="63,-5.9 68.6,-1.4 69.2,-10.3 			"/>
			<polyline class="st1" points="33.1,-7.1 36.4,-0.6 39.5,-7.3 			"/>
			<polyline class="st1" points="58.8,-0.2 57.8,-7.4 52.7,-2.1 			"/>
			<polyline class="st1" points="21.1,-1 20.5,-8.2 15.1,-3.2 			"/>
			<polyline class="st1" points="43.8,-67.5 39.3,-73.2 37.4,-66 			"/>
			<polyline class="st1" points="78.3,-43.1 77,-35.9 72.1,-41.5 			"/>
			<polyline class="st1" points="72.6,-52 79,-55.5 72.1,-58.4 			"/>
			<polyline class="st1" points="80.1,-51.5 75.2,-46.2 82.5,-45.6 			"/>
			<polyline class="st1" points="79.9,-3.3 74.8,-8.4 73.9,-1.1 			"/>
			<polyline class="st1" points="77.4,-59 80.7,-65.5 73.4,-64 			"/>
			<polyline class="st1" points="77.9,-11.6 82.1,-17.5 74.7,-17.1 			"/>
			<polyline class="st1" points="81.2,-26.1 75.6,-21.5 82.9,-19.9 			"/>
			<polyline class="st1" points="77.7,-26.4 75.2,-33.2 82.2,-30.9 			"/>
			<polyline class="st1" points="36.2,-60.2 32.8,-66.6 29.8,-59.8 			"/>
			<polyline class="st1" points="35.9,-38.2 32.4,-32.9 37.5,-32.3 			"/>
		</g>
		<g>
			<polyline class="st1" points="6.3,-43.1 5,-35.9 0.1,-41.5 			"/>
			<polyline class="st1" points="0.6,-52 7,-55.5 0.1,-58.4 			"/>
			<polyline class="st1" points="8.1,-51.5 3.2,-46.2 10.5,-45.6 			"/>
			<polyline class="st1" points="7.9,-3.3 2.8,-8.4 1.9,-1.1 			"/>
			<polyline class="st1" points="5.4,-59 8.7,-65.5 1.4,-64 			"/>
			<polyline class="st1" points="5.9,-11.6 10.1,-17.5 2.7,-17.1 			"/>
			<polyline class="st1" points="9.2,-26.1 3.6,-21.5 10.9,-19.9 			"/>
			<polyline class="st1" points="5.7,-26.4 3.2,-33.2 10.2,-30.9 			"/>
		</g>
		<g>
			<polyline class="st1" points="31.1,-79.1 24.9,-82.9 25.9,-75.5 			"/>
			<polyline class="st1" points="49.3,-75 43.5,-79.4 43.6,-72 			"/>
			<polyline class="st1" points="63,-77.9 68.6,-73.4 69.2,-82.3 			"/>
			<polyline class="st1" points="33.1,-79.1 36.4,-72.6 39.5,-79.3 			"/>
			<polyline class="st1" points="58.8,-72.2 57.8,-79.4 52.7,-74.1 			"/>
			<polyline class="st1" points="21.1,-73 20.5,-80.2 15.1,-75.2 			"/>
			<polyline class="st1" points="79.9,-75.3 74.8,-80.4 73.9,-73.1 			"/>
		</g>
		<g>
			<polyline class="st1" points="7.9,-75.3 2.8,-80.4 1.9,-73.1 			"/>
		</g>
	</g>
</pattern>
<g id="BACKGROUND">
</g>
<g id="OBJECTS">
	<g>
		<polygon class="st2" points="310.1,78.9 312.4,94 390.9,46.7 390.9,32.9 		"/>
		<g>
			<g>
				<polygon class="st3" points="500.3,95.8 499.7,108.9 390.9,46.7 391,32.9 				"/>
			</g>
			<g class="st4">
				<polygon class="st5" points="499.7,110 419.5,156.6 310.1,94.1 390.9,47.9 				"/>
			</g>
			<g>
				<polygon class="st6" points="499.7,108.9 419.5,155.5 310.1,93 390.9,46.7 				"/>
			</g>
			<g>
				<polygon class="st3" points="419.5,141.7 419.5,155.5 310.1,93 310.1,79.2 				"/>
			</g>
			<g>
				<g class="st4">
					<polygon class="st5" points="334,88.3 387.7,57.5 473.9,106.7 420.5,137.7 					"/>
				</g>
				<g>
					<polygon class="st7" points="334,87.2 387.7,56.4 473.9,105.5 420.5,136.6 					"/>
				</g>
			</g>
			<g>
				<g class="st4">
					<polygon class="st5" points="337.3,88.3 391.1,57.5 477.2,106.7 423.8,137.7 					"/>
				</g>
				<g>
					<polygon class="st7" points="337.3,87.2 391.1,56.4 477.2,105.5 423.8,136.6 					"/>
				</g>
			</g>
			<g>
				<g class="st4">
					<polygon class="st5" points="337.3,84.9 391.1,54.1 477.2,103.3 423.8,134.3 					"/>
				</g>
				<g>
					<polygon class="st7" points="337.3,83.8 391.1,53 477.2,102.2 423.8,133.2 					"/>
				</g>
			</g>
			<g>
				<g class="st4">
					<polygon class="st5" points="347.8,87.7 401.6,56.9 487.7,106.1 434.3,137.1 					"/>
				</g>
				<g>
					<polygon class="st7" points="347.8,86.6 401.6,55.8 487.7,105 434.3,136 					"/>
				</g>
			</g>
		</g>
		<g>
			<path class="st8" d="M112.7,181.8l-41.6,23.9c-5.6,3.2-15.3,2.8-21.7-0.9l-21.5-12.4c-6.4-3.7-7.1-9.3-1.6-12.5L67.9,156
				c5.6-3.2,15.3-2.8,21.7,0.9l21.5,12.4C117.6,173,118.3,178.6,112.7,181.8z"/>
			<g>
				<path class="st6" d="M33,162.5h-3.7v-43c0-1,0.8-1.9,1.9-1.9l0,0c1,0,1.9,0.8,1.9,1.9V162.5z"/>
				<g>
					<path class="st9" d="M112.7,165.3l-41.6,23.9c-5.6,3.2-15.3,2.8-21.7-0.9l-21.5-12.4c-6.4-3.7-7.1-9.3-1.6-12.5l41.6-23.9
						c5.6-3.2,15.3-2.8,21.7,0.9l21.5,12.4C117.6,156.5,118.3,162.1,112.7,165.3z"/>
					<path class="st10" d="M116.5,159.6c0.1,2.1-1.1,4.2-3.7,5.7l-41.6,23.9c-5.6,3.2-15.3,2.8-21.7-0.9l-21.5-12.4
						c-3.5-2-5.3-4.6-5.3-7.1h0v10h0c0.2,2.4,1.9,4.8,5.3,6.7l21.5,12.4c6.4,3.7,16.2,4.1,21.7,0.9l41.6-23.9
						c2.5-1.4,3.7-3.3,3.8-5.3h0L116.5,159.6L116.5,159.6z"/>
					<path class="st6" d="M116.5,169.2c0.1,2.1-1.1,4.2-3.7,5.7l-41.6,23.9c-5.6,3.2-15.3,2.8-21.7-0.9l-21.5-12.4
						c-3.5-2-5.3-4.6-5.3-7.1h0v5.2h0c0.2,2.4,1.9,4.8,5.3,6.7l21.5,12.4c6.4,3.7,16.2,4.1,21.7,0.9l41.6-23.9
						c2.5-1.4,3.7-3.3,3.8-5.3h0L116.5,169.2L116.5,169.2z"/>
					<g>
						<g>
							<polygon class="st11" points="79.1,184.7 77.3,185.7 75.5,184.7 77.3,183.7 							"/>
							<polygon class="st12" points="79.1,186.8 77.3,187.8 77.3,185.7 79.1,184.7 							"/>
						</g>
						<g>
							<polygon class="st13" points="76.8,186.1 75,187.1 73.1,186.1 75,185 							"/>
							<polygon class="st14" points="76.8,188.2 75,189.2 75,187.1 76.8,186.1 							"/>
						</g>
						<g>
							<polygon class="st11" points="74.4,187.4 72.6,188.5 70.8,187.4 72.6,186.4 							"/>
							<polygon class="st12" points="74.4,189.5 72.6,190.6 72.6,188.5 74.4,187.4 							"/>
						</g>
					</g>
				</g>
			</g>
		</g>
		<g>
			<path class="st15" d="M438.1,188.8L212.2,319.3c-4.1,2.4-11.2,2.1-15.9-0.7l-140.2-81c-4.7-2.7-5.2-6.8-1.1-9.2L280.8,98.1
				c4.1-2.4,11.2-2.1,15.9,0.7l140.2,81C441.6,182.4,442.1,186.5,438.1,188.8z"/>
			<path class="st16" d="M439.2,186.6L213.3,317c-4.1,2.4-11.2,2.1-15.9-0.7l-140.2-81c-4.7-2.7-5.2-6.8-1.1-9.2L281.9,95.8
				c4.1-2.4,11.2-2.1,15.9,0.7l140.2,81C442.8,180.1,443.3,184.3,439.2,186.6z"/>
			<path class="st17" d="M439.2,184.4L213.3,314.8c-4.1,2.4-11.2,2.1-15.9-0.7l-140.2-81c-4.7-2.7-5.2-6.8-1.1-9.2L281.9,93.6
				c4.1-2.4,11.2-2.1,15.9,0.7l140.2,81C442.8,177.9,443.3,182,439.2,184.4z"/>
			<path class="st18" d="M439.2,184.4L213.3,314.8c-4.1,2.4-11.2,2.1-15.9-0.7l-140.2-81c-4.7-2.7-5.2-6.8-1.1-9.2L281.9,93.6
				c4.1-2.4,11.2-2.1,15.9,0.7l140.2,81C442.8,177.9,443.3,182,439.2,184.4z"/>
			<path class="st18" d="M439.2,184.4L213.3,314.8c-4.1,2.4-11.2,2.1-15.9-0.7l-140.2-81c-4.7-2.7-5.2-6.8-1.1-9.2L281.9,93.6
				c4.1-2.4,11.2-2.1,15.9,0.7l140.2,81C442.8,177.9,443.3,182,439.2,184.4z"/>
			<path class="st19" d="M439.6,176.8c2,2.4,1.5,5.2-1.6,7L212.2,314.2c-4.1,2.4-11.2,2.1-15.9-0.7l-140.2-81
				c-0.6-0.3-1.1-0.7-1.6-1.1c0.6,0.8,1.5,1.5,2.7,2.2l140.2,81c4.7,2.7,11.8,3,15.9,0.7l225.9-130.4
				C442.8,182.9,442.8,179.5,439.6,176.8z"/>
		</g>
		<g>
			<path class="st8" d="M359.5,198.5l-40-23.1l-58.1-33.5c-4-2.3-10-2.5-13.4-0.6L98.1,227.8c-3.4,2-3,5.5,1,7.7l58.1,33.5l40,23.1
				c4,2.3,10,2.5,13.4,0.6l149.8-86.5C363.9,204.3,363.4,200.8,359.5,198.5z"/>
			<g>
				<g>
					<g>
						<g>
							<g>
								<path class="st9" d="M94.1,214.2V100.9c0-6.4,2.1-9.5,6.2-11.9L250.2,2.5c1.5-0.9,2.9-1.2,4-0.8l0,0c0,0-2.5-1.5-2.8-1.5
									l0,0l0,0c-1.1-0.4-2.5-0.1-4,0.8L97.7,87.5c-4.1,2.4-6.2,5.5-6.2,11.9v113.3c0,3,0.8,4.8,2.2,5.4l2.3,1.3
									C94.8,218.5,94.1,216.8,94.1,214.2z"/>
							</g>
							<g>
								<g>
									<path class="st10" d="M199.4,289.6c4,2.3,10,2.5,13.4,0.6l149.8-86.5c1.5-0.9,2.3-2.1,2.3-3.3h0v-6.1h0
										c-0.1,1.2-0.8,2.3-2.3,3.1l-149.8,86.5c-3.4,2-9.4,1.7-13.4-0.6V289.6z"/>
									<path class="st21" d="M199.4,283.3l-98.1-56.6c-2-1.2-3.1-2.6-3.3-4h0v5.7c0,0.2,0,0.4,0,0.6v0h0c0.2,1.4,1.3,2.9,3.3,4
										l98.1,56.6V283.3z"/>
								</g>
								<g>
									<path class="st9" d="M321.7,166.5l40,23.1c4,2.3,4.4,5.8,1,7.7l-149.8,86.5c-3.4,2-9.4,1.7-13.4-0.6l-40-23.1L321.7,166.5z
										"/>
									<path class="st9" d="M159.4,260.1l-58.1-33.5c-4-2.3-4.4-5.8-1-7.7l149.8-86.5c3.4-2,9.4-1.7,13.4,0.6l58.1,33.5
										L159.4,260.1z"/>
									<g>
										<g>
											<path class="st6" d="M134.6,226.6l-7.5,4.3c-0.5,0.3-1.3,0.2-1.8-0.1l-7.2-4.1c-0.5-0.3-0.6-0.8-0.1-1l7.5-4.3
												c0.5-0.3,1.3-0.2,1.8,0.1l7.2,4.1C135,225.9,135,226.3,134.6,226.6z"/>
											<path class="st6" d="M144.7,220.7l-7.5,4.3c-0.5,0.3-1.3,0.2-1.8-0.1l-7.2-4.1c-0.5-0.3-0.6-0.8-0.1-1l7.5-4.3
												c0.5-0.3,1.3-0.2,1.8,0.1l7.2,4.1C145.1,220,145.2,220.5,144.7,220.7z"/>
											<path class="st6" d="M154.8,214.9l-7.5,4.3c-0.5,0.3-1.3,0.2-1.8-0.1l-7.2-4.1c-0.5-0.3-0.6-0.8-0.1-1l7.5-4.3
												c0.5-0.3,1.3-0.2,1.8,0.1l7.2,4.1C155.2,214.2,155.3,214.6,154.8,214.9z"/>
											<path class="st6" d="M165,209l-7.5,4.3c-0.5,0.3-1.3,0.2-1.8-0.1l-7.2-4.1c-0.5-0.3-0.6-0.8-0.1-1l7.5-4.3
												c0.5-0.3,1.3-0.2,1.8,0.1l7.2,4.1C165.4,208.3,165.4,208.8,165,209z"/>
											<path class="st6" d="M175.1,203.2l-7.5,4.3c-0.5,0.3-1.3,0.2-1.8-0.1l-7.2-4.1c-0.5-0.3-0.6-0.8-0.1-1l7.5-4.3
												c0.5-0.3,1.3-0.2,1.8,0.1l7.2,4.1C175.5,202.4,175.6,202.9,175.1,203.2z"/>
											<path class="st6" d="M185.3,197.3l-7.5,4.3c-0.5,0.3-1.3,0.2-1.8-0.1l-7.2-4.1c-0.5-0.3-0.6-0.8-0.1-1l7.5-4.3
												c0.5-0.3,1.3-0.2,1.8,0.1l7.2,4.1C185.7,196.6,185.7,197,185.3,197.3z"/>
											<path class="st6" d="M195.4,191.5l-7.5,4.3c-0.5,0.3-1.3,0.2-1.8-0.1l-7.2-4.1c-0.5-0.3-0.6-0.8-0.1-1l7.5-4.3
												c0.5-0.3,1.3-0.2,1.8,0.1l7.2,4.1C195.8,190.7,195.9,191.2,195.4,191.5z"/>
											<path class="st6" d="M205.6,185.6l-7.5,4.3c-0.5,0.3-1.3,0.2-1.8-0.1l-7.2-4.1c-0.5-0.3-0.6-0.8-0.1-1l7.5-4.3
												c0.5-0.3,1.3-0.2,1.8,0.1l7.2,4.1C206,184.9,206,185.3,205.6,185.6z"/>
											<path class="st6" d="M215.7,179.7l-7.5,4.3c-0.5,0.3-1.3,0.2-1.8-0.1l-7.2-4.1c-0.5-0.3-0.6-0.8-0.1-1l7.5-4.3
												c0.5-0.3,1.3-0.2,1.8,0.1l7.2,4.1C216.1,179,216.2,179.5,215.7,179.7z"/>
											<path class="st6" d="M225.8,173.9l-7.5,4.3c-0.5,0.3-1.3,0.2-1.8-0.1l-7.2-4.1c-0.5-0.3-0.6-0.8-0.1-1l7.5-4.3
												c0.5-0.3,1.3-0.2,1.8,0.1l7.2,4.1C226.2,173.2,226.3,173.6,225.8,173.9z"/>
											<path class="st6" d="M236,168l-7.5,4.3c-0.5,0.3-1.3,0.2-1.8-0.1l-7.2-4.1c-0.5-0.3-0.6-0.8-0.1-1l7.5-4.3
												c0.5-0.3,1.3-0.2,1.8,0.1l7.2,4.1C236.4,167.3,236.4,167.8,236,168z"/>
											<path class="st6" d="M246.1,162.2l-7.5,4.3c-0.5,0.3-1.3,0.2-1.8-0.1l-7.2-4.1c-0.5-0.3-0.6-0.8-0.1-1l7.5-4.3
												c0.5-0.3,1.3-0.2,1.8,0.1l7.2,4.1C246.5,161.4,246.6,161.9,246.1,162.2z"/>
											<path class="st6" d="M256.3,156.3l-7.5,4.3c-0.5,0.3-1.3,0.2-1.8-0.1l-7.2-4.1c-0.5-0.3-0.6-0.8-0.1-1l7.5-4.3
												c0.5-0.3,1.3-0.2,1.8,0.1l7.2,4.1C256.7,155.6,256.7,156.1,256.3,156.3z"/>
											<path class="st6" d="M271,147.8l-12.1,7c-0.5,0.3-1.3,0.2-1.8-0.1l-7.2-4.1c-0.5-0.3-0.6-0.8-0.1-1l12.1-7
												c0.5-0.3,1.3-0.2,1.8,0.1l7.2,4.1C271.4,147.1,271.5,147.6,271,147.8z"/>
										</g>
										<g>
											<path class="st6" d="M264.5,152.7l7.5-4.3c0.5-0.3,1.3-0.2,1.8,0.1l7.2,4.1c0.5,0.3,0.6,0.8,0.1,1l-7.5,4.3
												c-0.5,0.3-1.3,0.2-1.8-0.1l-7.2-4.1C264.1,153.4,264,153,264.5,152.7z"/>
											<path class="st6" d="M254.3,158.6l7.5-4.3c0.5-0.3,1.3-0.2,1.8,0.1l7.2,4.1c0.5,0.3,0.6,0.8,0.1,1l-7.5,4.3
												c-0.5,0.3-1.3,0.2-1.8-0.1l-7.2-4.1C253.9,159.3,253.9,158.8,254.3,158.6z"/>
											<path class="st6" d="M244.2,164.4l7.5-4.3c0.5-0.3,1.3-0.2,1.8,0.1l7.2,4.1c0.5,0.3,0.6,0.8,0.1,1l-7.5,4.3
												c-0.5,0.3-1.3,0.2-1.8-0.1l-7.2-4.1C243.8,165.1,243.7,164.7,244.2,164.4z"/>
											<path class="st6" d="M234,170.3l7.5-4.3c0.5-0.3,1.3-0.2,1.8,0.1l7.2,4.1c0.5,0.3,0.6,0.8,0.1,1l-7.5,4.3
												c-0.5,0.3-1.3,0.2-1.8-0.1l-7.2-4.1C233.6,171,233.6,170.5,234,170.3z"/>
											<path class="st6" d="M223.9,176.1l7.5-4.3c0.5-0.3,1.3-0.2,1.8,0.1l7.2,4.1c0.5,0.3,0.6,0.8,0.1,1l-7.5,4.3
												c-0.5,0.3-1.3,0.2-1.8-0.1l-7.2-4.1C223.5,176.9,223.4,176.4,223.9,176.1z"/>
											<path class="st6" d="M213.8,182l7.5-4.3c0.5-0.3,1.3-0.2,1.8,0.1l7.2,4.1c0.5,0.3,0.6,0.8,0.1,1l-7.5,4.3
												c-0.5,0.3-1.3,0.2-1.8-0.1l-7.2-4.1C213.4,182.7,213.3,182.3,213.8,182z"/>
											<path class="st6" d="M203.6,187.8l7.5-4.3c0.5-0.3,1.3-0.2,1.8,0.1l7.2,4.1c0.5,0.3,0.6,0.8,0.1,1l-7.5,4.3
												c-0.5,0.3-1.3,0.2-1.8-0.1l-7.2-4.1C203.2,188.6,203.2,188.1,203.6,187.8z"/>
											<path class="st6" d="M193.5,193.7l7.5-4.3c0.5-0.3,1.3-0.2,1.8,0.1l7.2,4.1c0.5,0.3,0.6,0.8,0.1,1l-7.5,4.3
												c-0.5,0.3-1.3,0.2-1.8-0.1l-7.2-4.1C193.1,194.4,193,194,193.5,193.7z"/>
											<path class="st6" d="M183.3,199.6l7.5-4.3c0.5-0.3,1.3-0.2,1.8,0.1l7.2,4.1c0.5,0.3,0.6,0.8,0.1,1l-7.5,4.3
												c-0.5,0.3-1.3,0.2-1.8-0.1l-7.2-4.1C182.9,200.3,182.9,199.8,183.3,199.6z"/>
											<path class="st6" d="M173.2,205.4l7.5-4.3c0.5-0.3,1.3-0.2,1.8,0.1l7.2,4.1c0.5,0.3,0.6,0.8,0.1,1l-7.5,4.3
												c-0.5,0.3-1.3,0.2-1.8-0.1l-7.2-4.1C172.8,206.1,172.7,205.7,173.2,205.4z"/>
											<path class="st6" d="M163,211.3l7.5-4.3c0.5-0.3,1.3-0.2,1.8,0.1l7.2,4.1c0.5,0.3,0.6,0.8,0.1,1l-7.5,4.3
												c-0.5,0.3-1.3,0.2-1.8-0.1l-7.2-4.1C162.6,212,162.6,211.5,163,211.3z"/>
											<path class="st6" d="M152.9,217.1l7.5-4.3c0.5-0.3,1.3-0.2,1.8,0.1l7.2,4.1c0.5,0.3,0.6,0.8,0.1,1l-7.5,4.3
												c-0.5,0.3-1.3,0.2-1.8-0.1l-7.2-4.1C152.5,217.9,152.4,217.4,152.9,217.1z"/>
											<path class="st6" d="M142.8,223l7.5-4.3c0.5-0.3,1.3-0.2,1.8,0.1l7.2,4.1c0.5,0.3,0.6,0.8,0.1,1l-7.5,4.3
												c-0.5,0.3-1.3,0.2-1.8-0.1l-7.2-4.1C142.4,223.7,142.3,223.2,142.8,223z"/>
											<path class="st6" d="M128,231.5l12.1-7c0.5-0.3,1.3-0.2,1.8,0.1l7.2,4.1c0.5,0.3,0.6,0.8,0.1,1l-12.1,7
												c-0.5,0.3-1.3,0.2-1.8-0.1l-7.2-4.1C127.6,232.2,127.6,231.7,128,231.5z"/>
										</g>
										<g>
											<path class="st6" d="M267.2,162.8l14.8-8.6c0.5-0.3,1.3-0.2,1.8,0.1l7.2,4.1c0.5,0.3,0.6,0.8,0.1,1l-14.8,8.6
												c-0.5,0.3-1.3,0.2-1.8-0.1l-7.2-4.1C266.8,163.5,266.8,163,267.2,162.8z"/>
											<path class="st6" d="M138.2,237.3l14.8-8.6c0.5-0.3,1.3-0.2,1.8,0.1l7.2,4.1c0.5,0.3,0.6,0.8,0.1,1l-14.8,8.6
												c-0.5,0.3-1.3,0.2-1.8-0.1l-7.2-4.1C137.8,238,137.7,237.5,138.2,237.3z"/>
											<path class="st6" d="M257.1,168.6l7.5-4.3c0.5-0.3,1.3-0.2,1.8,0.1l7.2,4.1c0.5,0.3,0.6,0.8,0.1,1l-7.5,4.3
												c-0.5,0.3-1.3,0.2-1.8-0.1l-7.2-4.1C256.7,169.3,256.6,168.9,257.1,168.6z"/>
											<path class="st6" d="M246.9,174.5l7.5-4.3c0.5-0.3,1.3-0.2,1.8,0.1l7.2,4.1c0.5,0.3,0.6,0.8,0.1,1l-7.5,4.3
												c-0.5,0.3-1.3,0.2-1.8-0.1l-7.2-4.1C246.5,175.2,246.5,174.7,246.9,174.5z"/>
											<path class="st6" d="M236.8,180.3l7.5-4.3c0.5-0.3,1.3-0.2,1.8,0.1l7.2,4.1c0.5,0.3,0.6,0.8,0.1,1l-7.5,4.3
												c-0.5,0.3-1.3,0.2-1.8-0.1l-7.2-4.1C236.4,181.1,236.3,180.6,236.8,180.3z"/>
											<path class="st6" d="M226.7,186.2l7.5-4.3c0.5-0.3,1.3-0.2,1.8,0.1l7.2,4.1c0.5,0.3,0.6,0.8,0.1,1l-7.5,4.3
												c-0.5,0.3-1.3,0.2-1.8-0.1l-7.2-4.1C226.3,186.9,226.2,186.4,226.7,186.2z"/>
											<path class="st6" d="M216.5,192l7.5-4.3c0.5-0.3,1.3-0.2,1.8,0.1l7.2,4.1c0.5,0.3,0.6,0.8,0.1,1l-7.5,4.3
												c-0.5,0.3-1.3,0.2-1.8-0.1l-7.2-4.1C216.1,192.8,216.1,192.3,216.5,192z"/>
											<path class="st6" d="M206.4,197.9l7.5-4.3c0.5-0.3,1.3-0.2,1.8,0.1l7.2,4.1c0.5,0.3,0.6,0.8,0.1,1l-7.5,4.3
												c-0.5,0.3-1.3,0.2-1.8-0.1l-7.2-4.1C206,198.6,205.9,198.2,206.4,197.9z"/>
											<path class="st6" d="M196.2,203.7l7.5-4.3c0.5-0.3,1.3-0.2,1.8,0.1l7.2,4.1c0.5,0.3,0.6,0.8,0.1,1l-7.5,4.3
												c-0.5,0.3-1.3,0.2-1.8-0.1l-7.2-4.1C195.8,204.5,195.8,204,196.2,203.7z"/>
											<path class="st6" d="M186.1,209.6l7.5-4.3c0.5-0.3,1.3-0.2,1.8,0.1l7.2,4.1c0.5,0.3,0.6,0.8,0.1,1l-7.5,4.3
												c-0.5,0.3-1.3,0.2-1.8-0.1l-7.2-4.1C185.7,210.3,185.6,209.9,186.1,209.6z"/>
											<path class="st6" d="M175.9,215.5l7.5-4.3c0.5-0.3,1.3-0.2,1.8,0.1l7.2,4.1c0.5,0.3,0.6,0.8,0.1,1l-7.5,4.3
												c-0.5,0.3-1.3,0.2-1.8-0.1l-7.2-4.1C175.5,216.2,175.5,215.7,175.9,215.5z"/>
											<path class="st6" d="M165.8,221.3l7.5-4.3c0.5-0.3,1.3-0.2,1.8,0.1l7.2,4.1c0.5,0.3,0.6,0.8,0.1,1l-7.5,4.3
												c-0.5,0.3-1.3,0.2-1.8-0.1l-7.2-4.1C165.4,222,165.3,221.6,165.8,221.3z"/>
											<path class="st6" d="M155.7,227.2l7.5-4.3c0.5-0.3,1.3-0.2,1.8,0.1l7.2,4.1c0.5,0.3,0.6,0.8,0.1,1l-7.5,4.3
												c-0.5,0.3-1.3,0.2-1.8-0.1l-7.2-4.1C155.3,227.9,155.2,227.4,155.7,227.2z"/>
										</g>
										<g>
											<path class="st6" d="M272.3,171.5l19.9-11.5c0.5-0.3,1.3-0.2,1.8,0.1l7.2,4.1c0.5,0.3,0.6,0.8,0.1,1l-19.9,11.5
												c-0.5,0.3-1.3,0.2-1.8-0.1l-7.2-4.1C271.9,172.2,271.8,171.7,272.3,171.5z"/>
											<path class="st6" d="M262.1,177.3l7.5-4.3c0.5-0.3,1.3-0.2,1.8,0.1l7.2,4.1c0.5,0.3,0.6,0.8,0.1,1l-7.5,4.3
												c-0.5,0.3-1.3,0.2-1.8-0.1l-7.2-4.1C261.7,178.1,261.7,177.6,262.1,177.3z"/>
											<path class="st6" d="M252,183.2l7.5-4.3c0.5-0.3,1.3-0.2,1.8,0.1l7.2,4.1c0.5,0.3,0.6,0.8,0.1,1l-7.5,4.3
												c-0.5,0.3-1.3,0.2-1.8-0.1l-7.2-4.1C251.6,183.9,251.5,183.5,252,183.2z"/>
											<path class="st6" d="M241.9,189.1l7.5-4.3c0.5-0.3,1.3-0.2,1.8,0.1l7.2,4.1c0.5,0.3,0.6,0.8,0.1,1l-7.5,4.3
												c-0.5,0.3-1.3,0.2-1.8-0.1l-7.2-4.1C241.4,189.8,241.4,189.3,241.9,189.1z"/>
											<path class="st6" d="M231.7,194.9l7.5-4.3c0.5-0.3,1.3-0.2,1.8,0.1l7.2,4.1c0.5,0.3,0.6,0.8,0.1,1l-7.5,4.3
												c-0.5,0.3-1.3,0.2-1.8-0.1l-7.2-4.1C231.3,195.6,231.2,195.2,231.7,194.9z"/>
											<path class="st6" d="M221.6,200.8l7.5-4.3c0.5-0.3,1.3-0.2,1.8,0.1l7.2,4.1c0.5,0.3,0.6,0.8,0.1,1l-7.5,4.3
												c-0.5,0.3-1.3,0.2-1.8-0.1l-7.2-4.1C221.2,201.5,221.1,201,221.6,200.8z"/>
											<path class="st6" d="M211.4,206.6l7.5-4.3c0.5-0.3,1.3-0.2,1.8,0.1l7.2,4.1c0.5,0.3,0.6,0.8,0.1,1l-7.5,4.3
												c-0.5,0.3-1.3,0.2-1.8-0.1l-7.2-4.1C211,207.3,211,206.9,211.4,206.6z"/>
											<path class="st6" d="M201.3,212.5l7.5-4.3c0.5-0.3,1.3-0.2,1.8,0.1l7.2,4.1c0.5,0.3,0.6,0.8,0.1,1l-7.5,4.3
												c-0.5,0.3-1.3,0.2-1.8-0.1l-7.2-4.1C200.9,213.2,200.8,212.7,201.3,212.5z"/>
											<path class="st6" d="M191.1,218.3l7.5-4.3c0.5-0.3,1.3-0.2,1.8,0.1l7.2,4.1c0.5,0.3,0.6,0.8,0.1,1l-7.5,4.3
												c-0.5,0.3-1.3,0.2-1.8-0.1l-7.2-4.1C190.7,219.1,190.7,218.6,191.1,218.3z"/>
											<path class="st6" d="M181,224.2l7.5-4.3c0.5-0.3,1.3-0.2,1.8,0.1l7.2,4.1c0.5,0.3,0.6,0.8,0.1,1l-7.5,4.3
												c-0.5,0.3-1.3,0.2-1.8-0.1l-7.2-4.1C180.6,224.9,180.5,224.5,181,224.2z"/>
											<path class="st6" d="M170.8,230l7.5-4.3c0.5-0.3,1.3-0.2,1.8,0.1l7.2,4.1c0.5,0.3,0.6,0.8,0.1,1l-7.5,4.3
												c-0.5,0.3-1.3,0.2-1.8-0.1l-7.2-4.1C170.4,230.8,170.4,230.3,170.8,230z"/>
											<path class="st6" d="M148.3,243.1l19.9-11.5c0.5-0.3,1.3-0.2,1.8,0.1l7.2,4.1c0.5,0.3,0.6,0.8,0.1,1l-19.9,11.5
												c-0.5,0.3-1.3,0.2-1.8-0.1l-7.2-4.1C147.9,243.8,147.8,243.3,148.3,243.1z"/>
										</g>
										<g>
											<path class="st6" d="M201.2,224.1l48.1-27.8c0.5-0.3,1.3-0.2,1.8,0.1l7.2,4.1c0.5,0.3,0.6,0.8,0.1,1l-48.1,27.8
												c-0.5,0.3-1.3,0.2-1.8-0.1l-7.2-4.1C200.8,224.9,200.8,224.4,201.2,224.1z"/>
											<path class="st6" d="M264.3,187.7l7.5-4.3c0.5-0.3,1.3-0.2,1.8,0.1l7.2,4.1c0.5,0.3,0.6,0.8,0.1,1l-7.5,4.3
												c-0.5,0.3-1.3,0.2-1.8-0.1l-7.2-4.1C263.9,188.5,263.8,188,264.3,187.7z"/>
											<path class="st6" d="M251.9,194.9l9.7-5.6c0.5-0.3,1.3-0.2,1.8,0.1l7.2,4.1c0.5,0.3,0.6,0.8,0.1,1l-9.7,5.6
												c-0.5,0.3-1.3,0.2-1.8-0.1l-7.2-4.1C251.5,195.6,251.5,195.1,251.9,194.9z"/>
											<path class="st6" d="M186.2,232.8l-7.5,4.3c-0.5,0.3-0.4,0.7,0.1,1l7.2,4.1c0.5,0.3,1.3,0.3,1.8,0.1l7.5-4.3
												c0.5-0.3,0.4-0.7-0.1-1l-7.2-4.1C187.5,232.6,186.7,232.5,186.2,232.8z"/>
											<path class="st6" d="M198.6,225.7l-9.7,5.6c-0.5,0.3-0.4,0.7,0.1,1l7.2,4.1c0.5,0.3,1.3,0.3,1.8,0.1l9.7-5.6
												c0.5-0.3,0.4-0.7-0.1-1l-7.2-4.1C199.8,225.4,199,225.4,198.6,225.7z"/>
											<path class="st6" d="M294.7,170.2l7.5-4.3c0.5-0.3,1.3-0.2,1.8,0.1l7.2,4.1c0.5,0.3,0.6,0.8,0.1,1l-7.5,4.3
												c-0.5,0.3-1.3,0.2-1.8-0.1l-7.2-4.1C294.3,170.9,294.3,170.4,294.7,170.2z"/>
											<path class="st6" d="M284.6,176l7.5-4.3c0.5-0.3,1.3-0.2,1.8,0.1l7.2,4.1c0.5,0.3,0.6,0.8,0.1,1l-7.5,4.3
												c-0.5,0.3-1.3,0.2-1.8-0.1l-7.2-4.1C284.2,176.8,284.1,176.3,284.6,176z"/>
											<path class="st6" d="M274.4,181.9l7.5-4.3c0.5-0.3,1.3-0.2,1.8,0.1l7.2,4.1c0.5,0.3,0.6,0.8,0.1,1l-7.5,4.3
												c-0.5,0.3-1.3,0.2-1.8-0.1l-7.2-4.1C274,182.6,274,182.1,274.4,181.9z"/>
											<path class="st6" d="M158.4,248.9l17.7-10.2c0.5-0.3,1.3-0.2,1.8,0.1l7.2,4.1c0.5,0.3,0.6,0.8,0.1,1l-17.7,10.2
												c-0.5,0.3-1.3,0.2-1.8-0.1l-7.2-4.1C158,249.6,157.9,249.2,158.4,248.9z"/>
										</g>
										<g>
											<path class="st6" d="M124.5,220.8l-7.5,4.3c-0.5,0.3-1.3,0.2-1.8-0.1l-3.6-2.1c-0.5-0.3-0.6-0.8-0.1-1l7.5-4.3
												c0.5-0.3,1.3-0.2,1.8,0.1l3.6,2.1C124.9,220,124.9,220.5,124.5,220.8z"/>
											<path class="st6" d="M134.6,214.9l-7.5,4.3c-0.5,0.3-1.3,0.2-1.8-0.1l-3.6-2.1c-0.5-0.3-0.6-0.8-0.1-1l7.5-4.3
												c0.5-0.3,1.3-0.2,1.8,0.1l3.6,2.1C135,214.2,135.1,214.6,134.6,214.9z"/>
											<path class="st6" d="M144.8,209.1l-7.5,4.3c-0.5,0.3-1.3,0.2-1.8-0.1l-3.6-2.1c-0.5-0.3-0.6-0.8-0.1-1l7.5-4.3
												c0.5-0.3,1.3-0.2,1.8,0.1l3.6,2.1C145.2,208.3,145.2,208.8,144.8,209.1z"/>
											<path class="st6" d="M154.9,203.2l-7.5,4.3c-0.5,0.3-1.3,0.2-1.8-0.1l-3.6-2.1c-0.5-0.3-0.6-0.8-0.1-1l7.5-4.3
												c0.5-0.3,1.3-0.2,1.8,0.1l3.6,2.1C155.3,202.5,155.4,202.9,154.9,203.2z"/>
											<path class="st6" d="M165,197.3l-7.5,4.3c-0.5,0.3-1.3,0.2-1.8-0.1l-3.6-2.1c-0.5-0.3-0.6-0.8-0.1-1l7.5-4.3
												c0.5-0.3,1.3-0.2,1.8,0.1l3.6,2.1C165.4,196.6,165.5,197.1,165,197.3z"/>
											<path class="st6" d="M175.2,191.5l-7.5,4.3c-0.5,0.3-1.3,0.2-1.8-0.1l-3.6-2.1c-0.5-0.3-0.6-0.8-0.1-1l7.5-4.3
												c0.5-0.3,1.3-0.2,1.8,0.1l3.6,2.1C175.6,190.8,175.6,191.2,175.2,191.5z"/>
											<path class="st6" d="M185.3,185.6l-7.5,4.3c-0.5,0.3-1.3,0.2-1.8-0.1l-3.6-2.1c-0.5-0.3-0.6-0.8-0.1-1l7.5-4.3
												c0.5-0.3,1.3-0.2,1.8,0.1l3.6,2.1C185.7,184.9,185.8,185.4,185.3,185.6z"/>
											<path class="st6" d="M195.5,179.8l-7.5,4.3c-0.5,0.3-1.3,0.2-1.8-0.1l-3.6-2.1c-0.5-0.3-0.6-0.8-0.1-1l7.5-4.3
												c0.5-0.3,1.3-0.2,1.8,0.1l3.6,2.1C195.9,179.1,195.9,179.5,195.5,179.8z"/>
											<path class="st6" d="M205.6,173.9l-7.5,4.3c-0.5,0.3-1.3,0.2-1.8-0.1l-3.6-2.1c-0.5-0.3-0.6-0.8-0.1-1l7.5-4.3
												c0.5-0.3,1.3-0.2,1.8,0.1l3.6,2.1C206,173.2,206.1,173.7,205.6,173.9z"/>
											<path class="st6" d="M215.8,168.1l-7.5,4.3c-0.5,0.3-1.3,0.2-1.8-0.1l-3.6-2.1c-0.5-0.3-0.6-0.8-0.1-1l7.5-4.3
												c0.5-0.3,1.3-0.2,1.8,0.1l3.6,2.1C216.2,167.3,216.2,167.8,215.8,168.1z"/>
											<path class="st6" d="M225.9,162.2l-7.5,4.3c-0.5,0.3-1.3,0.2-1.8-0.1l-3.6-2.1c-0.5-0.3-0.6-0.8-0.1-1l7.5-4.3
												c0.5-0.3,1.3-0.2,1.8,0.1l3.6,2.1C226.3,161.5,226.4,161.9,225.9,162.2z"/>
											<path class="st6" d="M236,156.4l-7.5,4.3c-0.5,0.3-1.3,0.2-1.8-0.1l-3.6-2.1c-0.5-0.3-0.6-0.8-0.1-1l7.5-4.3
												c0.5-0.3,1.3-0.2,1.8,0.1l3.6,2.1C236.4,155.6,236.5,156.1,236,156.4z"/>
											<path class="st6" d="M246.2,150.5l-7.5,4.3c-0.5,0.3-1.3,0.2-1.8-0.1l-3.6-2.1c-0.5-0.3-0.6-0.8-0.1-1l7.5-4.3
												c0.5-0.3,1.3-0.2,1.8,0.1l3.6,2.1C246.6,149.8,246.6,150.2,246.2,150.5z"/>
											<path class="st6" d="M260.9,142l-12.1,7c-0.5,0.3-1.3,0.2-1.8-0.1l-3.6-2.1c-0.5-0.3-0.6-0.8-0.1-1l12.1-7
												c0.5-0.3,1.3-0.2,1.8,0.1l3.6,2.1C261.3,141.3,261.4,141.7,260.9,142z"/>
										</g>
									</g>
									<path class="st21" d="M298.8,232.8l-24.4,14.1c-0.7,0.4-0.7,1,0,1.4l26.8-15.5C300.5,232.4,299.4,232.4,298.8,232.8z"/>
									<polygon class="st21" points="240.3,140.1 113.7,213.2 111.9,212.2 238.6,139.1 									"/>
								</g>
								<path class="st22" d="M159.4,260.1l-58.1-33.5c-4-2.3-4.4-5.8-1-7.7l149.8-86.5c3.4-2,9.4-1.7,13.4,0.6l58.1,33.5
									L159.4,260.1z"/>
							</g>
							<polygon class="st21" points="94.1,100.9 94.1,214.2 91.4,212.6 91.4,99.3 							"/>
							<g>
								<path class="st23" d="M250.2,132.4l-149.8,86.5c-3.4,2-6.2,0.9-6.2-4.7V100.9c0-6.4,2.1-9.5,6.2-11.9L250.2,2.5
									c3.4-2,6.2-1.1,6.2,4.7v113.3C256.4,127.9,253.9,130.2,250.2,132.4z"/>
								<path class="st6" d="M250.6,3.1L100,90.1c-2.8,1.6-5,5.5-5,8.7v116.6c0,3.2,2.3,4.5,5,2.9l150.6-87c2.8-1.6,5-5.5,5-8.7V6
									C255.6,2.8,253.4,1.5,250.6,3.1z"/>
								<g>
									<defs>
										<polygon id="XMLID_1_" points="100.7,205.3 100.7,96.3 249.8,10.3 249.8,119.2 										"/>
									</defs>
									<use xlink:href="#XMLID_1_"  style="overflow:visible;fill:#6B78BD;"/>
									<clipPath id="XMLID_5_">
										<use xlink:href="#XMLID_1_"  style="overflow:visible;"/>
									</clipPath>
									<g class="st24">
										<g>
											<path class="st10" d="M20.9,153.9c-2.2-2.2-1.2-5.4,2.2-7.2l143.6-76.1c1.4-0.8,3.2-1.1,4.8-1.2l0,0l8.3-0.1l0,0
												c-1.6,0.1-3.2,0.4-4.6,1.2L31.5,146.9c-3.4,1.8-4.4,5-2.1,7.2L20.9,153.9z"/>
											<path class="st10" d="M29.3,154L87.6,211c1.3,1.2,3.2,2,5.2,2.1l0,0l-8.3-0.2c-0.3,0-0.6,0-0.8,0l-0.1,0l0,0
												c-2-0.1-3.9-0.9-5.1-2.1l-57.6-56.8L29.3,154z"/>
										</g>
										<g>
											<path class="st9" d="M211.4,90.8L185.5,71c-2.5-1.9-7.1-2.1-10.3-0.4L31.5,146.9c-3.4,1.8-4.4,5-2.1,7.2l22.9,22.4
												L211.4,90.8z"/>
											<path class="st9" d="M52.3,176.5L87.6,211c2.5,2.5,7.5,2.8,11,0.9l151.6-83.4c3.4-1.9,3.8-5.1,1-7.3l-39.9-30.4
												L52.3,176.5z"/>
											<g>
												<g>
													<path class="st6" d="M94.3,191.5l-7.7,4.2c-0.5,0.3-0.6,0.7-0.3,1l4.5,4.3c0.3,0.3,1,0.4,1.5,0.1l7.7-4.2
														c0.5-0.3,0.6-0.7,0.2-1l-4.5-4.3C95.4,191.3,94.8,191.3,94.3,191.5z"/>
													<path class="st6" d="M104.7,185.9L97,190c-0.5,0.3-0.6,0.7-0.2,1l4.5,4.3c0.3,0.3,1,0.4,1.5,0.1l7.7-4.2
														c0.5-0.3,0.6-0.7,0.2-1l-4.6-4.3C105.8,185.6,105.2,185.6,104.7,185.9z"/>
													<path class="st6" d="M115,180.2l-7.6,4.2c-0.5,0.3-0.6,0.7-0.2,1l4.6,4.3c0.3,0.3,1,0.4,1.5,0.1l7.7-4.2
														c0.5-0.3,0.6-0.7,0.2-1l-4.6-4.2C116.2,180,115.5,180,115,180.2z"/>
													<path class="st6" d="M125.3,174.6l-7.6,4.2c-0.5,0.3-0.6,0.7-0.2,1l4.6,4.2c0.3,0.3,1,0.4,1.5,0.1l7.6-4.2
														c0.5-0.3,0.6-0.7,0.2-1l-4.6-4.2C126.5,174.4,125.8,174.3,125.3,174.6z"/>
													<path class="st6" d="M135.6,169l-7.6,4.1c-0.5,0.3-0.6,0.7-0.2,1l4.6,4.2c0.3,0.3,1,0.4,1.5,0.1l7.6-4.2
														c0.5-0.3,0.6-0.7,0.2-1l-4.7-4.2C136.7,168.8,136.1,168.7,135.6,169z"/>
													<path class="st6" d="M145.8,163.4l-7.5,4.1c-0.5,0.3-0.6,0.7-0.2,1l4.7,4.2c0.3,0.3,1,0.4,1.5,0.1l7.6-4.2
														c0.5-0.3,0.6-0.7,0.2-1l-4.7-4.1C146.9,163.2,146.3,163.2,145.8,163.4z"/>
													<path class="st6" d="M156,157.9l-7.5,4.1c-0.5,0.3-0.6,0.7-0.2,1l4.7,4.1c0.3,0.3,1,0.3,1.5,0.1l7.6-4.1
														c0.5-0.3,0.6-0.7,0.2-1l-4.7-4.1C157.1,157.6,156.5,157.6,156,157.9z"/>
													<path class="st6" d="M166.2,152.3l-7.5,4.1c-0.5,0.3-0.5,0.7-0.2,1l4.7,4.1c0.4,0.3,1,0.3,1.5,0.1l7.5-4.1
														c0.5-0.3,0.5-0.7,0.2-1l-4.8-4.1C167.3,152.1,166.6,152.1,166.2,152.3z"/>
													<path class="st6" d="M176.3,146.8l-7.5,4.1c-0.5,0.2-0.5,0.7-0.2,1l4.8,4.1c0.4,0.3,1,0.3,1.5,0.1l7.5-4.1
														c0.5-0.3,0.5-0.7,0.2-1l-4.8-4C177.4,146.6,176.7,146.6,176.3,146.8z"/>
													<path class="st6" d="M186.3,141.3l-7.4,4.1c-0.5,0.2-0.5,0.7-0.2,1l4.8,4c0.4,0.3,1,0.3,1.5,0.1l7.5-4.1
														c0.5-0.2,0.5-0.7,0.2-1l-4.8-4C187.4,141.1,186.8,141.1,186.3,141.3z"/>
													<path class="st6" d="M196.3,135.8l-7.4,4c-0.5,0.2-0.5,0.7-0.2,1l4.9,4c0.4,0.3,1,0.3,1.5,0.1l7.4-4.1
														c0.5-0.2,0.5-0.7,0.2-1l-4.9-4C197.4,135.6,196.8,135.6,196.3,135.8z"/>
													<path class="st6" d="M206.3,130.4l-7.4,4c-0.5,0.2-0.5,0.7-0.2,1l4.9,4c0.4,0.3,1,0.3,1.5,0.1l7.4-4.1
														c0.5-0.2,0.5-0.7,0.2-1l-4.9-3.9C207.4,130.2,206.8,130.2,206.3,130.4z"/>
													<path class="st6" d="M216.3,125l-7.3,4c-0.4,0.2-0.5,0.7-0.2,1l4.9,3.9c0.4,0.3,1,0.3,1.5,0.1l7.4-4
														c0.5-0.2,0.5-0.7,0.2-1l-5-3.9C217.4,124.8,216.7,124.7,216.3,125z"/>
													<path class="st6" d="M230.6,117.1l-11.8,6.4c-0.4,0.2-0.5,0.7-0.2,1l5,3.9c0.4,0.3,1,0.3,1.5,0.1L237,122
														c0.4-0.2,0.5-0.7,0.1-1l-5-3.9C231.7,116.9,231.1,116.9,230.6,117.1z"/>
												</g>
												<g>
													<path class="st6" d="M222.6,120.6l7.3-4c0.4-0.2,0.5-0.7,0.1-1l-4.9-3.8c-0.4-0.3-1-0.3-1.5-0.1l-7.3,4
														c-0.4,0.2-0.5,0.7-0.2,0.9l4.9,3.8C221.5,120.8,222.2,120.8,222.6,120.6z"/>
													<path class="st6" d="M212.7,126l7.3-4c0.4-0.2,0.5-0.7,0.2-1l-4.9-3.8c-0.4-0.3-1-0.3-1.5-0.1l-7.3,4
														c-0.4,0.2-0.5,0.7-0.2,1l4.9,3.9C211.6,126.2,212.3,126.2,212.7,126z"/>
													<path class="st6" d="M202.8,131.4l7.4-4c0.4-0.2,0.5-0.7,0.2-1l-4.9-3.9c-0.4-0.3-1-0.3-1.5-0.1l-7.3,4
														c-0.4,0.2-0.5,0.7-0.2,1l4.8,3.9C201.7,131.6,202.3,131.7,202.8,131.4z"/>
													<path class="st6" d="M192.8,136.9l7.4-4c0.5-0.2,0.5-0.7,0.2-1l-4.8-3.9c-0.4-0.3-1-0.3-1.5-0.1l-7.4,4
														c-0.5,0.2-0.5,0.7-0.2,1l4.8,3.9C191.7,137.1,192.3,137.1,192.8,136.9z"/>
													<path class="st6" d="M182.8,142.3l7.4-4c0.5-0.2,0.5-0.7,0.2-1l-4.8-3.9c-0.4-0.3-1-0.3-1.5-0.1l-7.4,4
														c-0.5,0.2-0.5,0.7-0.2,1l4.8,4C181.7,142.6,182.3,142.6,182.8,142.3z"/>
													<path class="st6" d="M172.7,147.8l7.4-4.1c0.5-0.2,0.5-0.7,0.2-1l-4.8-4c-0.3-0.3-1-0.3-1.5-0.1l-7.4,4
														c-0.5,0.2-0.5,0.7-0.2,1l4.7,4C171.6,148.1,172.2,148.1,172.7,147.8z"/>
													<path class="st6" d="M162.6,153.4l7.5-4.1c0.5-0.2,0.5-0.7,0.2-1l-4.7-4c-0.3-0.3-1-0.3-1.5-0.1l-7.4,4
														c-0.5,0.2-0.5,0.7-0.2,1l4.7,4C161.5,153.6,162.1,153.6,162.6,153.4z"/>
													<path class="st6" d="M152.4,158.9l7.5-4.1c0.5-0.2,0.5-0.7,0.2-1l-4.7-4c-0.3-0.3-1-0.3-1.4-0.1l-7.5,4.1
														c-0.5,0.2-0.6,0.7-0.2,1l4.7,4.1C151.3,159.1,152,159.1,152.4,158.9z"/>
													<path class="st6" d="M142.3,164.4l7.5-4.1c0.5-0.3,0.6-0.7,0.2-1l-4.7-4.1c-0.3-0.3-1-0.3-1.4-0.1l-7.5,4.1
														c-0.5,0.2-0.6,0.7-0.2,1l4.6,4.1C141.1,164.7,141.8,164.7,142.3,164.4z"/>
													<path class="st6" d="M132,170l7.6-4.1c0.5-0.3,0.6-0.7,0.2-1l-4.6-4.1c-0.3-0.3-1-0.3-1.4-0.1l-7.5,4.1
														c-0.5,0.3-0.6,0.7-0.2,1l4.6,4.1C130.9,170.2,131.6,170.3,132,170z"/>
													<path class="st6" d="M121.8,175.6l7.6-4.1c0.5-0.3,0.6-0.7,0.2-1l-4.6-4.1c-0.3-0.3-1-0.3-1.4-0.1l-7.6,4.1
														c-0.5,0.3-0.6,0.7-0.2,1l4.6,4.2C120.7,175.8,121.3,175.9,121.8,175.6z"/>
													<path class="st6" d="M111.5,181.3l7.6-4.2c0.5-0.3,0.6-0.7,0.2-1l-4.6-4.2c-0.3-0.3-1-0.3-1.4-0.1l-7.6,4.1
														c-0.5,0.3-0.6,0.7-0.2,1l4.5,4.2C110.3,181.5,111,181.5,111.5,181.3z"/>
													<path class="st6" d="M101.1,186.9l7.7-4.2c0.5-0.3,0.6-0.7,0.2-1l-4.5-4.2c-0.3-0.3-1-0.4-1.4-0.1l-7.6,4.1
														c-0.5,0.3-0.6,0.7-0.2,1l4.5,4.2C100,187.1,100.6,187.2,101.1,186.9z"/>
													<path class="st6" d="M86,195.1l12.4-6.8c0.5-0.3,0.6-0.7,0.2-1l-4.5-4.2c-0.3-0.3-1-0.4-1.4-0.1l-12.3,6.7
														c-0.5,0.3-0.6,0.7-0.3,1l4.4,4.3C84.9,195.3,85.5,195.4,86,195.1z"/>
												</g>
												<g>
													<path class="st6" d="M208.6,119.1l14.4-7.8c0.4-0.2,0.5-0.7,0.1-0.9l-4.9-3.8c-0.4-0.3-1-0.3-1.4-0.1l-14.3,7.8
														c-0.4,0.2-0.5,0.7-0.2,0.9l4.8,3.8C207.5,119.3,208.2,119.3,208.6,119.1z"/>
													<path class="st6" d="M79.9,189.1l15.1-8.2c0.5-0.3,0.6-0.7,0.2-1l-4.4-4.2c-0.3-0.3-1-0.3-1.4-0.1l-15,8.2
														c-0.5,0.3-0.6,0.7-0.3,1l4.4,4.2C78.8,189.3,79.4,189.4,79.9,189.1z"/>
													<path class="st6" d="M198.7,124.5l7.3-4c0.4-0.2,0.5-0.7,0.2-1l-4.8-3.8c-0.4-0.3-1-0.3-1.4-0.1l-7.3,3.9
														c-0.4,0.2-0.5,0.7-0.2,0.9l4.8,3.8C197.7,124.7,198.3,124.7,198.7,124.5z"/>
													<path class="st6" d="M188.8,129.9l7.3-4c0.4-0.2,0.5-0.7,0.2-1l-4.8-3.9c-0.4-0.3-1-0.3-1.4-0.1l-7.3,4
														c-0.4,0.2-0.5,0.7-0.2,1l4.8,3.9C187.7,130.1,188.4,130.1,188.8,129.9z"/>
													<path class="st6" d="M178.9,135.3l7.4-4c0.4-0.2,0.5-0.7,0.2-1l-4.8-3.9c-0.3-0.3-1-0.3-1.4-0.1l-7.3,4
														c-0.4,0.2-0.5,0.7-0.2,1l4.7,3.9C177.7,135.5,178.4,135.5,178.9,135.3z"/>
													<path class="st6" d="M168.8,140.7l7.4-4c0.5-0.2,0.5-0.7,0.2-1l-4.7-3.9c-0.3-0.3-1-0.3-1.4-0.1l-7.4,4
														c-0.5,0.2-0.5,0.7-0.2,1l4.7,3.9C167.7,140.9,168.4,141,168.8,140.7z"/>
													<path class="st6" d="M158.8,146.2l7.4-4c0.5-0.2,0.5-0.7,0.2-1l-4.7-3.9c-0.3-0.3-1-0.3-1.4-0.1l-7.4,4
														c-0.5,0.2-0.5,0.7-0.2,1l4.7,4C157.7,146.4,158.3,146.4,158.8,146.2z"/>
													<path class="st6" d="M148.7,151.7l7.5-4.1c0.5-0.2,0.5-0.7,0.2-1l-4.7-4c-0.3-0.3-1-0.3-1.4-0.1l-7.4,4
														c-0.5,0.2-0.5,0.7-0.2,1l4.6,4C147.6,151.9,148.3,151.9,148.7,151.7z"/>
													<path class="st6" d="M138.6,157.2l7.5-4.1c0.5-0.2,0.6-0.7,0.2-1l-4.6-4c-0.3-0.3-1-0.3-1.4-0.1l-7.5,4
														c-0.5,0.2-0.6,0.7-0.2,1l4.6,4C137.5,157.4,138.1,157.4,138.6,157.2z"/>
													<path class="st6" d="M128.4,162.7l7.5-4.1c0.5-0.2,0.6-0.7,0.2-1l-4.6-4c-0.3-0.3-1-0.3-1.4-0.1l-7.5,4.1
														c-0.5,0.2-0.6,0.7-0.2,1l4.6,4.1C127.3,162.9,128,162.9,128.4,162.7z"/>
													<path class="st6" d="M118.2,168.2l7.5-4.1c0.5-0.3,0.6-0.7,0.2-1l-4.5-4.1c-0.3-0.3-1-0.3-1.4-0.1l-7.5,4.1
														c-0.5,0.2-0.6,0.7-0.2,1l4.5,4.1C117.1,168.5,117.8,168.5,118.2,168.2z"/>
													<path class="st6" d="M108,173.8l7.6-4.1c0.5-0.3,0.6-0.7,0.2-1l-4.5-4.1c-0.3-0.3-1-0.3-1.4-0.1l-7.5,4.1
														c-0.5,0.3-0.6,0.7-0.2,1l4.5,4.1C106.9,174,107.5,174.1,108,173.8z"/>
													<path class="st6" d="M97.7,179.4l7.6-4.1c0.5-0.3,0.6-0.7,0.2-1l-4.5-4.1c-0.3-0.3-1-0.3-1.4-0.1l-7.6,4.1
														c-0.5,0.3-0.6,0.7-0.2,1l4.4,4.2C96.6,179.6,97.2,179.7,97.7,179.4z"/>
												</g>
												<g>
													<path class="st6" d="M197,116.4l19.2-10.4c0.4-0.2,0.5-0.7,0.2-0.9l-4.8-3.7c-0.4-0.3-1-0.3-1.4-0.1L191,111.6
														c-0.4,0.2-0.5,0.7-0.2,0.9l4.8,3.8C195.9,116.6,196.5,116.6,197,116.4z"/>
													<path class="st6" d="M187.1,121.7l7.3-4c0.4-0.2,0.5-0.7,0.2-0.9l-4.7-3.8c-0.3-0.3-1-0.3-1.4-0.1l-7.3,3.9
														c-0.4,0.2-0.5,0.7-0.2,0.9l4.7,3.8C186,121.9,186.7,122,187.1,121.7z"/>
													<path class="st6" d="M177.2,127.1l7.3-4c0.4-0.2,0.5-0.7,0.2-1l-4.7-3.8c-0.3-0.3-1-0.3-1.4-0.1l-7.3,3.9
														c-0.4,0.2-0.5,0.7-0.2,0.9l4.7,3.8C176.1,127.3,176.8,127.3,177.2,127.1z"/>
													<path class="st6" d="M167.3,132.5l7.4-4c0.4-0.2,0.5-0.7,0.2-1l-4.7-3.9c-0.3-0.3-1-0.3-1.4-0.1l-7.3,4
														c-0.4,0.2-0.5,0.7-0.2,1l4.7,3.9C166.2,132.7,166.8,132.7,167.3,132.5z"/>
													<path class="st6" d="M157.3,137.9l7.4-4c0.5-0.2,0.5-0.7,0.2-1l-4.6-3.9c-0.3-0.3-1-0.3-1.4-0.1l-7.3,4
														c-0.4,0.2-0.5,0.7-0.2,1l4.6,3.9C156.2,138.1,156.8,138.1,157.3,137.9z"/>
													<path class="st6" d="M147.3,143.3l7.4-4c0.5-0.2,0.5-0.7,0.2-1l-4.6-3.9c-0.3-0.3-1-0.3-1.4-0.1l-7.4,4
														c-0.5,0.2-0.5,0.7-0.2,1l4.6,3.9C146.2,143.5,146.8,143.6,147.3,143.3z"/>
													<path class="st6" d="M137.2,148.8l7.4-4c0.5-0.2,0.5-0.7,0.2-1l-4.6-3.9c-0.3-0.3-1-0.3-1.4-0.1l-7.4,4
														c-0.5,0.2-0.6,0.7-0.2,1l4.5,4C136.1,149,136.8,149,137.2,148.8z"/>
													<path class="st6" d="M127.1,154.2l7.5-4c0.5-0.2,0.6-0.7,0.2-1l-4.5-4c-0.3-0.3-1-0.3-1.4-0.1l-7.4,4
														c-0.5,0.2-0.6,0.7-0.2,1l4.5,4C126,154.4,126.7,154.5,127.1,154.2z"/>
													<path class="st6" d="M117,159.7l7.5-4.1c0.5-0.2,0.6-0.7,0.2-1l-4.5-4c-0.3-0.3-1-0.3-1.4-0.1l-7.5,4
														c-0.5,0.2-0.6,0.7-0.2,1l4.5,4C115.9,159.9,116.5,160,117,159.7z"/>
													<path class="st6" d="M106.8,165.2l7.5-4.1c0.5-0.2,0.6-0.7,0.2-1l-4.5-4c-0.3-0.3-1-0.3-1.4-0.1l-7.5,4
														c-0.5,0.2-0.6,0.7-0.2,1l4.4,4.1C105.7,165.4,106.4,165.5,106.8,165.2z"/>
													<path class="st6" d="M96.6,170.8l7.6-4.1c0.5-0.2,0.6-0.7,0.2-1l-4.4-4.1c-0.3-0.3-1-0.3-1.4-0.1l-7.5,4.1
														c-0.5,0.2-0.6,0.7-0.2,1l4.4,4.1C95.5,171,96.1,171,96.6,170.8z"/>
													<path class="st6" d="M73.7,183.2l20.2-11c0.5-0.3,0.6-0.7,0.2-1l-4.4-4.1c-0.3-0.3-1-0.3-1.4-0.1l-20.1,10.9
														c-0.5,0.3-0.6,0.7-0.3,1l4.3,4.2C72.6,183.4,73.3,183.4,73.7,183.2z"/>
												</g>
												<g>
													<path class="st6" d="M110.7,154.1l47.5-25.6c0.4-0.2,0.5-0.7,0.2-1l-4.6-3.8c-0.3-0.3-1-0.3-1.4-0.1L105.1,149
														c-0.5,0.2-0.6,0.7-0.2,1l4.4,4C109.6,154.3,110.3,154.3,110.7,154.1z"/>
													<path class="st6" d="M172.8,120.5l7.3-3.9c0.4-0.2,0.5-0.7,0.2-0.9l-4.7-3.8c-0.3-0.3-1-0.3-1.4-0.1l-7.2,3.9
														c-0.4,0.2-0.5,0.7-0.2,0.9l4.6,3.8C171.7,120.7,172.4,120.8,172.8,120.5z"/>
													<path class="st6" d="M160.8,127l9.5-5.1c0.4-0.2,0.5-0.7,0.2-0.9l-4.6-3.8c-0.3-0.3-1-0.3-1.4-0.1l-9.4,5.1
														c-0.4,0.2-0.5,0.7-0.2,0.9l4.6,3.8C159.7,127.2,160.3,127.3,160.8,127z"/>
													<path class="st6" d="M95.7,162.2l-7.5,4.1c-0.5,0.2-1.1,0.2-1.4-0.1l-4.3-4.1c-0.3-0.3-0.2-0.7,0.3-1l7.5-4
														c0.5-0.2,1.1-0.2,1.4,0.1l4.4,4C96.3,161.5,96.2,161.9,95.7,162.2z"/>
													<path class="st6" d="M108.1,155.5l-9.7,5.2c-0.5,0.2-1.1,0.2-1.4-0.1l-4.4-4c-0.3-0.3-0.2-0.7,0.2-1l9.7-5.2
														c0.5-0.2,1.1-0.2,1.4,0.1l4.4,4C108.6,154.8,108.5,155.2,108.1,155.5z"/>
													<path class="st6" d="M202.2,104.6l7.2-3.9c0.4-0.2,0.5-0.7,0.2-0.9l-4.8-3.7c-0.3-0.3-1-0.3-1.4-0.1l-7.2,3.9
														c-0.4,0.2-0.5,0.6-0.2,0.9l4.7,3.7C201.1,104.8,201.8,104.9,202.2,104.6z"/>
													<path class="st6" d="M192.5,109.9l7.2-3.9c0.4-0.2,0.5-0.7,0.2-0.9l-4.7-3.7c-0.3-0.3-1-0.3-1.4-0.1l-7.2,3.9
														c-0.4,0.2-0.5,0.7-0.2,0.9l4.7,3.7C191.4,110.1,192,110.1,192.5,109.9z"/>
													<path class="st6" d="M182.6,115.2l7.3-3.9c0.4-0.2,0.5-0.7,0.2-0.9l-4.7-3.7c-0.3-0.3-1-0.3-1.4-0.1l-7.2,3.9
														c-0.4,0.2-0.5,0.7-0.2,0.9l4.7,3.8C181.6,115.4,182.2,115.4,182.6,115.2z"/>
													<path class="st6" d="M67.7,177.3l17.9-9.7c0.5-0.2,0.6-0.7,0.3-1l-4.3-4.1c-0.3-0.3-0.9-0.3-1.4-0.1l-17.8,9.6
														c-0.5,0.2-0.6,0.7-0.3,1l4.3,4.1C66.6,177.5,67.2,177.6,67.7,177.3z"/>
												</g>
												<g>
													<path class="st6" d="M100.7,197.6l-7.7,4.2c-0.5,0.3-0.6,0.7-0.3,1.1l2.3,2.2c0.3,0.3,1,0.4,1.5,0.1l7.8-4.3
														c0.5-0.3,0.6-0.7,0.2-1.1l-2.3-2.2C101.8,197.4,101.1,197.3,100.7,197.6z"/>
													<path class="st6" d="M111.1,191.8l-7.7,4.2c-0.5,0.3-0.6,0.7-0.2,1l2.3,2.2c0.3,0.3,1,0.4,1.5,0.1l7.7-4.2
														c0.5-0.3,0.6-0.7,0.2-1l-2.3-2.1C112.2,191.6,111.6,191.6,111.1,191.8z"/>
													<path class="st6" d="M121.5,186.2l-7.7,4.2c-0.5,0.3-0.6,0.7-0.2,1l2.3,2.1c0.3,0.3,1,0.4,1.5,0.1l7.7-4.2
														c0.5-0.3,0.6-0.7,0.2-1l-2.3-2.1C122.6,185.9,122,185.9,121.5,186.2z"/>
													<path class="st6" d="M131.9,180.5l-7.6,4.2c-0.5,0.3-0.6,0.7-0.2,1l2.3,2.1c0.3,0.3,1,0.4,1.5,0.1l7.7-4.2
														c0.5-0.3,0.6-0.7,0.2-1l-2.3-2.1C133,180.3,132.3,180.2,131.9,180.5z"/>
													<path class="st6" d="M142.2,174.8l-7.6,4.2c-0.5,0.3-0.6,0.7-0.2,1l2.3,2.1c0.3,0.3,1,0.4,1.5,0.1l7.6-4.2
														c0.5-0.3,0.6-0.7,0.2-1l-2.3-2.1C143.3,174.6,142.6,174.6,142.2,174.8z"/>
													<path class="st6" d="M152.4,169.2l-7.6,4.2c-0.5,0.3-0.6,0.7-0.2,1l2.3,2.1c0.3,0.3,1,0.4,1.5,0.1l7.6-4.2
														c0.5-0.3,0.6-0.7,0.2-1l-2.4-2.1C153.6,169,152.9,169,152.4,169.2z"/>
													<path class="st6" d="M162.7,163.6l-7.6,4.1c-0.5,0.3-0.6,0.7-0.2,1l2.4,2.1c0.4,0.3,1,0.4,1.5,0.1l7.6-4.2
														c0.5-0.3,0.6-0.7,0.2-1l-2.4-2.1C163.8,163.4,163.1,163.4,162.7,163.6z"/>
													<path class="st6" d="M172.9,158l-7.5,4.1c-0.5,0.3-0.5,0.7-0.2,1l2.4,2.1c0.4,0.3,1,0.3,1.5,0.1l7.5-4.1
														c0.5-0.3,0.5-0.7,0.2-1l-2.4-2C174,157.8,173.3,157.8,172.9,158z"/>
													<path class="st6" d="M183,152.5l-7.5,4.1c-0.5,0.3-0.5,0.7-0.2,1l2.4,2c0.4,0.3,1,0.3,1.5,0.1l7.5-4.1
														c0.5-0.3,0.5-0.7,0.2-1l-2.4-2C184.1,152.3,183.5,152.2,183,152.5z"/>
													<path class="st6" d="M193.1,146.9l-7.5,4.1c-0.5,0.3-0.5,0.7-0.2,1l2.4,2c0.4,0.3,1,0.3,1.5,0.1l7.5-4.1
														c0.5-0.3,0.5-0.7,0.2-1l-2.4-2C194.2,146.7,193.6,146.7,193.1,146.9z"/>
													<path class="st6" d="M203.2,141.4l-7.4,4.1c-0.5,0.2-0.5,0.7-0.2,1l2.4,2c0.4,0.3,1,0.3,1.5,0.1l7.5-4.1
														c0.5-0.2,0.5-0.7,0.2-1l-2.5-2C204.3,141.2,203.6,141.2,203.2,141.4z"/>
													<path class="st6" d="M213.2,135.9l-7.4,4.1c-0.5,0.2-0.5,0.7-0.2,1l2.5,2c0.4,0.3,1,0.3,1.5,0.1l7.4-4.1
														c0.5-0.2,0.5-0.7,0.2-1l-2.5-2C214.3,135.7,213.7,135.7,213.2,135.9z"/>
													<path class="st6" d="M223.2,130.5l-7.4,4c-0.5,0.2-0.5,0.7-0.2,1l2.5,2c0.4,0.3,1,0.3,1.5,0.1l7.4-4.1
														c0.5-0.2,0.5-0.7,0.1-1l-2.5-2C224.3,130.3,223.7,130.2,223.2,130.5z"/>
													<path class="st6" d="M237.6,122.6l-11.8,6.5c-0.5,0.2-0.5,0.7-0.1,1l2.5,2c0.4,0.3,1,0.3,1.5,0.1l11.9-6.5
														c0.4-0.2,0.5-0.7,0.1-1l-2.5-1.9C238.8,122.3,238.1,122.3,237.6,122.6z"/>
												</g>
											</g>
											<path class="st21" d="M116.7,102.6l-23.4,12.4c-0.6,0.3-1.5,0.3-1.8,0l25.7-13.6C117.5,101.8,117.3,102.3,116.7,102.6z"
												/>
											<polygon class="st21" points="237.6,133.7 109.5,204.2 110.6,205.2 238.8,134.7 											"/>
										</g>
										<path class="st25" d="M52.3,176.5L87.6,211c2.5,2.5,7.5,2.8,11,0.9l151.6-83.4c3.4-1.9,3.8-5.1,1-7.3l-39.9-30.4
											L52.3,176.5z"/>
									</g>
								</g>
								<g class="st26">
									<g>
										<text transform="matrix(0.8709 -0.5028 0 1 144.0076 141.4557)" class="st27 st28 st29">1</text>
										<g>
											<path class="st30" d="M142,132.3v-16.8c0-1.4,1.2-3.1,2.4-3.8l13.4-7.7c1.2-0.7,2.2-0.3,2.2,1.1v16.8L142,132.3z"/>
											<path class="st30" d="M160,121.9v16.5c0,1.4-1,3.3-2.2,4l-13.4,7.7c-1.2,0.7-2.4,0.1-2.4-1.3v-16.5L160,121.9z"/>
										</g>
									</g>
									<g>
										<text transform="matrix(0.8709 -0.5028 0 1 163.6226 130.131)" class="st27 st28 st29">0</text>
										<g>
											<path class="st30" d="M161.6,121v-16.8c0-1.4,1.2-3.1,2.4-3.8l13.4-7.7c1.2-0.7,2.2-0.3,2.2,1.1v16.8L161.6,121z"/>
											<path class="st30" d="M179.6,110.6V127c0,1.4-1,3.3-2.2,4l-13.4,7.7c-1.2,0.7-2.4,0.1-2.4-1.3V121L179.6,110.6z"/>
										</g>
									</g>
									<g>
										<text transform="matrix(0.8709 -0.5028 0 1 184.7632 117.9255)" class="st27 st28 st29">0</text>
										<g>
											<path class="st30" d="M182.9,108.7V91.9c0-1.4,1-3,2.2-3.7l13.4-7.7c1.2-0.7,2.4-0.4,2.4,1v16.8L182.9,108.7z"/>
											<path class="st30" d="M200.9,98.3v16.5c0,1.4-1.1,3.4-2.4,4.1l-13.4,7.7c-1.2,0.7-2.2,0-2.2-1.4v-16.5L200.9,98.3z"/>
										</g>
									</g>
									<g>
										<text transform="matrix(0.8709 -0.5028 0 1 204.3799 106.5999)" class="st27 st28 st29">1</text>
										<g>
											<path class="st30" d="M202.5,97.3V80.6c0-1.4,1-3,2.2-3.7l13.4-7.7c1.2-0.7,2.4-0.4,2.4,1V87L202.5,97.3z"/>
											<path class="st30" d="M220.5,87v16.5c0,1.4-1.1,3.4-2.4,4.1l-13.4,7.7c-1.2,0.7-2.2,0-2.2-1.4V97.3L220.5,87z"/>
										</g>
									</g>
									<path class="st30" d="M140.3,132.5v1.3c0,1.2,0.8,1.7,1.7,1.5V129C141.2,129.8,140.3,131.3,140.3,132.5z"/>
									<polygon class="st30" points="160,118.6 160,124.8 161.6,123.8 161.6,117.6 									"/>
									<polygon class="st30" points="179.6,107.2 179.6,113.5 182.9,111.5 182.9,105.3 									"/>
									<polygon class="st30" points="200.9,94.9 200.9,101.2 202.5,100.2 202.5,94 									"/>
									<path class="st30" d="M222.2,86.5v-1.3c0-1.2-0.8-1.7-1.7-1.5v6.2C221.3,89.2,222.2,87.7,222.2,86.5z"/>
								</g>
								<g>
									<polygon class="st31" points="229.2,131.1 134.9,76.6 249.8,10.3 249.8,119.2 									"/>
								</g>
							</g>
						</g>
					</g>
					<g>
						<path class="st10" d="M295.2,213.3l-20.7-11.9c-1.2-0.7-3.2-0.7-4.5,0l-50.1,28.9c-1.2,0.7-1.2,1.9,0,2.6l20.7,11.9
							L295.2,213.3z"/>
						<g>
							<path class="st10" d="M268.3,229.8l-26.9,15.5l11.2,6.5c1.2,0.7,3.2,0.7,4.5,0l24.6-14.2L268.3,229.8z"/>
							<path class="st10" d="M269.2,229.4l13.4,7.8l24.6-14.2c1.2-0.7,1.2-1.9,0-2.6l-11.2-6.5L269.2,229.4z"/>
						</g>
					</g>
					<g>
						<path class="st32" d="M219.9,231.5l50.1-28.9c1.2-0.7,3.2-0.7,4.5,0l19.7,11.4l1-0.6l-20.7-11.9c-1.2-0.7-3.2-0.7-4.5,0
							l-50.1,28.9c-0.9,0.5-1.1,1.2-0.8,1.9C219.3,231.9,219.6,231.7,219.9,231.5z"/>
						<g>
							<polygon class="st32" points="268.3,231 280.8,238.2 281.8,237.6 268.3,229.8 241.5,245.4 242.4,245.9 							"/>
							<path class="st32" d="M296.1,215l11.2,6.5c0.4,0.2,0.6,0.5,0.8,0.7c0.4-0.6,0.1-1.3-0.8-1.8l-11.2-6.5l-26.9,15.5l1,0.6
								L296.1,215z"/>
						</g>
					</g>
				</g>
			</g>
		</g>
		<g>
			<path class="st8" d="M177.5,334.5l-51.7,29.8l-77.3-44.9l51.7-29.8c2.5-1.4,6.8-1.2,9.6,0.4l67,38.6
				C179.7,330.2,180,332.7,177.5,334.5z"/>
			<g>
				<path class="st33" d="M177.5,332.4l-51.7,29.8l-77.3-44.5l0,0v0.9l77.3,44.5l51.7-29.8c1.1-0.6,1.6-1.4,1.6-2.3l0-1
					C179.2,330,179.3,331.3,177.5,332.4z"/>
				<g>
					<path class="st23" d="M177.5,332.4l-51.7,29.8l-77.3-44.5l51.7-29.8c2.5-1.4,6.8-1.2,9.6,0.4l67,38.6
						C179.7,328.5,180,331,177.5,332.4z"/>
				</g>
			</g>
			<g>
				<path class="st33" d="M177.5,323l-51.7,29.8l-77.3-44.5l0,0v0.9l77.3,44.5l51.7-29.8c1.1-0.6,1.6-1.4,1.6-2.3l0-1
					C179.2,320.6,179.3,322,177.5,323z"/>
				<g>
					<path class="st2" d="M177.5,323l-51.7,29.8l-77.3-44.5l51.7-29.8c2.5-1.4,6.8-1.2,9.6,0.4l67,38.6
						C179.7,319.1,180,321.6,177.5,323z"/>
				</g>
			</g>
			<g>
				<polygon class="st3" points="125.8,363.1 125.8,352.9 48.5,308.3 48.5,318.6 				"/>
				<polygon class="st33" points="125.8,363.1 126.5,362.7 126.5,352.5 125.8,352.9 				"/>
			</g>
			<g>
				<polygon class="st9" points="126.5,360.6 177.5,331.2 177.5,323.9 126.5,353.3 				"/>
				<polygon class="st8" points="177.5,325 126.5,354.4 126.5,353.3 177.5,323.9 				"/>
			</g>
			<g>
				<path class="st27" d="M160.8,326.8c-0.4,0.2-0.9,0.5-1.5,0.7c-0.1,0.1-0.2,0.1-0.3,0.2c-0.9,0.5-1.5,0.7-2,0.8
					c-2.2,0.8-4.2,1.1-6.1,0.8c-1.8-0.3-3.4-1.1-4.5-2.3c-0.6-0.6-1.1-1.6-1.5-2.6c-1.3,0.4-2.6,0.5-4.1,0.5c-0.8,0-1.5,0-2.2-0.2
					c-2.5-0.4-4.8-1.2-6.2-1.8c-1.3-0.5-2.2-1-2.7-1.5c-0.3-0.3-0.8-1,0.1-1.5c0.2-0.1,0.6-0.3,1-0.3c0.3-0.1,0.6-0.1,1-0.2
					c7.1-1.2,12.2-0.3,14.6,0.3c0.1-0.1,0.3-0.2,0.4-0.3c0.1-0.1,0.2-0.1,0.3-0.2c0.2-0.1,0.5-0.2,0.7-0.3c-0.7-1.4-1.6-4.5,1.4-8.4
					c0.1-0.2,0.3-0.4,0.4-0.5c0.1-0.2,0.3-0.3,0.5-0.4c0.3-0.2,1.4-0.7,2.8,0c0.8,0.4,1.5,0.9,2.2,1.7c0.9,0.9,2,2.3,2.2,3.8
					c0.1,0.4,0.1,0.8,0,1.3c-0.1,0.8-0.6,1.6-1.3,2.2c1.7,0.3,3.2,0.8,4.2,1.2c1.9,0.8,3.1,1.8,3.3,2.8c0.2,1.1-0.4,2.2-1.9,3.3
					C161.4,326.4,161.1,326.6,160.8,326.8z"/>
				<g>
					<g>
						<g>
							<path class="st34" d="M151.9,310.5c-0.5-0.2-0.8-0.2-1,0.1c-1.4,1.6-1.9,5.2,1.1,8c1.3,1.2,4.5-1.3,3.8-3.1
								C155.2,313.8,153.7,311.3,151.9,310.5z"/>
						</g>
						<g>
							<path class="st34" d="M131,321.1c-0.3-0.3-0.3-0.5,0.3-0.6c3-0.6,9.2-0.4,13.6,1.7c1.9,0.9-2.8,2.4-5.9,1.8
								C136.3,323.4,132.1,322.2,131,321.1z"/>
						</g>
						<path class="st27" d="M158.3,326.9c-0.7,0.5-1.5,0.8-1.9,0.8c-1.7,0-5.9-2.6-0.9-2.6c1.3-2.5,4.6,0,4.6,0.7
							C160.2,326,159.2,326.5,158.3,326.9z"/>
					</g>
					<g>
						<g>
							<path class="st35" d="M131.2,320.6c0.5-0.2,1.1-0.3,1.7-0.3c0.6,0,1.2-0.2,1.7-0.2c0.6,0,1.2,0,1.8,0.1c0.6,0,1.2,0,1.7,0.2
								c1.2,0.2,2.3,0.3,3.4,0.7c1.1,0.3,2.2,0.8,3.3,1.3c-1.1-0.3-2.2-0.7-3.3-1c-1.1-0.3-2.3-0.4-3.4-0.6
								c-0.6-0.1-1.1-0.2-1.7-0.2c-0.6,0-1.2-0.1-1.7-0.1c-0.6-0.1-1.2,0-1.7,0C132.3,320.5,131.8,320.5,131.2,320.6z"/>
						</g>
					</g>
					<g>
						<g>
							<path class="st35" d="M151,310.6c-0.2,0.3-0.5,0.5-0.6,0.9c-0.1,0.3-0.2,0.7-0.3,1c-0.1,0.7-0.1,1.5,0,2.2
								c0.1,0.7,0.4,1.4,0.7,2c0.3,0.7,0.7,1.3,1.1,1.9c-0.5-0.6-1-1.1-1.3-1.8c-0.4-0.6-0.7-1.4-0.8-2.1c-0.1-0.8-0.1-1.5,0.1-2.3
								c0.1-0.4,0.2-0.7,0.4-1.1C150.4,311,150.7,310.8,151,310.6z"/>
						</g>
					</g>
					<g>
						<line class="st36" x1="155.6" y1="325.1" x2="156" y2="325.4"/>
						<g>
							<path class="st35" d="M155.9,324.6c0,0.2-0.1,0.4-0.2,0.6c0,0-0.1,0-0.1,0c-0.3,0-0.7,0-1-0.1c0.3-0.1,0.7-0.1,1-0.1l-0.1,0
								C155.6,324.9,155.7,324.7,155.9,324.6z"/>
						</g>
					</g>
					<g>
						<path class="st35" d="M154.4,325.5c0.5-0.1,0.9-0.2,1.4-0.3c0.2-0.1,0.4-0.2,0.6-0.3c0.2-0.1,0.4-0.2,0.4-0.5
							c0.1,0.3-0.1,0.5-0.3,0.7c-0.2,0.2-0.4,0.3-0.7,0.4C155.4,325.7,154.9,325.7,154.4,325.5z"/>
					</g>
					<g>
						<path class="st37" d="M156.3,323.5c0,0,0.5-1.2,2.4-1.1"/>
						<path class="st35" d="M156.3,323.5c0.1-0.5,0.5-0.9,0.9-1.1c0.2-0.1,0.5-0.1,0.7-0.1c0.2,0,0.5,0,0.7,0.1
							c-0.5,0.1-0.9,0.2-1.3,0.4C157,323,156.6,323.2,156.3,323.5z"/>
					</g>
					<g>
						<path class="st37" d="M152.7,325.2c0,0-2.1-0.2-2.7,0.8"/>
						<path class="st35" d="M152.7,325.2c-0.5,0.1-1,0.2-1.4,0.3c-0.2,0-0.5,0.1-0.7,0.2c-0.2,0.1-0.4,0.2-0.6,0.4
							c0-0.3,0.2-0.5,0.5-0.6c0.2-0.2,0.5-0.2,0.7-0.3C151.7,325,152.2,325,152.7,325.2z"/>
					</g>
					<path class="st34" d="M158.6,324.2c0.3,0.2,0.7,0.2,1,0c0.3-0.1,0.3-0.4,0.1-0.6c-0.2-0.2-0.7-0.2-1,0
						C158.4,323.8,158.4,324,158.6,324.2z"/>
					<path class="st34" d="M151.7,326.9c0.2,0.2,0.7,0.2,1,0c0.3-0.1,0.3-0.4,0.1-0.6c-0.2-0.2-0.7-0.2-1,0
						C151.5,326.5,151.4,326.7,151.7,326.9z"/>
				</g>
				<g>
					<g>
						<g>
							<path class="st13" d="M151.9,310.5c-0.5-0.2-0.8-0.2-1,0.1c-1.4,1.6-1.9,5.2,1.1,8c1.3,1.2,4.5-1.3,3.8-3.1
								C155.2,313.8,153.7,311.3,151.9,310.5z"/>
						</g>
						<g>
							<path class="st13" d="M131,321.1c-0.3-0.3-0.3-0.5,0.3-0.6c3-0.6,9.2-0.4,13.6,1.7c1.9,0.9-2.8,2.4-5.9,1.8
								C136.3,323.4,132.1,322.2,131,321.1z"/>
						</g>
						<path class="st27" d="M158.3,326.9c-0.7,0.5-1.5,0.8-1.9,0.8c-1.7,0-5.9-2.6-0.9-2.6c1.3-2.5,4.6,0,4.6,0.7
							C160.2,326,159.2,326.5,158.3,326.9z"/>
					</g>
					<g>
						<g>
							<path class="st38" d="M131.2,320.6c1.1-0.4,2.3-0.3,3.5-0.4c0.6,0,1.2-0.1,1.8,0c0.6,0,1.2,0.1,1.7,0.2
								c1.2,0.2,2.3,0.5,3.4,0.7c1.1,0.3,2.2,0.8,3.3,1.2c-1.1-0.3-2.2-0.7-3.4-1c-1.1-0.2-2.3-0.5-3.4-0.6
								c-1.1-0.2-2.3-0.3-3.5-0.2C133.5,320.4,132.3,320.3,131.2,320.6z"/>
						</g>
					</g>
					<g>
						<g>
							<path class="st38" d="M151,310.5c-0.2,0.3-0.5,0.6-0.6,0.9c-0.1,0.4-0.2,0.7-0.3,1c-0.1,0.7-0.1,1.4,0,2.1
								c0.1,0.7,0.4,1.4,0.7,2.1c0.1,0.3,0.3,0.7,0.5,1l0.6,0.9c-0.5-0.6-1-1.1-1.3-1.8c-0.3-0.7-0.6-1.4-0.8-2.1
								c-0.1-0.7-0.2-1.5,0-2.3c0.1-0.4,0.3-0.7,0.4-1.1C150.4,311,150.7,310.8,151,310.5z"/>
						</g>
					</g>
					<g>
						<line class="st39" x1="155.6" y1="325.1" x2="156" y2="325.4"/>
						<g>
							<path class="st38" d="M155.9,324.6c0,0.2-0.1,0.4-0.2,0.6l0,0.1l-0.1,0c-0.3,0-0.7,0-1-0.1c0.3-0.1,0.7-0.1,1-0.2l-0.1,0.1
								C155.5,324.8,155.7,324.7,155.9,324.6z"/>
						</g>
					</g>
					<g>
						<path class="st38" d="M154.4,325.5c0.5-0.1,0.9-0.2,1.4-0.3c0.2-0.1,0.4-0.2,0.6-0.3c0.2-0.1,0.4-0.2,0.4-0.5
							c0.1,0.3-0.1,0.5-0.3,0.7c-0.2,0.2-0.4,0.3-0.7,0.4c-0.2,0.1-0.5,0.1-0.7,0.2C154.9,325.6,154.7,325.6,154.4,325.5z"/>
					</g>
					<g>
						<path class="st38" d="M156.3,323.5c0.1-0.5,0.5-0.8,1-1c0.2-0.1,0.5-0.1,0.7-0.1c0.2,0,0.5,0,0.7,0.1
							c-0.5,0.1-0.9,0.2-1.3,0.3C156.9,322.9,156.6,323.2,156.3,323.5z"/>
					</g>
					<g>
						<path class="st38" d="M152.7,325.2c-0.5,0.1-1,0.1-1.4,0.2c-0.5,0.1-0.9,0.2-1.3,0.6c0.1-0.2,0.3-0.5,0.5-0.6
							c0.2-0.2,0.5-0.2,0.7-0.3C151.7,325,152.2,325,152.7,325.2z"/>
					</g>
					<path class="st13" d="M158.6,324.2c0.3,0.2,0.7,0.2,1,0c0.3-0.1,0.3-0.4,0.1-0.6c-0.2-0.2-0.7-0.2-1,0
						C158.4,323.8,158.4,324,158.6,324.2z"/>
					<path class="st13" d="M151.7,326.9c0.2,0.2,0.7,0.2,1,0c0.3-0.1,0.3-0.4,0.1-0.6c-0.2-0.2-0.7-0.2-1,0
						C151.5,326.5,151.4,326.7,151.7,326.9z"/>
				</g>
			</g>
			<g>
				<polygon class="st8" points="172.8,325.5 167.9,328.4 90.9,283.9 95.8,281 				"/>
				<polygon class="st13" points="173,325.4 168.1,328.2 91.1,283.7 96,280.8 				"/>
				<g>
					<polygon class="st14" points="173,334.3 168.1,337.2 168.1,328.3 173,325.4 					"/>
				</g>
			</g>
			<line class="st40" x1="114.8" y1="344.7" x2="114.8" y2="356.8"/>
			<line class="st40" x1="110" y1="339.9" x2="110" y2="354"/>
		</g>
		<g>
			<path class="st8" d="M391.7,168.1c-2.6-16.2-36.2-33.4-54.2-28.3c-2.7,0.8-5.3,2.6-7.1,3.7c-6,3.7-5.5,10.2,1.6,14.3l30.3,17.5
				c7,4.1,17.7,4.5,23.8,1l1.6-0.9C391,173.3,392.3,170.7,391.7,168.1z"/>
			<g>
				<path class="st6" d="M391.9,165.6c-0.1,2.1-1.4,4.2-4.1,5.7l-1.6,0.9c-6.1,3.5-16.7,3.1-23.8-1l-30.3-17.5
					c-3.7-2.2-5.7-4.9-5.8-7.5h0l0,2.6c0.1,2.7,2,5.4,5.8,7.6l30.3,17.5c7,4.1,17.7,4.5,23.8,1l1.6-0.9c2.7-1.6,4-3.6,4.1-5.8
					L391.9,165.6L391.9,165.6z"/>
				<g>
					<path class="st21" d="M391.9,165.1c0,0.3,0.7,3.9-5.8,7.2l0,0c-6.1,3.5-16.7,3.1-23.8-1l-30.3-17.5c-3.5-2-5.4-4.5-5.8-6.9
						c0.1,2.6,2.1,5.4,5.8,7.5l30.3,17.5c7,4.1,17.7,4.5,23.8,1l1.6-0.9c2.7-1.6,4-3.6,4.1-5.8L391.9,165.1z"/>
				</g>
				<path class="st9" d="M391.8,164.2c-2.6-16.2-36.2-33.4-54.2-28.3c-2.7,0.8-5.3,2.6-7.1,3.7c-6,3.7-5.5,10.2,1.6,14.3l30.3,17.5
					c7,4.1,17.7,4.5,23.8,1l1.6-0.9C391,169.4,392.3,166.8,391.8,164.2z"/>
			</g>
		</g>
		<g>
			<g>
				<path class="st41" d="M305.5,113.6c9.2,5.3,9.2,14-0.1,19.4c-9.3,5.4-24.3,5.4-33.6,0.1c-9.2-5.3-9.2-14,0.1-19.4
					C281.2,108.3,296.3,108.3,305.5,113.6z"/>
				<g>
					<path class="st14" d="M312.4,121.8c0,0,0-38.6,0-38.6h-47.5l0,38.6c0,3.5,2.3,7,6.9,9.7c9.2,5.3,24.3,5.3,33.6-0.1
						C310.1,128.8,312.4,125.3,312.4,121.8L312.4,121.8L312.4,121.8z"/>
					<path class="st13" d="M287.9,83.1h-22.9l0,38.6c0,3.5,2.3,7,6.9,9.7c4.4,2.6,10.2,3.9,16,4V83.1z"/>
					<path class="st42" d="M305.5,73.4c9.2,5.3,9.2,14-0.1,19.4c-9.3,5.4-24.3,5.4-33.6,0.1c-9.2-5.3-9.2-14,0.1-19.4
						C281.2,68.1,296.3,68.1,305.5,73.4z"/>
				</g>
			</g>
			<g>
				<defs>
					<path id="SVGID_1_" d="M309.5,46.2c11.4,4.6,2.3,42.2-6,47c-8.2,4.8-21.6,4.8-29.7,0.1c-8.2-4.7-17.3-42.4-5.8-47
						C279.5,41.6,298.1,41.6,309.5,46.2z"/>
				</defs>
				<clipPath id="SVGID_2_">
					<use xlink:href="#SVGID_1_"  style="overflow:visible;"/>
				</clipPath>
				<g class="st43">
					<g>
						<path class="st44" d="M277.7,53.5l-4.7-6.3c0,0,0,0-0.1,0c-0.1,0-0.2,0-0.2,0.1c0,0,0,0,0,0.1l0.1,7.9L277.7,53.5z"/>
						<path class="st23" d="M272.9,47.2C272.9,47.2,272.9,47.2,272.9,47.2l2.3,7.2l2.5-0.9L272.9,47.2C273,47.2,273,47.2,272.9,47.2
							z"/>
						<g>
							<path class="st44" d="M278.1,53.8L278.1,53.8c-0.1-0.4-0.5-0.8-1.2-0.9c-1.3-0.3-3,0.3-3.8,1.3c-0.4,0.5-0.6,1-0.4,1.4l0,0
								l25,73.6l5.5-1.6L278.1,53.8z"/>
							<path class="st23" d="M300.3,128.4l2.8-0.8l-25-73.8l0,0c-0.1-0.4-0.5-0.8-1.2-0.9c-0.6-0.1-1.4,0-2.1,0.2L300.3,128.4z"/>
							<path class="st45" d="M301.9,126.7c1.3,0.3,1.6,1.2,0.8,2.2c-0.8,1-2.6,1.5-3.8,1.3c-1.3-0.3-1.6-1.2-0.8-2.2
								C298.9,127.1,300.7,126.5,301.9,126.7z"/>
						</g>
					</g>
				</g>
				<g class="st43">
					<g>
						<path class="st12" d="M291.8,52.2l-1.9-7.6c0,0,0,0,0-0.1c-0.1,0-0.2,0-0.2,0c0,0,0,0,0,0l-3,7.3L291.8,52.2z"/>
						<path class="st11" d="M289.8,44.5C289.8,44.5,289.8,44.5,289.8,44.5l-0.6,7.5l2.6,0.2L289.8,44.5
							C289.8,44.6,289.8,44.6,289.8,44.5z"/>
						<g>
							<path class="st12" d="M292,52.6L292,52.6c0.1-0.4-0.2-0.9-0.8-1.3c-1.1-0.7-2.9-0.9-4.1-0.3c-0.6,0.3-0.9,0.7-0.9,1.1l0,0
								l-5.6,77.5l5.6,0.7L292,52.6z"/>
							<path class="st11" d="M283.5,130l2.8,0.4l5.6-77.7l0,0c0.1-0.4-0.2-0.9-0.8-1.3c-0.5-0.4-1.3-0.6-2-0.6L283.5,130z"/>
							<path class="st46" d="M285.6,129.1c1.1,0.7,1,1.8-0.2,2.3c-1.2,0.6-3,0.4-4-0.3c-1.1-0.7-1-1.8,0.2-2.3
								C282.7,128.2,284.5,128.4,285.6,129.1z"/>
						</g>
					</g>
				</g>
				<g class="st43">
					<g>
						<path class="st3" d="M299,52.5l-2-7.6c0,0,0,0,0-0.1c-0.1,0-0.2,0-0.2,0c0,0,0,0,0,0l-2.9,7.4L299,52.5z"/>
						<path class="st2" d="M296.9,44.9C296.9,44.8,296.9,44.8,296.9,44.9l-0.5,7.5l2.6,0.1L296.9,44.9
							C296.9,44.9,296.9,44.9,296.9,44.9z"/>
						<g>
							<path class="st3" d="M299.2,52.9L299.2,52.9c0-0.4-0.2-0.9-0.8-1.3c-1.1-0.7-2.9-0.8-4.1-0.2c-0.6,0.3-0.9,0.7-0.9,1.1l0,0
								l-4.4,77.6l5.7,0.6L299.2,52.9z"/>
							<path class="st2" d="M291.8,130.4l2.8,0.3l4.5-77.8l0,0c0-0.4-0.2-0.9-0.8-1.3c-0.5-0.4-1.3-0.6-2-0.6L291.8,130.4z"/>
							<path class="st47" d="M293.9,129.5c1.1,0.7,1,1.8-0.1,2.3c-1.1,0.6-3,0.5-4-0.2c-1.1-0.7-1-1.8,0.1-2.3
								C291,128.6,292.8,128.8,293.9,129.5z"/>
						</g>
					</g>
				</g>
			</g>
		</g>
		<g>
			
				<ellipse transform="matrix(1 -5.422589e-03 5.422589e-03 1 -1.5179 0.1263)" class="st15" cx="22.5" cy="280" rx="22.2" ry="12.8"/>
			<g>
				<path class="st13" d="M44.8,278.5c0,0,0-36.2,0-36.2H0.3l0,36.2c0,3.3,2.1,6.6,6.5,9.1c8.7,5,22.7,5,31.5-0.1
					C42.6,285.1,44.7,281.8,44.8,278.5L44.8,278.5L44.8,278.5z"/>
				<path class="st6" d="M38.3,233.2c8.7,5,8.6,13.1-0.1,18.2s-22.8,5.1-31.5,0.1c-8.7-5-8.6-13.1,0.1-18.2
					C15.6,228.2,29.7,228.2,38.3,233.2z"/>
				<path class="st42" d="M38.3,239.2c-8.7-5-22.7-5-31.5,0.1c-3,1.8-5,3.9-5.9,6.1c0.9,2.2,2.8,4.3,5.8,6c8.7,5,22.7,5,31.5-0.1
					c3-1.8,5-3.9,5.9-6.1C43.2,243,41.3,240.9,38.3,239.2z"/>
				<g>
					<path class="st14" d="M38.3,233.2c1.4,0.8,2.8,1.7,4,2.9c1.1,1.2,2.1,2.7,2.5,4.3c0.4,1.7,0.2,3.5-0.4,5.1
						c-0.7,1.6-1.8,3-3,4.1c-2.6,2.2-5.7,3.7-8.9,4.6c-3.2,0.9-6.6,1.4-10,1.4c-3.4,0-6.7-0.5-10-1.4c-3.2-0.9-6.4-2.4-8.9-4.6
						c-1.2-1.2-2.3-2.5-3-4.1c-0.7-1.6-0.8-3.4-0.3-5.1c0.5-1.7,1.4-3.1,2.6-4.3c1.2-1.2,2.6-2.1,4-2.9c-1.4,0.9-2.7,1.9-3.8,3.1
						c-1.1,1.2-1.9,2.7-2.2,4.2c-0.4,1.6-0.2,3.2,0.5,4.6c0.6,1.5,1.7,2.7,2.9,3.8c2.5,2,5.5,3.5,8.6,4.3c3.1,0.9,6.4,1.2,9.7,1.2
						c3.3,0,6.5-0.4,9.7-1.3c3.1-0.8,6.1-2.3,8.6-4.3c1.2-1.1,2.3-2.3,2.9-3.7c0.7-1.4,0.9-3.1,0.6-4.6c-0.3-1.6-1.1-3-2.2-4.3
						C41,235.1,39.7,234.1,38.3,233.2z"/>
				</g>
				<g>
					<g>
						<rect x="27.7" y="180.6" class="st16" width="1" height="62.6"/>
					</g>
					<g>
						<path class="st16" d="M31.4,172.1c0,4.5-3.2,10.4-3.2,10.4s-3.2-6-3.2-10.4s1.4-5.8,3.2-5.8C30,166.3,31.4,167.6,31.4,172.1z"
							/>
					</g>
					<g>
						<path class="st16" d="M22.9,179.1c3.2,3.1,5.3,9.5,5.3,9.5s-6.5-1.8-9.8-4.9s-3.2-5-1.9-6.3C17.7,176.2,19.6,176,22.9,179.1z"
							/>
					</g>
					<g>
						<path class="st16" d="M33.5,179.1c-3.2,3.1-5.3,9.5-5.3,9.5s6.5-1.8,9.8-4.9s3.2-5,1.9-6.3C38.6,176.2,36.7,176,33.5,179.1z"
							/>
					</g>
					<g>
						<path class="st16" d="M22.9,190c3.2,3.1,5.3,9.5,5.3,9.5s-6.5-1.8-9.8-4.9c-3.2-3.1-3.2-5-1.9-6.3
							C17.7,187.1,19.6,186.9,22.9,190z"/>
					</g>
					<g>
						<path class="st16" d="M33.5,190c-3.2,3.1-5.3,9.5-5.3,9.5s6.5-1.8,9.8-4.9c3.2-3.1,3.2-5,1.9-6.3
							C38.6,187.1,36.7,186.9,33.5,190z"/>
					</g>
					<g>
						<path class="st16" d="M22.9,202.1c3.2,3.1,5.3,9.5,5.3,9.5s-6.5-1.8-9.8-4.9c-3.2-3.1-3.2-5-1.9-6.3
							C17.7,199.2,19.6,199,22.9,202.1z"/>
					</g>
					<g>
						<path class="st16" d="M33.5,202.1c-3.2,3.1-5.3,9.5-5.3,9.5s6.5-1.8,9.8-4.9c3.2-3.1,3.2-5,1.9-6.3
							C38.6,199.2,36.7,199,33.5,202.1z"/>
					</g>
					<g>
						<path class="st16" d="M22.9,214.1c3.2,3.1,5.3,9.5,5.3,9.5s-6.5-1.8-9.8-4.9c-3.2-3.1-3.2-5-1.9-6.3
							C17.7,211.2,19.6,211.1,22.9,214.1z"/>
					</g>
					<g>
						<path class="st16" d="M33.5,214.1c-3.2,3.1-5.3,9.5-5.3,9.5s6.5-1.8,9.8-4.9c3.2-3.1,3.2-5,1.9-6.3
							C38.6,211.2,36.7,211.1,33.5,214.1z"/>
					</g>
					<g>
						<path class="st16" d="M22.9,226.2c3.2,3.1,5.3,9.5,5.3,9.5s-6.5-1.8-9.8-4.9c-3.2-3.1-3.2-5-1.9-6.3
							C17.7,223.3,19.6,223.1,22.9,226.2z"/>
					</g>
					<g>
						<path class="st16" d="M33.5,226.2c-3.2,3.1-5.3,9.5-5.3,9.5s6.5-1.8,9.8-4.9c3.2-3.1,3.2-5,1.9-6.3
							C38.6,223.3,36.7,223.1,33.5,226.2z"/>
					</g>
				</g>
				<g>
					<g>
						<rect x="19.6" y="185.7" class="st2" width="1" height="62.6"/>
					</g>
					<g>
						<path class="st2" d="M23.3,177.2c0,4.5-3.2,10.4-3.2,10.4s-3.2-6-3.2-10.4c0-4.5,1.4-5.8,3.2-5.8
							C21.9,171.5,23.3,172.8,23.3,177.2z"/>
					</g>
					<g>
						<path class="st2" d="M14.8,184.3c3.2,3.1,5.3,9.5,5.3,9.5s-6.5-1.8-9.8-4.9c-3.2-3.1-3.2-5-1.9-6.3
							C9.6,181.4,11.6,181.2,14.8,184.3z"/>
					</g>
					<g>
						<path class="st2" d="M25.4,184.3c-3.2,3.1-5.3,9.5-5.3,9.5s6.5-1.8,9.8-4.9c3.2-3.1,3.2-5,1.9-6.3
							C30.6,181.4,28.6,181.2,25.4,184.3z"/>
					</g>
					<g>
						<path class="st2" d="M14.8,195.2c3.2,3.1,5.3,9.5,5.3,9.5s-6.5-1.8-9.8-4.9c-3.2-3.1-3.2-5-1.9-6.3
							C9.6,192.3,11.6,192.1,14.8,195.2z"/>
					</g>
					<g>
						<path class="st2" d="M25.4,195.2c-3.2,3.1-5.3,9.5-5.3,9.5s6.5-1.8,9.8-4.9c3.2-3.1,3.2-5,1.9-6.3
							C30.6,192.3,28.6,192.1,25.4,195.2z"/>
					</g>
					<g>
						<path class="st2" d="M14.8,207.2c3.2,3.1,5.3,9.5,5.3,9.5s-6.5-1.8-9.8-4.9s-3.2-5-1.9-6.3C9.6,204.3,11.6,204.2,14.8,207.2z"
							/>
					</g>
					<g>
						<path class="st2" d="M25.4,207.2c-3.2,3.1-5.3,9.5-5.3,9.5s6.5-1.8,9.8-4.9c3.2-3.1,3.2-5,1.9-6.3
							C30.6,204.3,28.6,204.2,25.4,207.2z"/>
					</g>
					<g>
						<path class="st2" d="M14.8,219.3c3.2,3.1,5.3,9.5,5.3,9.5s-6.5-1.8-9.8-4.9s-3.2-5-1.9-6.3C9.6,216.4,11.6,216.2,14.8,219.3z"
							/>
					</g>
					<g>
						<path class="st2" d="M25.4,219.3c-3.2,3.1-5.3,9.5-5.3,9.5s6.5-1.8,9.8-4.9c3.2-3.1,3.2-5,1.9-6.3
							C30.6,216.4,28.6,216.2,25.4,219.3z"/>
					</g>
					<g>
						<path class="st2" d="M14.8,231.4c3.2,3.1,5.3,9.5,5.3,9.5s-6.5-1.8-9.8-4.9c-3.2-3.1-3.2-5-1.9-6.3
							C9.6,228.4,11.6,228.3,14.8,231.4z"/>
					</g>
					<g>
						<path class="st2" d="M25.4,231.4c-3.2,3.1-5.3,9.5-5.3,9.5s6.5-1.8,9.8-4.9c3.2-3.1,3.2-5,1.9-6.3
							C30.6,228.4,28.6,228.3,25.4,231.4z"/>
					</g>
				</g>
			</g>
		</g>
		<path class="st2" d="M483.7,107.4v4.3L442,135.5v0c0-2.9-3.2-4.8-5.7-3.3l-16.8,9.5v13.8l80.8-45.9V95.8l-14.7,8.3
			C484.4,104.8,483.7,106,483.7,107.4z"/>
	</g>
</g>
<g id="DESIGNED_BY_FREEPIK">
</g>
</svg>
