<svg xmlns="http://www.w3.org/2000/svg" xmlns:xlink="http://www.w3.org/1999/xlink" viewBox="0 0 2937 1456"><defs><style>.cls-1{fill:none;}.cls-2{fill:#fff;}.cls-3{opacity:0.8;fill:url(#puntitos);}</style><pattern id="puntitos" data-name="puntitos" width="195" height="168" patternUnits="userSpaceOnUse" viewBox="0 0 195 168"><rect class="cls-1" width="195" height="168"/><path class="cls-2" d="M194.54,154.28l-.28.46c-.5.8.77,1.55,1.27.74l.29-.46c.5-.81-.78-1.55-1.28-.74Z"/><path class="cls-2" d="M182.13,96.52l-.49-.25c-.83-.45-1.58.82-.74,1.27l.49.26c.83.44,1.58-.83.74-1.28Z"/><path class="cls-2" d="M171.68,138.89a.74.74,0,0,0,0-1.48.74.74,0,0,0,0,1.48Z"/><path class="cls-2" d="M84.63,138.52l-.49-.25c-.83-.45-1.58.82-.74,1.27l.49.26c.83.44,1.58-.83.74-1.28Z"/><path class="cls-2" d="M121.16,152l-.48-.26c-.84-.44-1.59.83-.75,1.28l.49.25c.84.45,1.58-.82.74-1.27Z"/><path class="cls-2" d="M-.46,154.28l-.28.46c-.5.8.77,1.55,1.27.74L.82,155c.5-.81-.78-1.55-1.28-.74Z"/><path class="cls-2" d="M23.66,110l-.48-.26c-.84-.44-1.59.83-.75,1.28l.49.25c.84.45,1.58-.82.74-1.27Z"/><path class="cls-2" d="M194.54,70.28l-.28.46c-.5.8.77,1.55,1.27.74l.29-.46c.5-.81-.78-1.55-1.28-.74Z"/><path class="cls-2" d="M182.13,12.52l-.49-.25c-.83-.45-1.58.82-.74,1.27l.49.26c.83.44,1.58-.83.74-1.28Z"/><path class="cls-2" d="M171.68,54.89a.74.74,0,0,0,0-1.48.74.74,0,0,0,0,1.48Z"/><path class="cls-2" d="M97,112.28l-.28.46c-.5.8.77,1.55,1.27.74l.29-.46c.5-.81-.78-1.55-1.28-.74Z"/><path class="cls-2" d="M84.63,54.52l-.49-.25c-.83-.45-1.58.82-.74,1.27l.49.26c.83.44,1.58-.83.74-1.28Z"/><path class="cls-2" d="M121.16,68l-.48-.26c-.84-.44-1.59.83-.75,1.28l.49.25c.84.45,1.58-.82.74-1.27Z"/><path class="cls-2" d="M74.18,96.89a.74.74,0,0,0,0-1.48.74.74,0,0,0,0,1.48Z"/><path class="cls-2" d="M-.46,70.28l-.28.46c-.5.8.77,1.55,1.27.74L.82,71c.5-.81-.78-1.55-1.28-.74Z"/><path class="cls-2" d="M23.66,26l-.48-.26c-.84-.44-1.59.83-.75,1.28l.49.25c.84.45,1.58-.82.74-1.27Z"/><path class="cls-2" d="M97,28.28l-.28.46c-.5.8.77,1.55,1.27.74l.29-.46c.5-.81-.78-1.55-1.28-.74Z"/><path class="cls-2" d="M74.18,12.89a.74.74,0,0,0,0-1.48.74.74,0,0,0,0,1.48Z"/></pattern></defs><title>puntitos_1</title><g id="Capa_2" data-name="Capa 2"><g id="Capa_1-2" data-name="Capa 1"><rect class="cls-3" width="2937" height="1456"/></g></g></svg>